<?xml version="1.0" encoding="UTF-8" standalone="no"?>
<!DOCTYPE svg PUBLIC "-//W3C//DTD SVG 1.1//EN"
 "http://www.w3.org/Graphics/SVG/1.1/DTD/svg11.dtd">
<!-- Generated by graphviz version 2.40.1 (20161225.0304)
 -->
<!-- Title: compactRelationshipsDiagram Pages: 1 -->
<svg width="1034pt" height="451pt"
 viewBox="0.00 0.00 1034.00 451.20" xmlns="http://www.w3.org/2000/svg" xmlns:xlink="http://www.w3.org/1999/xlink">
<g id="graph0" class="graph" transform="scale(1 1) rotate(0) translate(4 447.2)">
<title>compactRelationshipsDiagram</title>
<polygon fill="#ffffff" stroke="transparent" points="-4,4 -4,-447.2 1030,-447.2 1030,4 -4,4"/>
<text text-anchor="middle" x="72.4936" y="-7.3" font-family="Helvetica,sans-Serif" font-size="11.00" fill="#000000">Generated by SchemaSpy</text>
<!-- CodeTable -->
<g id="node1" class="node">
<title>CodeTable</title>
<g id="a_node1"><a xlink:href="../../tables/CodeTable.html" xlink:title="CodeTable" target="_top">
<polygon fill="#ffffff" stroke="transparent" points="352,-101.2 352,-206.2 543,-206.2 543,-101.2 352,-101.2"/>
<polygon fill="#f5f5f5" stroke="transparent" points="352.5,-182.7 352.5,-205.7 543.5,-205.7 543.5,-182.7 352.5,-182.7"/>
<polygon fill="none" stroke="#000000" points="352.5,-182.7 352.5,-205.7 543.5,-205.7 543.5,-182.7 352.5,-182.7"/>
<text text-anchor="start" x="357.5" y="-191.8" font-family="Helvetica,sans-Serif" font-weight="bold" font-size="11.00" fill="#000000">CodeTable</text>
<text text-anchor="start" x="508.5437" y="-190.8" font-family="Helvetica,sans-Serif" font-size="11.00" fill="#000000">[table]</text>
<polygon fill="none" stroke="#000000" points="352.5,-160.7 352.5,-182.7 543.5,-182.7 543.5,-160.7 352.5,-160.7"/>
<image xlink:href="../../images/primaryKeys.png" width="11px" height="12px" preserveAspectRatio="xMinYMin meet" x="357.5" y="-177.7"/>
<text text-anchor="start" x="372.5" y="-167.8" font-family="Helvetica,sans-Serif" font-size="11.00" fill="#000000">cldf_id</text>
<polygon fill="none" stroke="#000000" points="352.5,-138.7 352.5,-160.7 543.5,-160.7 543.5,-138.7 352.5,-138.7"/>
<image xlink:href="../../images/foreignKeys.png" width="11px" height="12px" preserveAspectRatio="xMinYMin meet" x="357.5" y="-155.7"/>
<text text-anchor="start" x="372.5" y="-145.8" font-family="Helvetica,sans-Serif" font-size="11.00" fill="#000000">cldf_parameterReference</text>
<polygon fill="none" stroke="#000000" points="352.5,-119.7 352.5,-138.7 543.5,-138.7 543.5,-119.7 352.5,-119.7"/>
<text text-anchor="start" x="355.5" y="-125.8" font-family="Helvetica,sans-Serif" font-size="11.00" fill="#000000">...</text>
<polygon fill="#ffffff" stroke="transparent" points="352.5,-100.7 352.5,-119.7 418.5,-119.7 418.5,-100.7 352.5,-100.7"/>
<polygon fill="none" stroke="#000000" points="352.5,-100.7 352.5,-119.7 418.5,-119.7 418.5,-100.7 352.5,-100.7"/>
<text text-anchor="start" x="355.5" y="-106.8" font-family="Helvetica,sans-Serif" font-size="11.00" fill="#000000">&lt; 1</text>
<polygon fill="#ffffff" stroke="transparent" points="418.5,-100.7 418.5,-119.7 499.5,-119.7 499.5,-100.7 418.5,-100.7"/>
<polygon fill="none" stroke="#000000" points="418.5,-100.7 418.5,-119.7 499.5,-119.7 499.5,-100.7 418.5,-100.7"/>
<text text-anchor="start" x="442.7089" y="-106.8" font-family="Helvetica,sans-Serif" font-size="11.00" fill="#000000">1,535 rows</text>
<polygon fill="#ffffff" stroke="transparent" points="499.5,-100.7 499.5,-119.7 543.5,-119.7 543.5,-100.7 499.5,-100.7"/>
<polygon fill="none" stroke="#000000" points="499.5,-100.7 499.5,-119.7 543.5,-119.7 543.5,-100.7 499.5,-100.7"/>
<text text-anchor="start" x="524.9053" y="-106.8" font-family="Helvetica,sans-Serif" font-size="11.00" fill="#000000">1 &gt;</text>
</a>
</g>
</g>
<!-- ParameterTable -->
<g id="node4" class="node">
<title>ParameterTable</title>
<g id="a_node4"><a xlink:href="../../tables/ParameterTable.html" xlink:title="ParameterTable" target="_top">
<polygon fill="#ffffff" stroke="transparent" points="170,-119.2 170,-224.2 303,-224.2 303,-119.2 170,-119.2"/>
<polygon fill="#f5f5f5" stroke="transparent" points="170.5,-200.7 170.5,-223.7 303.5,-223.7 303.5,-200.7 170.5,-200.7"/>
<polygon fill="none" stroke="#000000" points="170.5,-200.7 170.5,-223.7 303.5,-223.7 303.5,-200.7 170.5,-200.7"/>
<text text-anchor="start" x="175.5" y="-209.8" font-family="Helvetica,sans-Serif" font-weight="bold" font-size="11.00" fill="#000000">ParameterTable</text>
<text text-anchor="start" x="268.5437" y="-208.8" font-family="Helvetica,sans-Serif" font-size="11.00" fill="#000000">[table]</text>
<polygon fill="none" stroke="#000000" points="170.5,-178.7 170.5,-200.7 303.5,-200.7 303.5,-178.7 170.5,-178.7"/>
<image xlink:href="../../images/primaryKeys.png" width="11px" height="12px" preserveAspectRatio="xMinYMin meet" x="175.5" y="-195.7"/>
<text text-anchor="start" x="190.5" y="-185.8" font-family="Helvetica,sans-Serif" font-size="11.00" fill="#000000">cldf_id</text>
<polygon fill="none" stroke="#000000" points="170.5,-156.7 170.5,-178.7 303.5,-178.7 303.5,-156.7 170.5,-156.7"/>
<image xlink:href="../../images/foreignKeys.png" width="11px" height="12px" preserveAspectRatio="xMinYMin meet" x="175.5" y="-173.7"/>
<text text-anchor="start" x="190.5" y="-163.8" font-family="Helvetica,sans-Serif" font-size="11.00" fill="#000000">Question_ID</text>
<polygon fill="none" stroke="#000000" points="170.5,-137.7 170.5,-156.7 303.5,-156.7 303.5,-137.7 170.5,-137.7"/>
<text text-anchor="start" x="173.5" y="-143.8" font-family="Helvetica,sans-Serif" font-size="11.00" fill="#000000">...</text>
<polygon fill="#ffffff" stroke="transparent" points="170.5,-118.7 170.5,-137.7 211.5,-137.7 211.5,-118.7 170.5,-118.7"/>
<polygon fill="none" stroke="#000000" points="170.5,-118.7 170.5,-137.7 211.5,-137.7 211.5,-118.7 170.5,-118.7"/>
<text text-anchor="start" x="173.5" y="-124.8" font-family="Helvetica,sans-Serif" font-size="11.00" fill="#000000">&lt; 1</text>
<polygon fill="#ffffff" stroke="transparent" points="211.5,-118.7 211.5,-137.7 271.5,-137.7 271.5,-118.7 211.5,-118.7"/>
<polygon fill="none" stroke="#000000" points="211.5,-118.7 211.5,-137.7 271.5,-137.7 271.5,-118.7 211.5,-118.7"/>
<text text-anchor="start" x="223.8807" y="-124.8" font-family="Helvetica,sans-Serif" font-size="11.00" fill="#000000">381 rows</text>
<polygon fill="#ffffff" stroke="transparent" points="271.5,-118.7 271.5,-137.7 303.5,-137.7 303.5,-118.7 271.5,-118.7"/>
<polygon fill="none" stroke="#000000" points="271.5,-118.7 271.5,-137.7 303.5,-137.7 303.5,-118.7 271.5,-118.7"/>
<text text-anchor="start" x="284.9053" y="-124.8" font-family="Helvetica,sans-Serif" font-size="11.00" fill="#000000">2 &gt;</text>
</a>
</g>
</g>
<!-- CodeTable&#45;&gt;ParameterTable -->
<g id="edge1" class="edge">
<title>CodeTable:w&#45;&gt;ParameterTable:e</title>
<path fill="none" stroke="#000000" d="M338.7637,-154.2885C325.8632,-164.7952 325.6826,-189.7 303.5,-189.7"/>
<polygon fill="#000000" stroke="#000000" points="344.9121,-152.2347 353.6406,-153.1145 348.7061,-150.9673 352.5,-149.7 352.5,-149.7 352.5,-149.7 348.7061,-150.9673 351.3594,-146.2855 344.9121,-152.2347 344.9121,-152.2347"/>
<ellipse fill="none" stroke="#000000" cx="341.877" cy="-153.2486" rx="3.2" ry="3.2"/>
</g>
<!-- ContributionTable -->
<g id="node2" class="node">
<title>ContributionTable</title>
<g id="a_node2"><a xlink:href="../../tables/ContributionTable.html" xlink:title="ContributionTable" target="_top">
<polygon fill="#ffffff" stroke="transparent" points="595.5,-312.2 595.5,-439.2 779.5,-439.2 779.5,-312.2 595.5,-312.2"/>
<polygon fill="#f5f5f5" stroke="transparent" points="595.5,-415.7 595.5,-438.7 779.5,-438.7 779.5,-415.7 595.5,-415.7"/>
<polygon fill="none" stroke="#000000" points="595.5,-415.7 595.5,-438.7 779.5,-438.7 779.5,-415.7 595.5,-415.7"/>
<text text-anchor="start" x="600.5" y="-424.8" font-family="Helvetica,sans-Serif" font-weight="bold" font-size="11.00" fill="#000000">ContributionTable</text>
<text text-anchor="start" x="744.5437" y="-423.8" font-family="Helvetica,sans-Serif" font-size="11.00" fill="#000000">[table]</text>
<polygon fill="none" stroke="#000000" points="595.5,-393.7 595.5,-415.7 779.5,-415.7 779.5,-393.7 595.5,-393.7"/>
<image xlink:href="../../images/primaryKeys.png" width="11px" height="12px" preserveAspectRatio="xMinYMin meet" x="600.5" y="-410.7"/>
<text text-anchor="start" x="615.5" y="-400.8" font-family="Helvetica,sans-Serif" font-size="11.00" fill="#000000">cldf_id</text>
<polygon fill="none" stroke="#000000" points="595.5,-371.7 595.5,-393.7 779.5,-393.7 779.5,-371.7 595.5,-371.7"/>
<image xlink:href="../../images/foreignKeys.png" width="11px" height="12px" preserveAspectRatio="xMinYMin meet" x="600.5" y="-388.7"/>
<text text-anchor="start" x="615.5" y="-378.8" font-family="Helvetica,sans-Serif" font-size="11.00" fill="#000000">cldf_languageReference</text>
<polygon fill="none" stroke="#000000" points="595.5,-349.7 595.5,-371.7 779.5,-371.7 779.5,-349.7 595.5,-349.7"/>
<image xlink:href="../../images/foreignKeys.png" width="11px" height="12px" preserveAspectRatio="xMinYMin meet" x="600.5" y="-366.7"/>
<text text-anchor="start" x="615.5" y="-356.8" font-family="Helvetica,sans-Serif" font-size="11.00" fill="#000000">Neighbour_Language_ID</text>
<polygon fill="none" stroke="#000000" points="595.5,-330.7 595.5,-349.7 779.5,-349.7 779.5,-330.7 595.5,-330.7"/>
<text text-anchor="start" x="598.5" y="-336.8" font-family="Helvetica,sans-Serif" font-size="11.00" fill="#000000">...</text>
<polygon fill="#ffffff" stroke="transparent" points="595.5,-311.7 595.5,-330.7 669.5,-330.7 669.5,-311.7 595.5,-311.7"/>
<polygon fill="none" stroke="#000000" points="595.5,-311.7 595.5,-330.7 669.5,-330.7 669.5,-311.7 595.5,-311.7"/>
<text text-anchor="start" x="598.5" y="-317.8" font-family="Helvetica,sans-Serif" font-size="11.00" fill="#000000">&lt; 2</text>
<polygon fill="#ffffff" stroke="transparent" points="669.5,-311.7 669.5,-330.7 740.5,-330.7 740.5,-311.7 669.5,-311.7"/>
<polygon fill="none" stroke="#000000" points="669.5,-311.7 669.5,-330.7 740.5,-330.7 740.5,-311.7 669.5,-311.7"/>
<text text-anchor="start" x="698.9956" y="-317.8" font-family="Helvetica,sans-Serif" font-size="11.00" fill="#000000">34 rows</text>
<polygon fill="#ffffff" stroke="transparent" points="740.5,-311.7 740.5,-330.7 779.5,-330.7 779.5,-311.7 740.5,-311.7"/>
<polygon fill="none" stroke="#000000" points="740.5,-311.7 740.5,-330.7 779.5,-330.7 779.5,-311.7 740.5,-311.7"/>
<text text-anchor="start" x="770.3862" y="-317.8" font-family="Helvetica,sans-Serif" font-size="11.00" fill="#000000"> &#160;</text>
</a>
</g>
</g>
<!-- LanguageTable -->
<g id="node3" class="node">
<title>LanguageTable</title>
<g id="a_node3"><a xlink:href="../../tables/LanguageTable.html" xlink:title="LanguageTable" target="_top">
<polygon fill="#ffffff" stroke="transparent" points="375,-312.2 375,-395.2 520,-395.2 520,-312.2 375,-312.2"/>
<polygon fill="#f5f5f5" stroke="transparent" points="375.5,-371.7 375.5,-394.7 520.5,-394.7 520.5,-371.7 375.5,-371.7"/>
<polygon fill="none" stroke="#000000" points="375.5,-371.7 375.5,-394.7 520.5,-394.7 520.5,-371.7 375.5,-371.7"/>
<text text-anchor="start" x="380.5" y="-380.8" font-family="Helvetica,sans-Serif" font-weight="bold" font-size="11.00" fill="#000000">LanguageTable</text>
<text text-anchor="start" x="485.5437" y="-379.8" font-family="Helvetica,sans-Serif" font-size="11.00" fill="#000000">[table]</text>
<polygon fill="none" stroke="#000000" points="375.5,-349.7 375.5,-371.7 520.5,-371.7 520.5,-349.7 375.5,-349.7"/>
<image xlink:href="../../images/primaryKeys.png" width="11px" height="12px" preserveAspectRatio="xMinYMin meet" x="380.5" y="-366.7"/>
<text text-anchor="start" x="395.5" y="-356.8" font-family="Helvetica,sans-Serif" font-size="11.00" fill="#000000">cldf_id</text>
<polygon fill="none" stroke="#000000" points="375.5,-330.7 375.5,-349.7 520.5,-349.7 520.5,-330.7 375.5,-330.7"/>
<text text-anchor="start" x="378.5" y="-336.8" font-family="Helvetica,sans-Serif" font-size="11.00" fill="#000000">...</text>
<polygon fill="#ffffff" stroke="transparent" points="375.5,-311.7 375.5,-330.7 421.5,-330.7 421.5,-311.7 375.5,-311.7"/>
<polygon fill="none" stroke="#000000" points="375.5,-311.7 375.5,-330.7 421.5,-330.7 421.5,-311.7 375.5,-311.7"/>
<text text-anchor="start" x="378.5" y="-317.8" font-family="Helvetica,sans-Serif" font-size="11.00" fill="#000000"> &#160;</text>
<polygon fill="#ffffff" stroke="transparent" points="421.5,-311.7 421.5,-330.7 482.5,-330.7 482.5,-311.7 421.5,-311.7"/>
<polygon fill="none" stroke="#000000" points="421.5,-311.7 421.5,-330.7 482.5,-330.7 482.5,-311.7 421.5,-311.7"/>
<text text-anchor="start" x="440.9956" y="-317.8" font-family="Helvetica,sans-Serif" font-size="11.00" fill="#000000">68 rows</text>
<polygon fill="#ffffff" stroke="transparent" points="482.5,-311.7 482.5,-330.7 520.5,-330.7 520.5,-311.7 482.5,-311.7"/>
<polygon fill="none" stroke="#000000" points="482.5,-311.7 482.5,-330.7 520.5,-330.7 520.5,-311.7 482.5,-311.7"/>
<text text-anchor="start" x="501.9053" y="-317.8" font-family="Helvetica,sans-Serif" font-size="11.00" fill="#000000">3 &gt;</text>
</a>
</g>
</g>
<!-- ContributionTable&#45;&gt;LanguageTable -->
<g id="edge2" class="edge">
<title>ContributionTable:w&#45;&gt;LanguageTable:e</title>
<path fill="none" stroke="#000000" d="M581.1334,-381.2565C558.3226,-376.3621 549.81,-360.7 520.5,-360.7"/>
<polygon fill="#000000" stroke="#000000" points="587.5401,-381.9002 595.1401,-386.282 591.52,-382.3001 595.5,-382.7 595.5,-382.7 595.5,-382.7 591.52,-382.3001 595.8599,-379.118 587.5401,-381.9002 587.5401,-381.9002"/>
<ellipse fill="none" stroke="#000000" cx="584.3561" cy="-381.5802" rx="3.2" ry="3.2"/>
</g>
<!-- ContributionTable&#45;&gt;LanguageTable -->
<g id="edge3" class="edge">
<title>ContributionTable:w&#45;&gt;LanguageTable:e</title>
<path fill="none" stroke="#000000" d="M580.8917,-360.7C558.7594,-360.7 548.3646,-360.7 520.5,-360.7"/>
<polygon fill="#000000" stroke="#000000" points="587.5,-360.7001 595.5,-364.3 591.5,-360.7 595.5,-360.7 595.5,-360.7 595.5,-360.7 591.5,-360.7 595.5,-357.1 587.5,-360.7001 587.5,-360.7001"/>
<ellipse fill="none" stroke="#000000" cx="584.3" cy="-360.7001" rx="3.2" ry="3.2"/>
</g>
<!-- questions.csv -->
<g id="node5" class="node">
<title>questions.csv</title>
<g id="a_node5"><a xlink:href="../../tables/questions.csv.html" xlink:title="questions.csv" target="_top">
<polygon fill="#ffffff" stroke="transparent" points="8,-137.7 8,-201.7 121,-201.7 121,-137.7 8,-137.7"/>
<polygon fill="#f5f5f5" stroke="transparent" points="8.5,-178.7 8.5,-201.7 121.5,-201.7 121.5,-178.7 8.5,-178.7"/>
<polygon fill="none" stroke="#000000" points="8.5,-178.7 8.5,-201.7 121.5,-201.7 121.5,-178.7 8.5,-178.7"/>
<text text-anchor="start" x="13.5" y="-187.8" font-family="Helvetica,sans-Serif" font-weight="bold" font-size="11.00" fill="#000000">questions.csv</text>
<text text-anchor="start" x="86.5437" y="-186.8" font-family="Helvetica,sans-Serif" font-size="11.00" fill="#000000">[table]</text>
<polygon fill="none" stroke="#000000" points="8.5,-156.7 8.5,-178.7 121.5,-178.7 121.5,-156.7 8.5,-156.7"/>
<image xlink:href="../../images/primaryKeys.png" width="11px" height="12px" preserveAspectRatio="xMinYMin meet" x="13.5" y="-173.7"/>
<text text-anchor="start" x="28.5" y="-163.8" font-family="Helvetica,sans-Serif" font-size="11.00" fill="#000000">cldf_id</text>
<polygon fill="#ffffff" stroke="transparent" points="8.5,-137.7 8.5,-156.7 35.5,-156.7 35.5,-137.7 8.5,-137.7"/>
<polygon fill="none" stroke="#000000" points="8.5,-137.7 8.5,-156.7 35.5,-156.7 35.5,-137.7 8.5,-137.7"/>
<text text-anchor="start" x="11.5" y="-143.8" font-family="Helvetica,sans-Serif" font-size="11.00" fill="#000000"> &#160;</text>
<polygon fill="#ffffff" stroke="transparent" points="35.5,-137.7 35.5,-156.7 92.5,-156.7 92.5,-137.7 35.5,-137.7"/>
<polygon fill="none" stroke="#000000" points="35.5,-137.7 35.5,-156.7 92.5,-156.7 92.5,-137.7 35.5,-137.7"/>
<text text-anchor="start" x="44.8807" y="-143.8" font-family="Helvetica,sans-Serif" font-size="11.00" fill="#000000">280 rows</text>
<polygon fill="#ffffff" stroke="transparent" points="92.5,-137.7 92.5,-156.7 121.5,-156.7 121.5,-137.7 92.5,-137.7"/>
<polygon fill="none" stroke="#000000" points="92.5,-137.7 92.5,-156.7 121.5,-156.7 121.5,-137.7 92.5,-137.7"/>
<text text-anchor="start" x="102.9053" y="-143.8" font-family="Helvetica,sans-Serif" font-size="11.00" fill="#000000">1 &gt;</text>
</a>
</g>
</g>
<!-- ParameterTable&#45;&gt;questions.csv -->
<g id="edge4" class="edge">
<title>ParameterTable:w&#45;&gt;questions.csv:e</title>
<path fill="none" stroke="#000000" d="M155.9909,-167.7C144.6774,-167.7 137.4931,-167.7 121.5,-167.7"/>
<polygon fill="#000000" stroke="#000000" points="162.5,-167.7001 170.5,-171.3 166.5,-167.7 170.5,-167.7 170.5,-167.7 170.5,-167.7 166.5,-167.7 170.5,-164.1 162.5,-167.7001 162.5,-167.7001"/>
<ellipse fill="none" stroke="#000000" cx="159.3" cy="-167.7001" rx="3.2" ry="3.2"/>
</g>
<!-- SourceTable -->
<g id="node6" class="node">
<title>SourceTable</title>
<g id="a_node6"><a xlink:href="../../tables/SourceTable.html" xlink:title="SourceTable" target="_top">
<polygon fill="#ffffff" stroke="transparent" points="630,-38.2 630,-121.2 745,-121.2 745,-38.2 630,-38.2"/>
<polygon fill="#f5f5f5" stroke="transparent" points="630.5,-97.7 630.5,-120.7 745.5,-120.7 745.5,-97.7 630.5,-97.7"/>
<polygon fill="none" stroke="#000000" points="630.5,-97.7 630.5,-120.7 745.5,-120.7 745.5,-97.7 630.5,-97.7"/>
<text text-anchor="start" x="635.5" y="-106.8" font-family="Helvetica,sans-Serif" font-weight="bold" font-size="11.00" fill="#000000">SourceTable</text>
<text text-anchor="start" x="710.5437" y="-105.8" font-family="Helvetica,sans-Serif" font-size="11.00" fill="#000000">[table]</text>
<polygon fill="none" stroke="#000000" points="630.5,-75.7 630.5,-97.7 745.5,-97.7 745.5,-75.7 630.5,-75.7"/>
<image xlink:href="../../images/primaryKeys.png" width="11px" height="12px" preserveAspectRatio="xMinYMin meet" x="635.5" y="-92.7"/>
<text text-anchor="start" x="650.5" y="-82.8" font-family="Helvetica,sans-Serif" font-size="11.00" fill="#000000">id</text>
<polygon fill="none" stroke="#000000" points="630.5,-56.7 630.5,-75.7 745.5,-75.7 745.5,-56.7 630.5,-56.7"/>
<text text-anchor="start" x="633.5" y="-62.8" font-family="Helvetica,sans-Serif" font-size="11.00" fill="#000000">...</text>
<polygon fill="#ffffff" stroke="transparent" points="630.5,-37.7 630.5,-56.7 664.5,-56.7 664.5,-37.7 630.5,-37.7"/>
<polygon fill="none" stroke="#000000" points="630.5,-37.7 630.5,-56.7 664.5,-56.7 664.5,-37.7 630.5,-37.7"/>
<text text-anchor="start" x="633.5" y="-43.8" font-family="Helvetica,sans-Serif" font-size="11.00" fill="#000000"> &#160;</text>
<polygon fill="#ffffff" stroke="transparent" points="664.5,-37.7 664.5,-56.7 713.5,-56.7 713.5,-37.7 664.5,-37.7"/>
<polygon fill="none" stroke="#000000" points="664.5,-37.7 664.5,-56.7 713.5,-56.7 713.5,-37.7 664.5,-37.7"/>
<text text-anchor="start" x="678.1105" y="-43.8" font-family="Helvetica,sans-Serif" font-size="11.00" fill="#000000">0 rows</text>
<polygon fill="#ffffff" stroke="transparent" points="713.5,-37.7 713.5,-56.7 745.5,-56.7 745.5,-37.7 713.5,-37.7"/>
<polygon fill="none" stroke="#000000" points="713.5,-37.7 713.5,-56.7 745.5,-56.7 745.5,-37.7 713.5,-37.7"/>
<text text-anchor="start" x="726.9053" y="-43.8" font-family="Helvetica,sans-Serif" font-size="11.00" fill="#000000">1 &gt;</text>
</a>
</g>
</g>
<!-- ValueTable -->
<g id="node7" class="node">
<title>ValueTable</title>
<g id="a_node7"><a xlink:href="../../tables/ValueTable.html" xlink:title="ValueTable" target="_top">
<polygon fill="#ffffff" stroke="transparent" points="592,-142.2 592,-291.2 783,-291.2 783,-142.2 592,-142.2"/>
<polygon fill="#f5f5f5" stroke="transparent" points="592.5,-267.7 592.5,-290.7 783.5,-290.7 783.5,-267.7 592.5,-267.7"/>
<polygon fill="none" stroke="#000000" points="592.5,-267.7 592.5,-290.7 783.5,-290.7 783.5,-267.7 592.5,-267.7"/>
<text text-anchor="start" x="597.5" y="-276.8" font-family="Helvetica,sans-Serif" font-weight="bold" font-size="11.00" fill="#000000">ValueTable</text>
<text text-anchor="start" x="748.5437" y="-275.8" font-family="Helvetica,sans-Serif" font-size="11.00" fill="#000000">[table]</text>
<polygon fill="none" stroke="#000000" points="592.5,-245.7 592.5,-267.7 783.5,-267.7 783.5,-245.7 592.5,-245.7"/>
<image xlink:href="../../images/primaryKeys.png" width="11px" height="12px" preserveAspectRatio="xMinYMin meet" x="597.5" y="-262.7"/>
<text text-anchor="start" x="612.5" y="-252.8" font-family="Helvetica,sans-Serif" font-size="11.00" fill="#000000">cldf_id</text>
<polygon fill="none" stroke="#000000" points="592.5,-223.7 592.5,-245.7 783.5,-245.7 783.5,-223.7 592.5,-223.7"/>
<image xlink:href="../../images/foreignKeys.png" width="11px" height="12px" preserveAspectRatio="xMinYMin meet" x="597.5" y="-240.7"/>
<text text-anchor="start" x="612.5" y="-230.8" font-family="Helvetica,sans-Serif" font-size="11.00" fill="#000000">cldf_languageReference</text>
<polygon fill="none" stroke="#000000" points="592.5,-201.7 592.5,-223.7 783.5,-223.7 783.5,-201.7 592.5,-201.7"/>
<image xlink:href="../../images/foreignKeys.png" width="11px" height="12px" preserveAspectRatio="xMinYMin meet" x="597.5" y="-218.7"/>
<text text-anchor="start" x="612.5" y="-208.8" font-family="Helvetica,sans-Serif" font-size="11.00" fill="#000000">cldf_parameterReference</text>
<polygon fill="none" stroke="#000000" points="592.5,-179.7 592.5,-201.7 783.5,-201.7 783.5,-179.7 592.5,-179.7"/>
<image xlink:href="../../images/foreignKeys.png" width="11px" height="12px" preserveAspectRatio="xMinYMin meet" x="597.5" y="-196.7"/>
<text text-anchor="start" x="612.5" y="-186.8" font-family="Helvetica,sans-Serif" font-size="11.00" fill="#000000">cldf_codeReference</text>
<polygon fill="none" stroke="#000000" points="592.5,-160.7 592.5,-179.7 783.5,-179.7 783.5,-160.7 592.5,-160.7"/>
<text text-anchor="start" x="595.5" y="-166.8" font-family="Helvetica,sans-Serif" font-size="11.00" fill="#000000">...</text>
<polygon fill="#ffffff" stroke="transparent" points="592.5,-141.7 592.5,-160.7 655.5,-160.7 655.5,-141.7 592.5,-141.7"/>
<polygon fill="none" stroke="#000000" points="592.5,-141.7 592.5,-160.7 655.5,-160.7 655.5,-141.7 592.5,-141.7"/>
<text text-anchor="start" x="595.5" y="-147.8" font-family="Helvetica,sans-Serif" font-size="11.00" fill="#000000">&lt; 3</text>
<polygon fill="#ffffff" stroke="transparent" points="655.5,-141.7 655.5,-160.7 741.5,-160.7 741.5,-141.7 655.5,-141.7"/>
<polygon fill="none" stroke="#000000" points="655.5,-141.7 655.5,-160.7 741.5,-160.7 741.5,-141.7 655.5,-141.7"/>
<text text-anchor="start" x="678.594" y="-147.8" font-family="Helvetica,sans-Serif" font-size="11.00" fill="#000000">12,924 rows</text>
<polygon fill="#ffffff" stroke="transparent" points="741.5,-141.7 741.5,-160.7 783.5,-160.7 783.5,-141.7 741.5,-141.7"/>
<polygon fill="none" stroke="#000000" points="741.5,-141.7 741.5,-160.7 783.5,-160.7 783.5,-141.7 741.5,-141.7"/>
<text text-anchor="start" x="764.9053" y="-147.8" font-family="Helvetica,sans-Serif" font-size="11.00" fill="#000000">1 &gt;</text>
</a>
</g>
</g>
<!-- ValueTable&#45;&gt;CodeTable -->
<g id="edge5" class="edge">
<title>ValueTable:w&#45;&gt;CodeTable:e</title>
<path fill="none" stroke="#000000" d="M578.2744,-187.7313C566.6829,-182.3875 561.0182,-171.7 543.5,-171.7"/>
<polygon fill="#000000" stroke="#000000" points="584.6687,-189.0656 591.7645,-194.2241 588.5844,-189.8828 592.5,-190.7 592.5,-190.7 592.5,-190.7 588.5844,-189.8828 593.2355,-187.1759 584.6687,-189.0656 584.6687,-189.0656"/>
<ellipse fill="none" stroke="#000000" cx="581.5362" cy="-188.4119" rx="3.2" ry="3.2"/>
</g>
<!-- ValueTable&#45;&gt;LanguageTable -->
<g id="edge6" class="edge">
<title>ValueTable:w&#45;&gt;LanguageTable:e</title>
<path fill="none" stroke="#000000" d="M578.1442,-237.4489C537.0823,-255.8751 579.3293,-360.7 520.5,-360.7"/>
<polygon fill="#000000" stroke="#000000" points="584.6427,-236.2046 593.1771,-238.2358 588.5714,-235.4523 592.5,-234.7 592.5,-234.7 592.5,-234.7 588.5714,-235.4523 591.8229,-231.1642 584.6427,-236.2046 584.6427,-236.2046"/>
<ellipse fill="none" stroke="#000000" cx="581.4998" cy="-236.8064" rx="3.2" ry="3.2"/>
</g>
<!-- ValueTable&#45;&gt;ParameterTable -->
<g id="edge7" class="edge">
<title>ValueTable:w&#45;&gt;ParameterTable:e</title>
<path fill="none" stroke="#000000" d="M578.1002,-213.4821C569.6707,-214.4646 563.58,-216.0951 551,-216.7 459.1062,-221.1184 432.0525,-243.3601 344,-216.7 323.2949,-210.431 325.1333,-189.7 303.5,-189.7"/>
<polygon fill="#000000" stroke="#000000" points="584.5118,-213.1339 592.6953,-216.2947 588.5059,-212.917 592.5,-212.7 592.5,-212.7 592.5,-212.7 588.5059,-212.917 592.3047,-209.1053 584.5118,-213.1339 584.5118,-213.1339"/>
<ellipse fill="none" stroke="#000000" cx="581.3165" cy="-213.3075" rx="3.2" ry="3.2"/>
</g>
<!-- ValueTable_SourceTable -->
<g id="node8" class="node">
<title>ValueTable_SourceTable</title>
<g id="a_node8"><a xlink:href="../../tables/ValueTable_SourceTable.html" xlink:title="ValueTable_SourceTable" target="_top">
<polygon fill="#ffffff" stroke="transparent" points="832,-112.2 832,-217.2 1018,-217.2 1018,-112.2 832,-112.2"/>
<polygon fill="#f5f5f5" stroke="transparent" points="832,-193.7 832,-216.7 1018,-216.7 1018,-193.7 832,-193.7"/>
<polygon fill="none" stroke="#000000" points="832,-193.7 832,-216.7 1018,-216.7 1018,-193.7 832,-193.7"/>
<text text-anchor="start" x="837" y="-202.8" font-family="Helvetica,sans-Serif" font-weight="bold" font-size="11.00" fill="#000000">ValueTable_SourceTable</text>
<text text-anchor="start" x="983.0437" y="-201.8" font-family="Helvetica,sans-Serif" font-size="11.00" fill="#000000">[table]</text>
<polygon fill="none" stroke="#000000" points="832,-171.7 832,-193.7 1018,-193.7 1018,-171.7 832,-171.7"/>
<image xlink:href="../../images/foreignKeys.png" width="11px" height="12px" preserveAspectRatio="xMinYMin meet" x="837" y="-188.7"/>
<text text-anchor="start" x="852" y="-178.8" font-family="Helvetica,sans-Serif" font-size="11.00" fill="#000000">ValueTable_cldf_id</text>
<polygon fill="none" stroke="#000000" points="832,-149.7 832,-171.7 1018,-171.7 1018,-149.7 832,-149.7"/>
<image xlink:href="../../images/foreignKeys.png" width="11px" height="12px" preserveAspectRatio="xMinYMin meet" x="837" y="-166.7"/>
<text text-anchor="start" x="852" y="-156.8" font-family="Helvetica,sans-Serif" font-size="11.00" fill="#000000">SourceTable_id</text>
<polygon fill="none" stroke="#000000" points="832,-130.7 832,-149.7 1018,-149.7 1018,-130.7 832,-130.7"/>
<text text-anchor="start" x="835" y="-136.8" font-family="Helvetica,sans-Serif" font-size="11.00" fill="#000000">...</text>
<polygon fill="#ffffff" stroke="transparent" points="832,-111.7 832,-130.7 910,-130.7 910,-111.7 832,-111.7"/>
<polygon fill="none" stroke="#000000" points="832,-111.7 832,-130.7 910,-130.7 910,-111.7 832,-111.7"/>
<text text-anchor="start" x="835" y="-117.8" font-family="Helvetica,sans-Serif" font-size="11.00" fill="#000000">&lt; 2</text>
<polygon fill="#ffffff" stroke="transparent" points="910,-111.7 910,-130.7 977,-130.7 977,-111.7 910,-111.7"/>
<polygon fill="none" stroke="#000000" points="910,-111.7 910,-130.7 977,-130.7 977,-111.7 910,-111.7"/>
<text text-anchor="start" x="941.6105" y="-117.8" font-family="Helvetica,sans-Serif" font-size="11.00" fill="#000000">0 rows</text>
<polygon fill="#ffffff" stroke="transparent" points="977,-111.7 977,-130.7 1018,-130.7 1018,-111.7 977,-111.7"/>
<polygon fill="none" stroke="#000000" points="977,-111.7 977,-130.7 1018,-130.7 1018,-111.7 977,-111.7"/>
<text text-anchor="start" x="1008.8862" y="-117.8" font-family="Helvetica,sans-Serif" font-size="11.00" fill="#000000"> &#160;</text>
</a>
</g>
</g>
<!-- ValueTable_SourceTable&#45;&gt;SourceTable -->
<g id="edge8" class="edge">
<title>ValueTable_SourceTable:w&#45;&gt;SourceTable:e</title>
<path fill="none" stroke="#000000" d="M817.5711,-158.2379C783.8386,-145.3978 790.5594,-86.7 745.5,-86.7"/>
<polygon fill="#000000" stroke="#000000" points="824.114,-159.3543 831.3944,-164.2487 828.057,-160.0272 832,-160.7 832,-160.7 832,-160.7 828.057,-160.0272 832.6056,-157.1513 824.114,-159.3543 824.114,-159.3543"/>
<ellipse fill="none" stroke="#000000" cx="820.9596" cy="-158.816" rx="3.2" ry="3.2"/>
</g>
<!-- ValueTable_SourceTable&#45;&gt;ValueTable -->
<g id="edge9" class="edge">
<title>ValueTable_SourceTable:w&#45;&gt;ValueTable:e</title>
<path fill="none" stroke="#000000" d="M818.1253,-187.5553C800.4015,-204.0184 816.679,-256.7 783.5,-256.7"/>
<polygon fill="#000000" stroke="#000000" points="824.449,-185.3425 833.1891,-186.098 828.2245,-184.0212 832,-182.7 832,-182.7 832,-182.7 828.2245,-184.0212 830.8109,-179.302 824.449,-185.3425 824.449,-185.3425"/>
<ellipse fill="none" stroke="#000000" cx="821.4286" cy="-186.3994" rx="3.2" ry="3.2"/>
</g>
</g>
</svg>

