<?xml version="1.0" encoding="UTF-8" standalone="no"?>
<!DOCTYPE svg PUBLIC "-//W3C//DTD SVG 1.1//EN"
 "http://www.w3.org/Graphics/SVG/1.1/DTD/svg11.dtd">
<!-- Generated by graphviz version 2.40.1 (20161225.0304)
 -->
<!-- Title: compactRelationshipsDiagram Pages: 1 -->
<svg width="1160pt" height="605pt"
 viewBox="0.00 0.00 1160.00 605.20" xmlns="http://www.w3.org/2000/svg" xmlns:xlink="http://www.w3.org/1999/xlink">
<g id="graph0" class="graph" transform="scale(1 1) rotate(0) translate(4 601.2)">
<title>compactRelationshipsDiagram</title>
<polygon fill="#ffffff" stroke="transparent" points="-4,4 -4,-601.2 1156,-601.2 1156,4 -4,4"/>
<text text-anchor="middle" x="72.4936" y="-7.3" font-family="Helvetica,sans-Serif" font-size="11.00" fill="#000000">Generated by SchemaSpy</text>
<!-- MediaTable -->
<g id="node1" class="node">
<title>MediaTable</title>
<g id="a_node1"><a xlink:href="../../tables/MediaTable.html" xlink:title="MediaTable" target="_top">
<polygon fill="#ffffff" stroke="transparent" points="200,-260.2 200,-343.2 325,-343.2 325,-260.2 200,-260.2"/>
<polygon fill="#f5f5f5" stroke="transparent" points="200.5,-319.7 200.5,-342.7 325.5,-342.7 325.5,-319.7 200.5,-319.7"/>
<polygon fill="none" stroke="#000000" points="200.5,-319.7 200.5,-342.7 325.5,-342.7 325.5,-319.7 200.5,-319.7"/>
<text text-anchor="start" x="205.5" y="-328.3" font-family="Helvetica,sans-Serif" font-weight="bold" font-size="11.00" fill="#000000">MediaTable</text>
<text text-anchor="start" x="290.5437" y="-327.8" font-family="Helvetica,sans-Serif" font-size="11.00" fill="#000000">[table]</text>
<polygon fill="none" stroke="#000000" points="200.5,-297.7 200.5,-319.7 325.5,-319.7 325.5,-297.7 200.5,-297.7"/>
<image xlink:href="../../images/primaryKeys.png" width="11px" height="12px" preserveAspectRatio="xMinYMin meet" x="205.5" y="-314.7"/>
<text text-anchor="start" x="220.5" y="-304.8" font-family="Helvetica,sans-Serif" font-size="11.00" fill="#000000">cldf_id</text>
<polygon fill="none" stroke="#000000" points="200.5,-278.7 200.5,-297.7 325.5,-297.7 325.5,-278.7 200.5,-278.7"/>
<text text-anchor="start" x="203.5" y="-284.8" font-family="Helvetica,sans-Serif" font-size="11.00" fill="#000000">...</text>
<polygon fill="#ffffff" stroke="transparent" points="200.5,-259.7 200.5,-278.7 236.5,-278.7 236.5,-259.7 200.5,-259.7"/>
<polygon fill="none" stroke="#000000" points="200.5,-259.7 200.5,-278.7 236.5,-278.7 236.5,-259.7 200.5,-259.7"/>
<text text-anchor="start" x="203.5" y="-265.8" font-family="Helvetica,sans-Serif" font-size="11.00" fill="#000000"> &#160;</text>
<polygon fill="#ffffff" stroke="transparent" points="236.5,-259.7 236.5,-278.7 292.5,-278.7 292.5,-259.7 236.5,-259.7"/>
<polygon fill="none" stroke="#000000" points="236.5,-259.7 236.5,-278.7 292.5,-278.7 292.5,-259.7 236.5,-259.7"/>
<text text-anchor="start" x="250.9956" y="-265.8" font-family="Helvetica,sans-Serif" font-size="11.00" fill="#000000">90 rows</text>
<polygon fill="#ffffff" stroke="transparent" points="292.5,-259.7 292.5,-278.7 325.5,-278.7 325.5,-259.7 292.5,-259.7"/>
<polygon fill="none" stroke="#000000" points="292.5,-259.7 292.5,-278.7 325.5,-278.7 325.5,-259.7 292.5,-259.7"/>
<text text-anchor="start" x="306.9053" y="-265.8" font-family="Helvetica,sans-Serif" font-size="11.00" fill="#000000">1 &gt;</text>
</a>
</g>
</g>
<!-- ContributionTable_SourceTable -->
<g id="node2" class="node">
<title>ContributionTable_SourceTable</title>
<g id="a_node2"><a xlink:href="../../tables/ContributionTable_SourceTable.html" xlink:title="ContributionTable_SourceTable" target="_top">
<polygon fill="#ffffff" stroke="transparent" points="918,-374.2 918,-479.2 1144,-479.2 1144,-374.2 918,-374.2"/>
<polygon fill="#f5f5f5" stroke="transparent" points="918,-455.7 918,-478.7 1144,-478.7 1144,-455.7 918,-455.7"/>
<polygon fill="none" stroke="#000000" points="918,-455.7 918,-478.7 1144,-478.7 1144,-455.7 918,-455.7"/>
<text text-anchor="start" x="923" y="-464.3" font-family="Helvetica,sans-Serif" font-weight="bold" font-size="11.00" fill="#000000">ContributionTable_SourceTable</text>
<text text-anchor="start" x="1109.5219" y="-463.8" font-family="Helvetica,sans-Serif" font-size="11.00" fill="#000000">[table]</text>
<polygon fill="none" stroke="#000000" points="918,-433.7 918,-455.7 1144,-455.7 1144,-433.7 918,-433.7"/>
<image xlink:href="../../images/foreignKeys.png" width="11px" height="12px" preserveAspectRatio="xMinYMin meet" x="923" y="-450.7"/>
<text text-anchor="start" x="947" y="-440.8" font-family="Helvetica,sans-Serif" font-size="11.00" fill="#000000">ContributionTable_cldf_id</text>
<polygon fill="none" stroke="#000000" points="918,-411.7 918,-433.7 1144,-433.7 1144,-411.7 918,-411.7"/>
<image xlink:href="../../images/foreignKeys.png" width="11px" height="12px" preserveAspectRatio="xMinYMin meet" x="923" y="-428.7"/>
<text text-anchor="start" x="947" y="-418.8" font-family="Helvetica,sans-Serif" font-size="11.00" fill="#000000">SourceTable_id</text>
<polygon fill="none" stroke="#000000" points="918,-392.7 918,-411.7 1144,-411.7 1144,-392.7 918,-392.7"/>
<text text-anchor="start" x="921" y="-398.8" font-family="Helvetica,sans-Serif" font-size="11.00" fill="#000000">...</text>
<polygon fill="#ffffff" stroke="transparent" points="918,-373.7 918,-392.7 1010,-392.7 1010,-373.7 918,-373.7"/>
<polygon fill="none" stroke="#000000" points="918,-373.7 918,-392.7 1010,-392.7 1010,-373.7 918,-373.7"/>
<text text-anchor="start" x="921" y="-379.8" font-family="Helvetica,sans-Serif" font-size="11.00" fill="#000000">&lt; 2</text>
<polygon fill="#ffffff" stroke="transparent" points="1010,-373.7 1010,-392.7 1096,-392.7 1096,-373.7 1010,-373.7"/>
<polygon fill="none" stroke="#000000" points="1010,-373.7 1010,-392.7 1096,-392.7 1096,-373.7 1010,-373.7"/>
<text text-anchor="start" x="1048.3807" y="-379.8" font-family="Helvetica,sans-Serif" font-size="11.00" fill="#000000">576 rows</text>
<polygon fill="#ffffff" stroke="transparent" points="1096,-373.7 1096,-392.7 1144,-392.7 1144,-373.7 1096,-373.7"/>
<polygon fill="none" stroke="#000000" points="1096,-373.7 1096,-392.7 1144,-392.7 1144,-373.7 1096,-373.7"/>
<text text-anchor="start" x="1134.8862" y="-379.8" font-family="Helvetica,sans-Serif" font-size="11.00" fill="#000000"> &#160;</text>
</a>
</g>
</g>
<!-- SourceTable -->
<g id="node7" class="node">
<title>SourceTable</title>
<g id="a_node7"><a xlink:href="../../tables/SourceTable.html" xlink:title="SourceTable" target="_top">
<polygon fill="#ffffff" stroke="transparent" points="687.5,-356.2 687.5,-439.2 799.5,-439.2 799.5,-356.2 687.5,-356.2"/>
<polygon fill="#f5f5f5" stroke="transparent" points="687.5,-415.7 687.5,-438.7 799.5,-438.7 799.5,-415.7 687.5,-415.7"/>
<polygon fill="none" stroke="#000000" points="687.5,-415.7 687.5,-438.7 799.5,-438.7 799.5,-415.7 687.5,-415.7"/>
<text text-anchor="start" x="692.5" y="-424.3" font-family="Helvetica,sans-Serif" font-weight="bold" font-size="11.00" fill="#000000">SourceTable</text>
<text text-anchor="start" x="765.0219" y="-423.8" font-family="Helvetica,sans-Serif" font-size="11.00" fill="#000000">[table]</text>
<polygon fill="none" stroke="#000000" points="687.5,-393.7 687.5,-415.7 799.5,-415.7 799.5,-393.7 687.5,-393.7"/>
<image xlink:href="../../images/primaryKeys.png" width="11px" height="12px" preserveAspectRatio="xMinYMin meet" x="692.5" y="-410.7"/>
<text text-anchor="start" x="711.5" y="-400.8" font-family="Helvetica,sans-Serif" font-size="11.00" fill="#000000">id</text>
<polygon fill="none" stroke="#000000" points="687.5,-374.7 687.5,-393.7 799.5,-393.7 799.5,-374.7 687.5,-374.7"/>
<text text-anchor="start" x="690.5" y="-380.8" font-family="Helvetica,sans-Serif" font-size="11.00" fill="#000000">...</text>
<polygon fill="#ffffff" stroke="transparent" points="687.5,-355.7 687.5,-374.7 713.5,-374.7 713.5,-355.7 687.5,-355.7"/>
<polygon fill="none" stroke="#000000" points="687.5,-355.7 687.5,-374.7 713.5,-374.7 713.5,-355.7 687.5,-355.7"/>
<text text-anchor="start" x="690.5" y="-361.8" font-family="Helvetica,sans-Serif" font-size="11.00" fill="#000000"> &#160;</text>
<polygon fill="#ffffff" stroke="transparent" points="713.5,-355.7 713.5,-374.7 770.5,-374.7 770.5,-355.7 713.5,-355.7"/>
<polygon fill="none" stroke="#000000" points="713.5,-355.7 713.5,-374.7 770.5,-374.7 770.5,-355.7 713.5,-355.7"/>
<text text-anchor="start" x="722.8807" y="-361.8" font-family="Helvetica,sans-Serif" font-size="11.00" fill="#000000">429 rows</text>
<polygon fill="#ffffff" stroke="transparent" points="770.5,-355.7 770.5,-374.7 799.5,-374.7 799.5,-355.7 770.5,-355.7"/>
<polygon fill="none" stroke="#000000" points="770.5,-355.7 770.5,-374.7 799.5,-374.7 799.5,-355.7 770.5,-355.7"/>
<text text-anchor="start" x="780.9053" y="-361.8" font-family="Helvetica,sans-Serif" font-size="11.00" fill="#000000">2 &gt;</text>
</a>
</g>
</g>
<!-- ContributionTable_SourceTable&#45;&gt;SourceTable -->
<g id="edge8" class="edge">
<title>ContributionTable_SourceTable:w&#45;&gt;SourceTable:e</title>
<path fill="none" stroke="#000000" d="M903.4983,-422.2185C861.9996,-419.356 847.5686,-404.7 799.5,-404.7"/>
<polygon fill="#000000" stroke="#000000" points="910.0044,-422.4345 917.8805,-426.298 914.0022,-422.5672 918,-422.7 918,-422.7 918,-422.7 914.0022,-422.5672 918.1195,-419.102 910.0044,-422.4345 910.0044,-422.4345"/>
<ellipse fill="none" stroke="#000000" cx="906.8062" cy="-422.3283" rx="3.2" ry="3.2"/>
</g>
<!-- ContributionTable -->
<g id="node12" class="node">
<title>ContributionTable</title>
<g id="a_node12"><a xlink:href="../../tables/ContributionTable.html" xlink:title="ContributionTable" target="_top">
<polygon fill="#ffffff" stroke="transparent" points="399,-331.2 399,-480.2 567,-480.2 567,-331.2 399,-331.2"/>
<polygon fill="#f5f5f5" stroke="transparent" points="399,-456.7 399,-479.7 567,-479.7 567,-456.7 399,-456.7"/>
<polygon fill="none" stroke="#000000" points="399,-456.7 399,-479.7 567,-479.7 567,-456.7 399,-456.7"/>
<text text-anchor="start" x="404" y="-465.3" font-family="Helvetica,sans-Serif" font-weight="bold" font-size="11.00" fill="#000000">ContributionTable</text>
<text text-anchor="start" x="532.0437" y="-464.8" font-family="Helvetica,sans-Serif" font-size="11.00" fill="#000000">[table]</text>
<polygon fill="none" stroke="#000000" points="399,-434.7 399,-456.7 567,-456.7 567,-434.7 399,-434.7"/>
<image xlink:href="../../images/primaryKeys.png" width="11px" height="12px" preserveAspectRatio="xMinYMin meet" x="404" y="-451.7"/>
<text text-anchor="start" x="419" y="-441.8" font-family="Helvetica,sans-Serif" font-size="11.00" fill="#000000">cldf_id</text>
<polygon fill="none" stroke="#000000" points="399,-412.7 399,-434.7 567,-434.7 567,-412.7 399,-412.7"/>
<image xlink:href="../../images/foreignKeys.png" width="11px" height="12px" preserveAspectRatio="xMinYMin meet" x="404" y="-429.7"/>
<text text-anchor="start" x="419" y="-419.8" font-family="Helvetica,sans-Serif" font-size="11.00" fill="#000000">cldf_languageReference</text>
<polygon fill="none" stroke="#000000" points="399,-390.7 399,-412.7 567,-412.7 567,-390.7 399,-390.7"/>
<image xlink:href="../../images/foreignKeys.png" width="11px" height="12px" preserveAspectRatio="xMinYMin meet" x="404" y="-407.7"/>
<text text-anchor="start" x="419" y="-397.8" font-family="Helvetica,sans-Serif" font-size="11.00" fill="#000000">Neighbour_Language_ID</text>
<polygon fill="none" stroke="#000000" points="399,-368.7 399,-390.7 567,-390.7 567,-368.7 399,-368.7"/>
<image xlink:href="../../images/foreignKeys.png" width="11px" height="12px" preserveAspectRatio="xMinYMin meet" x="404" y="-385.7"/>
<text text-anchor="start" x="419" y="-375.8" font-family="Helvetica,sans-Serif" font-size="11.00" fill="#000000">cldf_mediaReference</text>
<polygon fill="none" stroke="#000000" points="399,-349.7 399,-368.7 567,-368.7 567,-349.7 399,-349.7"/>
<text text-anchor="start" x="402" y="-355.8" font-family="Helvetica,sans-Serif" font-size="11.00" fill="#000000">...</text>
<polygon fill="#ffffff" stroke="transparent" points="399,-330.7 399,-349.7 458,-349.7 458,-330.7 399,-330.7"/>
<polygon fill="none" stroke="#000000" points="399,-330.7 399,-349.7 458,-349.7 458,-330.7 399,-330.7"/>
<text text-anchor="start" x="402" y="-336.8" font-family="Helvetica,sans-Serif" font-size="11.00" fill="#000000">&lt; 3</text>
<polygon fill="#ffffff" stroke="transparent" points="458,-330.7 458,-349.7 527,-349.7 527,-330.7 458,-330.7"/>
<polygon fill="none" stroke="#000000" points="458,-330.7 458,-349.7 527,-349.7 527,-330.7 458,-330.7"/>
<text text-anchor="start" x="479.3807" y="-336.8" font-family="Helvetica,sans-Serif" font-size="11.00" fill="#000000">124 rows</text>
<polygon fill="#ffffff" stroke="transparent" points="527,-330.7 527,-349.7 567,-349.7 567,-330.7 527,-330.7"/>
<polygon fill="none" stroke="#000000" points="527,-330.7 527,-349.7 567,-349.7 567,-330.7 527,-330.7"/>
<text text-anchor="start" x="548.4053" y="-336.8" font-family="Helvetica,sans-Serif" font-size="11.00" fill="#000000">4 &gt;</text>
</a>
</g>
</g>
<!-- ContributionTable_SourceTable&#45;&gt;ContributionTable -->
<g id="edge7" class="edge">
<title>ContributionTable_SourceTable:w&#45;&gt;ContributionTable:e</title>
<path fill="none" stroke="#000000" d="M903.4732,-445.7201C895.3004,-446.9521 889.3111,-448.9521 877,-449.7 758.5517,-456.8958 728.5391,-455.2016 610,-449.7 590.827,-448.8102 586.1936,-445.7 567,-445.7"/>
<polygon fill="#000000" stroke="#000000" points="910.0197,-445.2605 918.2522,-448.2912 914.0098,-444.9802 918,-444.7 918,-444.7 918,-444.7 914.0098,-444.9802 917.7478,-441.1088 910.0197,-445.2605 910.0197,-445.2605"/>
<ellipse fill="none" stroke="#000000" cx="906.8275" cy="-445.4847" rx="3.2" ry="3.2"/>
</g>
<!-- CodeTable -->
<g id="node3" class="node">
<title>CodeTable</title>
<g id="a_node3"><a xlink:href="../../tables/CodeTable.html" xlink:title="CodeTable" target="_top">
<polygon fill="#ffffff" stroke="transparent" points="397,-38.2 397,-143.2 569,-143.2 569,-38.2 397,-38.2"/>
<polygon fill="#f5f5f5" stroke="transparent" points="397,-119.7 397,-142.7 569,-142.7 569,-119.7 397,-119.7"/>
<polygon fill="none" stroke="#000000" points="397,-119.7 397,-142.7 569,-142.7 569,-119.7 397,-119.7"/>
<text text-anchor="start" x="402" y="-128.3" font-family="Helvetica,sans-Serif" font-weight="bold" font-size="11.00" fill="#000000">CodeTable</text>
<text text-anchor="start" x="534.0437" y="-127.8" font-family="Helvetica,sans-Serif" font-size="11.00" fill="#000000">[table]</text>
<polygon fill="none" stroke="#000000" points="397,-97.7 397,-119.7 569,-119.7 569,-97.7 397,-97.7"/>
<image xlink:href="../../images/primaryKeys.png" width="11px" height="12px" preserveAspectRatio="xMinYMin meet" x="402" y="-114.7"/>
<text text-anchor="start" x="417" y="-104.8" font-family="Helvetica,sans-Serif" font-size="11.00" fill="#000000">cldf_id</text>
<polygon fill="none" stroke="#000000" points="397,-75.7 397,-97.7 569,-97.7 569,-75.7 397,-75.7"/>
<image xlink:href="../../images/foreignKeys.png" width="11px" height="12px" preserveAspectRatio="xMinYMin meet" x="402" y="-92.7"/>
<text text-anchor="start" x="417" y="-82.8" font-family="Helvetica,sans-Serif" font-size="11.00" fill="#000000">cldf_parameterReference</text>
<polygon fill="none" stroke="#000000" points="397,-56.7 397,-75.7 569,-75.7 569,-56.7 397,-56.7"/>
<text text-anchor="start" x="400" y="-62.8" font-family="Helvetica,sans-Serif" font-size="11.00" fill="#000000">...</text>
<polygon fill="#ffffff" stroke="transparent" points="397,-37.7 397,-56.7 453,-56.7 453,-37.7 397,-37.7"/>
<polygon fill="none" stroke="#000000" points="397,-37.7 397,-56.7 453,-56.7 453,-37.7 397,-37.7"/>
<text text-anchor="start" x="400" y="-43.8" font-family="Helvetica,sans-Serif" font-size="11.00" fill="#000000">&lt; 1</text>
<polygon fill="#ffffff" stroke="transparent" points="453,-37.7 453,-56.7 530,-56.7 530,-37.7 453,-37.7"/>
<polygon fill="none" stroke="#000000" points="453,-37.7 453,-56.7 530,-56.7 530,-37.7 453,-37.7"/>
<text text-anchor="start" x="473.2089" y="-43.8" font-family="Helvetica,sans-Serif" font-size="11.00" fill="#000000">1,523 rows</text>
<polygon fill="#ffffff" stroke="transparent" points="530,-37.7 530,-56.7 569,-56.7 569,-37.7 530,-37.7"/>
<polygon fill="none" stroke="#000000" points="530,-37.7 530,-56.7 569,-56.7 569,-37.7 530,-37.7"/>
<text text-anchor="start" x="550.4053" y="-43.8" font-family="Helvetica,sans-Serif" font-size="11.00" fill="#000000">1 &gt;</text>
</a>
</g>
</g>
<!-- ParameterTable -->
<g id="node6" class="node">
<title>ParameterTable</title>
<g id="a_node6"><a xlink:href="../../tables/ParameterTable.html" xlink:title="ParameterTable" target="_top">
<polygon fill="#ffffff" stroke="transparent" points="177,-97.2 177,-202.2 348,-202.2 348,-97.2 177,-97.2"/>
<polygon fill="#f5f5f5" stroke="transparent" points="177.5,-178.7 177.5,-201.7 348.5,-201.7 348.5,-178.7 177.5,-178.7"/>
<polygon fill="none" stroke="#000000" points="177.5,-178.7 177.5,-201.7 348.5,-201.7 348.5,-178.7 177.5,-178.7"/>
<text text-anchor="start" x="182.5" y="-187.3" font-family="Helvetica,sans-Serif" font-weight="bold" font-size="11.00" fill="#000000">ParameterTable</text>
<text text-anchor="start" x="313.5437" y="-186.8" font-family="Helvetica,sans-Serif" font-size="11.00" fill="#000000">[table]</text>
<polygon fill="none" stroke="#000000" points="177.5,-156.7 177.5,-178.7 348.5,-178.7 348.5,-156.7 177.5,-156.7"/>
<image xlink:href="../../images/primaryKeys.png" width="11px" height="12px" preserveAspectRatio="xMinYMin meet" x="182.5" y="-173.7"/>
<text text-anchor="start" x="197.5" y="-163.8" font-family="Helvetica,sans-Serif" font-size="11.00" fill="#000000">cldf_id</text>
<polygon fill="none" stroke="#000000" points="177.5,-134.7 177.5,-156.7 348.5,-156.7 348.5,-134.7 177.5,-134.7"/>
<image xlink:href="../../images/foreignKeys.png" width="11px" height="12px" preserveAspectRatio="xMinYMin meet" x="182.5" y="-151.7"/>
<text text-anchor="start" x="197.5" y="-141.8" font-family="Helvetica,sans-Serif" font-size="11.00" fill="#000000">Question_ID</text>
<polygon fill="none" stroke="#000000" points="177.5,-115.7 177.5,-134.7 348.5,-134.7 348.5,-115.7 177.5,-115.7"/>
<text text-anchor="start" x="180.5" y="-121.8" font-family="Helvetica,sans-Serif" font-size="11.00" fill="#000000">...</text>
<polygon fill="#ffffff" stroke="transparent" points="177.5,-96.7 177.5,-115.7 237.5,-115.7 237.5,-96.7 177.5,-96.7"/>
<polygon fill="none" stroke="#000000" points="177.5,-96.7 177.5,-115.7 237.5,-115.7 237.5,-96.7 177.5,-96.7"/>
<text text-anchor="start" x="180.5" y="-102.8" font-family="Helvetica,sans-Serif" font-size="11.00" fill="#000000">&lt; 1</text>
<polygon fill="#ffffff" stroke="transparent" points="237.5,-96.7 237.5,-115.7 307.5,-115.7 307.5,-96.7 237.5,-96.7"/>
<polygon fill="none" stroke="#000000" points="237.5,-96.7 237.5,-115.7 307.5,-115.7 307.5,-96.7 237.5,-96.7"/>
<text text-anchor="start" x="259.8807" y="-102.8" font-family="Helvetica,sans-Serif" font-size="11.00" fill="#000000">392 rows</text>
<polygon fill="#ffffff" stroke="transparent" points="307.5,-96.7 307.5,-115.7 348.5,-115.7 348.5,-96.7 307.5,-96.7"/>
<polygon fill="none" stroke="#000000" points="307.5,-96.7 307.5,-115.7 348.5,-115.7 348.5,-96.7 307.5,-96.7"/>
<text text-anchor="start" x="329.9053" y="-102.8" font-family="Helvetica,sans-Serif" font-size="11.00" fill="#000000">2 &gt;</text>
</a>
</g>
</g>
<!-- CodeTable&#45;&gt;ParameterTable -->
<g id="edge1" class="edge">
<title>CodeTable:w&#45;&gt;ParameterTable:e</title>
<path fill="none" stroke="#000000" d="M383.1884,-91.287C363.6622,-108.422 384.3955,-167.7 348.5,-167.7"/>
<polygon fill="#000000" stroke="#000000" points="389.4078,-89.2215 398.1347,-90.1165 393.2039,-87.9608 397,-86.7 397,-86.7 397,-86.7 393.2039,-87.9608 395.8653,-83.2835 389.4078,-89.2215 389.4078,-89.2215"/>
<ellipse fill="none" stroke="#000000" cx="386.3709" cy="-90.2301" rx="3.2" ry="3.2"/>
</g>
<!-- contributors.csv -->
<g id="node4" class="node">
<title>contributors.csv</title>
<g id="a_node4"><a xlink:href="../../tables/contributors.csv.html" xlink:title="contributors.csv" target="_top">
<polygon fill="#ffffff" stroke="transparent" points="415,-227.2 415,-310.2 551,-310.2 551,-227.2 415,-227.2"/>
<polygon fill="#f5f5f5" stroke="transparent" points="415,-286.7 415,-309.7 551,-309.7 551,-286.7 415,-286.7"/>
<polygon fill="none" stroke="#000000" points="415,-286.7 415,-309.7 551,-309.7 551,-286.7 415,-286.7"/>
<text text-anchor="start" x="420" y="-295.3" font-family="Helvetica,sans-Serif" font-weight="bold" font-size="11.00" fill="#000000">contributors.csv</text>
<text text-anchor="start" x="516.5219" y="-294.8" font-family="Helvetica,sans-Serif" font-size="11.00" fill="#000000">[table]</text>
<polygon fill="none" stroke="#000000" points="415,-264.7 415,-286.7 551,-286.7 551,-264.7 415,-264.7"/>
<image xlink:href="../../images/primaryKeys.png" width="11px" height="12px" preserveAspectRatio="xMinYMin meet" x="420" y="-281.7"/>
<text text-anchor="start" x="444" y="-271.8" font-family="Helvetica,sans-Serif" font-size="11.00" fill="#000000">cldf_id</text>
<polygon fill="none" stroke="#000000" points="415,-245.7 415,-264.7 551,-264.7 551,-245.7 415,-245.7"/>
<text text-anchor="start" x="418" y="-251.8" font-family="Helvetica,sans-Serif" font-size="11.00" fill="#000000">...</text>
<polygon fill="#ffffff" stroke="transparent" points="415,-226.7 415,-245.7 456,-245.7 456,-226.7 415,-226.7"/>
<polygon fill="none" stroke="#000000" points="415,-226.7 415,-245.7 456,-245.7 456,-226.7 415,-226.7"/>
<text text-anchor="start" x="418" y="-232.8" font-family="Helvetica,sans-Serif" font-size="11.00" fill="#000000"> &#160;</text>
<polygon fill="#ffffff" stroke="transparent" points="456,-226.7 456,-245.7 515,-245.7 515,-226.7 456,-226.7"/>
<polygon fill="none" stroke="#000000" points="456,-226.7 456,-245.7 515,-245.7 515,-226.7 456,-226.7"/>
<text text-anchor="start" x="473.4956" y="-232.8" font-family="Helvetica,sans-Serif" font-size="11.00" fill="#000000">49 rows</text>
<polygon fill="#ffffff" stroke="transparent" points="515,-226.7 515,-245.7 551,-245.7 551,-226.7 515,-226.7"/>
<polygon fill="none" stroke="#000000" points="515,-226.7 515,-245.7 551,-245.7 551,-226.7 515,-226.7"/>
<text text-anchor="start" x="532.4053" y="-232.8" font-family="Helvetica,sans-Serif" font-size="11.00" fill="#000000">1 &gt;</text>
</a>
</g>
</g>
<!-- ValueTable -->
<g id="node5" class="node">
<title>ValueTable</title>
<g id="a_node5"><a xlink:href="../../tables/ValueTable.html" xlink:title="ValueTable" target="_top">
<polygon fill="#ffffff" stroke="transparent" points="652,-38.2 652,-209.2 835,-209.2 835,-38.2 652,-38.2"/>
<polygon fill="#f5f5f5" stroke="transparent" points="652.5,-185.7 652.5,-208.7 835.5,-208.7 835.5,-185.7 652.5,-185.7"/>
<polygon fill="none" stroke="#000000" points="652.5,-185.7 652.5,-208.7 835.5,-208.7 835.5,-185.7 652.5,-185.7"/>
<text text-anchor="start" x="657.5" y="-194.3" font-family="Helvetica,sans-Serif" font-weight="bold" font-size="11.00" fill="#000000">ValueTable</text>
<text text-anchor="start" x="800.5437" y="-193.8" font-family="Helvetica,sans-Serif" font-size="11.00" fill="#000000">[table]</text>
<polygon fill="none" stroke="#000000" points="652.5,-163.7 652.5,-185.7 835.5,-185.7 835.5,-163.7 652.5,-163.7"/>
<image xlink:href="../../images/primaryKeys.png" width="11px" height="12px" preserveAspectRatio="xMinYMin meet" x="657.5" y="-180.7"/>
<text text-anchor="start" x="672.5" y="-170.8" font-family="Helvetica,sans-Serif" font-size="11.00" fill="#000000">cldf_id</text>
<polygon fill="none" stroke="#000000" points="652.5,-141.7 652.5,-163.7 835.5,-163.7 835.5,-141.7 652.5,-141.7"/>
<image xlink:href="../../images/foreignKeys.png" width="11px" height="12px" preserveAspectRatio="xMinYMin meet" x="657.5" y="-158.7"/>
<text text-anchor="start" x="672.5" y="-148.8" font-family="Helvetica,sans-Serif" font-size="11.00" fill="#000000">cldf_languageReference</text>
<polygon fill="none" stroke="#000000" points="652.5,-119.7 652.5,-141.7 835.5,-141.7 835.5,-119.7 652.5,-119.7"/>
<image xlink:href="../../images/foreignKeys.png" width="11px" height="12px" preserveAspectRatio="xMinYMin meet" x="657.5" y="-136.7"/>
<text text-anchor="start" x="672.5" y="-126.8" font-family="Helvetica,sans-Serif" font-size="11.00" fill="#000000">cldf_parameterReference</text>
<polygon fill="none" stroke="#000000" points="652.5,-97.7 652.5,-119.7 835.5,-119.7 835.5,-97.7 652.5,-97.7"/>
<image xlink:href="../../images/foreignKeys.png" width="11px" height="12px" preserveAspectRatio="xMinYMin meet" x="657.5" y="-114.7"/>
<text text-anchor="start" x="672.5" y="-104.8" font-family="Helvetica,sans-Serif" font-size="11.00" fill="#000000">cldf_codeReference</text>
<polygon fill="none" stroke="#000000" points="652.5,-75.7 652.5,-97.7 835.5,-97.7 835.5,-75.7 652.5,-75.7"/>
<image xlink:href="../../images/foreignKeys.png" width="11px" height="12px" preserveAspectRatio="xMinYMin meet" x="657.5" y="-92.7"/>
<text text-anchor="start" x="672.5" y="-82.8" font-family="Helvetica,sans-Serif" font-size="11.00" fill="#000000">cldf_contributionReference</text>
<polygon fill="none" stroke="#000000" points="652.5,-56.7 652.5,-75.7 835.5,-75.7 835.5,-56.7 652.5,-56.7"/>
<text text-anchor="start" x="655.5" y="-62.8" font-family="Helvetica,sans-Serif" font-size="11.00" fill="#000000">...</text>
<polygon fill="#ffffff" stroke="transparent" points="652.5,-37.7 652.5,-56.7 711.5,-56.7 711.5,-37.7 652.5,-37.7"/>
<polygon fill="none" stroke="#000000" points="652.5,-37.7 652.5,-56.7 711.5,-56.7 711.5,-37.7 652.5,-37.7"/>
<text text-anchor="start" x="655.5" y="-43.8" font-family="Helvetica,sans-Serif" font-size="11.00" fill="#000000">&lt; 4</text>
<polygon fill="#ffffff" stroke="transparent" points="711.5,-37.7 711.5,-56.7 795.5,-56.7 795.5,-37.7 711.5,-37.7"/>
<polygon fill="none" stroke="#000000" points="711.5,-37.7 711.5,-56.7 795.5,-56.7 795.5,-37.7 711.5,-37.7"/>
<text text-anchor="start" x="732.594" y="-43.8" font-family="Helvetica,sans-Serif" font-size="11.00" fill="#000000">13,097 rows</text>
<polygon fill="#ffffff" stroke="transparent" points="795.5,-37.7 795.5,-56.7 835.5,-56.7 835.5,-37.7 795.5,-37.7"/>
<polygon fill="none" stroke="#000000" points="795.5,-37.7 795.5,-56.7 835.5,-56.7 835.5,-37.7 795.5,-37.7"/>
<text text-anchor="start" x="816.9053" y="-43.8" font-family="Helvetica,sans-Serif" font-size="11.00" fill="#000000">1 &gt;</text>
</a>
</g>
</g>
<!-- ValueTable&#45;&gt;CodeTable -->
<g id="edge12" class="edge">
<title>ValueTable:w&#45;&gt;CodeTable:e</title>
<path fill="none" stroke="#000000" d="M637.985,-108.7C612.1256,-108.7 600.7474,-108.7 569,-108.7"/>
<polygon fill="#000000" stroke="#000000" points="644.5,-108.7001 652.5,-112.3 648.5,-108.7 652.5,-108.7 652.5,-108.7 652.5,-108.7 648.5,-108.7 652.5,-105.1 644.5,-108.7001 644.5,-108.7001"/>
<ellipse fill="none" stroke="#000000" cx="641.3" cy="-108.7001" rx="3.2" ry="3.2"/>
</g>
<!-- ValueTable&#45;&gt;ParameterTable -->
<g id="edge15" class="edge">
<title>ValueTable:w&#45;&gt;ParameterTable:e</title>
<path fill="none" stroke="#000000" d="M637.9737,-131.8243C614.8792,-135.6842 606.1271,-148.4464 577,-153.7 476.8697,-171.7602 450.246,-167.7 348.5,-167.7"/>
<polygon fill="#000000" stroke="#000000" points="644.5239,-131.3174 652.7778,-134.2893 648.5119,-131.0087 652.5,-130.7 652.5,-130.7 652.5,-130.7 648.5119,-131.0087 652.2222,-127.1107 644.5239,-131.3174 644.5239,-131.3174"/>
<ellipse fill="none" stroke="#000000" cx="641.3334" cy="-131.5643" rx="3.2" ry="3.2"/>
</g>
<!-- LanguageTable -->
<g id="node11" class="node">
<title>LanguageTable</title>
<g id="a_node11"><a xlink:href="../../tables/LanguageTable.html" xlink:title="LanguageTable" target="_top">
<polygon fill="#ffffff" stroke="transparent" points="197.5,-364.2 197.5,-447.2 327.5,-447.2 327.5,-364.2 197.5,-364.2"/>
<polygon fill="#f5f5f5" stroke="transparent" points="197.5,-423.7 197.5,-446.7 327.5,-446.7 327.5,-423.7 197.5,-423.7"/>
<polygon fill="none" stroke="#000000" points="197.5,-423.7 197.5,-446.7 327.5,-446.7 327.5,-423.7 197.5,-423.7"/>
<text text-anchor="start" x="202.5" y="-432.3" font-family="Helvetica,sans-Serif" font-weight="bold" font-size="11.00" fill="#000000">LanguageTable</text>
<text text-anchor="start" x="293.0219" y="-431.8" font-family="Helvetica,sans-Serif" font-size="11.00" fill="#000000">[table]</text>
<polygon fill="none" stroke="#000000" points="197.5,-401.7 197.5,-423.7 327.5,-423.7 327.5,-401.7 197.5,-401.7"/>
<image xlink:href="../../images/primaryKeys.png" width="11px" height="12px" preserveAspectRatio="xMinYMin meet" x="202.5" y="-418.7"/>
<text text-anchor="start" x="218.5" y="-408.8" font-family="Helvetica,sans-Serif" font-size="11.00" fill="#000000">cldf_id</text>
<polygon fill="none" stroke="#000000" points="197.5,-382.7 197.5,-401.7 327.5,-401.7 327.5,-382.7 197.5,-382.7"/>
<text text-anchor="start" x="200.5" y="-388.8" font-family="Helvetica,sans-Serif" font-size="11.00" fill="#000000">...</text>
<polygon fill="#ffffff" stroke="transparent" points="197.5,-363.7 197.5,-382.7 235.5,-382.7 235.5,-363.7 197.5,-363.7"/>
<polygon fill="none" stroke="#000000" points="197.5,-363.7 197.5,-382.7 235.5,-382.7 235.5,-363.7 197.5,-363.7"/>
<text text-anchor="start" x="200.5" y="-369.8" font-family="Helvetica,sans-Serif" font-size="11.00" fill="#000000"> &#160;</text>
<polygon fill="#ffffff" stroke="transparent" points="235.5,-363.7 235.5,-382.7 292.5,-382.7 292.5,-363.7 235.5,-363.7"/>
<polygon fill="none" stroke="#000000" points="235.5,-363.7 235.5,-382.7 292.5,-382.7 292.5,-363.7 235.5,-363.7"/>
<text text-anchor="start" x="250.9956" y="-369.8" font-family="Helvetica,sans-Serif" font-size="11.00" fill="#000000">68 rows</text>
<polygon fill="#ffffff" stroke="transparent" points="292.5,-363.7 292.5,-382.7 327.5,-382.7 327.5,-363.7 292.5,-363.7"/>
<polygon fill="none" stroke="#000000" points="292.5,-363.7 292.5,-382.7 327.5,-382.7 327.5,-363.7 292.5,-363.7"/>
<text text-anchor="start" x="308.9053" y="-369.8" font-family="Helvetica,sans-Serif" font-size="11.00" fill="#000000">3 &gt;</text>
</a>
</g>
</g>
<!-- ValueTable&#45;&gt;LanguageTable -->
<g id="edge14" class="edge">
<title>ValueTable:w&#45;&gt;LanguageTable:e</title>
<path fill="none" stroke="#000000" d="M638.0759,-153.4368C614.9764,-155.9984 605.3533,-164.7393 577,-171.7 493.5618,-192.1841 449.7951,-155.9918 389,-216.7 324.3959,-281.2117 418.7987,-412.7 327.5,-412.7"/>
<polygon fill="#000000" stroke="#000000" points="644.5104,-153.1082 652.6837,-156.2953 648.5052,-152.9041 652.5,-152.7 652.5,-152.7 652.5,-152.7 648.5052,-152.9041 652.3163,-149.1047 644.5104,-153.1082 644.5104,-153.1082"/>
<ellipse fill="none" stroke="#000000" cx="641.3146" cy="-153.2715" rx="3.2" ry="3.2"/>
</g>
<!-- ValueTable&#45;&gt;ContributionTable -->
<g id="edge13" class="edge">
<title>ValueTable:w&#45;&gt;ContributionTable:e</title>
<path fill="none" stroke="#000000" d="M638.0135,-88.4021C596.298,-99.6882 623.8999,-164.9567 610,-219.7 597.4185,-269.2508 618.1232,-445.7 567,-445.7"/>
<polygon fill="#000000" stroke="#000000" points="644.5547,-87.6336 652.9201,-90.2754 648.5273,-87.1668 652.5,-86.7 652.5,-86.7 652.5,-86.7 648.5273,-87.1668 652.0799,-83.1246 644.5547,-87.6336 644.5547,-87.6336"/>
<ellipse fill="none" stroke="#000000" cx="641.3765" cy="-88.0071" rx="3.2" ry="3.2"/>
</g>
<!-- questions.csv -->
<g id="node9" class="node">
<title>questions.csv</title>
<g id="a_node9"><a xlink:href="../../tables/questions.csv.html" xlink:title="questions.csv" target="_top">
<polygon fill="#ffffff" stroke="transparent" points="8,-272.2 8,-355.2 128,-355.2 128,-272.2 8,-272.2"/>
<polygon fill="#f5f5f5" stroke="transparent" points="8,-331.7 8,-354.7 128,-354.7 128,-331.7 8,-331.7"/>
<polygon fill="none" stroke="#000000" points="8,-331.7 8,-354.7 128,-354.7 128,-331.7 8,-331.7"/>
<text text-anchor="start" x="13" y="-340.3" font-family="Helvetica,sans-Serif" font-weight="bold" font-size="11.00" fill="#000000">questions.csv</text>
<text text-anchor="start" x="93.5219" y="-339.8" font-family="Helvetica,sans-Serif" font-size="11.00" fill="#000000">[table]</text>
<polygon fill="none" stroke="#000000" points="8,-309.7 8,-331.7 128,-331.7 128,-309.7 8,-309.7"/>
<image xlink:href="../../images/primaryKeys.png" width="11px" height="12px" preserveAspectRatio="xMinYMin meet" x="13" y="-326.7"/>
<text text-anchor="start" x="37" y="-316.8" font-family="Helvetica,sans-Serif" font-size="11.00" fill="#000000">cldf_id</text>
<polygon fill="none" stroke="#000000" points="8,-290.7 8,-309.7 128,-309.7 128,-290.7 8,-290.7"/>
<text text-anchor="start" x="11" y="-296.8" font-family="Helvetica,sans-Serif" font-size="11.00" fill="#000000">...</text>
<polygon fill="#ffffff" stroke="transparent" points="8,-271.7 8,-290.7 38,-290.7 38,-271.7 8,-271.7"/>
<polygon fill="none" stroke="#000000" points="8,-271.7 8,-290.7 38,-290.7 38,-271.7 8,-271.7"/>
<text text-anchor="start" x="11" y="-277.8" font-family="Helvetica,sans-Serif" font-size="11.00" fill="#000000"> &#160;</text>
<polygon fill="#ffffff" stroke="transparent" points="38,-271.7 38,-290.7 97,-290.7 97,-271.7 38,-271.7"/>
<polygon fill="none" stroke="#000000" points="38,-271.7 38,-290.7 97,-290.7 97,-271.7 38,-271.7"/>
<text text-anchor="start" x="49.3807" y="-277.8" font-family="Helvetica,sans-Serif" font-size="11.00" fill="#000000">265 rows</text>
<polygon fill="#ffffff" stroke="transparent" points="97,-271.7 97,-290.7 128,-290.7 128,-271.7 97,-271.7"/>
<polygon fill="none" stroke="#000000" points="97,-271.7 97,-290.7 128,-290.7 128,-271.7 97,-271.7"/>
<text text-anchor="start" x="109.4053" y="-277.8" font-family="Helvetica,sans-Serif" font-size="11.00" fill="#000000">2 &gt;</text>
</a>
</g>
</g>
<!-- ParameterTable&#45;&gt;questions.csv -->
<g id="edge9" class="edge">
<title>ParameterTable:w&#45;&gt;questions.csv:e</title>
<path fill="none" stroke="#000000" d="M163.1782,-148.1739C111.4889,-169.4442 203.146,-320.7 128,-320.7"/>
<polygon fill="#000000" stroke="#000000" points="169.6167,-147.0617 178.1128,-149.2475 173.5584,-146.3809 177.5,-145.7 177.5,-145.7 177.5,-145.7 173.5584,-146.3809 176.8872,-142.1525 169.6167,-147.0617 169.6167,-147.0617"/>
<ellipse fill="none" stroke="#000000" cx="166.4634" cy="-147.6064" rx="3.2" ry="3.2"/>
</g>
<!-- ValueTable_SourceTable -->
<g id="node8" class="node">
<title>ValueTable_SourceTable</title>
<g id="a_node8"><a xlink:href="../../tables/ValueTable_SourceTable.html" xlink:title="ValueTable_SourceTable" target="_top">
<polygon fill="#ffffff" stroke="transparent" points="939.5,-185.2 939.5,-290.2 1122.5,-290.2 1122.5,-185.2 939.5,-185.2"/>
<polygon fill="#f5f5f5" stroke="transparent" points="940,-266.7 940,-289.7 1123,-289.7 1123,-266.7 940,-266.7"/>
<polygon fill="none" stroke="#000000" points="940,-266.7 940,-289.7 1123,-289.7 1123,-266.7 940,-266.7"/>
<text text-anchor="start" x="945" y="-275.3" font-family="Helvetica,sans-Serif" font-weight="bold" font-size="11.00" fill="#000000">ValueTable_SourceTable</text>
<text text-anchor="start" x="1088.5219" y="-274.8" font-family="Helvetica,sans-Serif" font-size="11.00" fill="#000000">[table]</text>
<polygon fill="none" stroke="#000000" points="940,-244.7 940,-266.7 1123,-266.7 1123,-244.7 940,-244.7"/>
<image xlink:href="../../images/foreignKeys.png" width="11px" height="12px" preserveAspectRatio="xMinYMin meet" x="945" y="-261.7"/>
<text text-anchor="start" x="969" y="-251.8" font-family="Helvetica,sans-Serif" font-size="11.00" fill="#000000">ValueTable_cldf_id</text>
<polygon fill="none" stroke="#000000" points="940,-222.7 940,-244.7 1123,-244.7 1123,-222.7 940,-222.7"/>
<image xlink:href="../../images/foreignKeys.png" width="11px" height="12px" preserveAspectRatio="xMinYMin meet" x="945" y="-239.7"/>
<text text-anchor="start" x="969" y="-229.8" font-family="Helvetica,sans-Serif" font-size="11.00" fill="#000000">SourceTable_id</text>
<polygon fill="none" stroke="#000000" points="940,-203.7 940,-222.7 1123,-222.7 1123,-203.7 940,-203.7"/>
<text text-anchor="start" x="943" y="-209.8" font-family="Helvetica,sans-Serif" font-size="11.00" fill="#000000">...</text>
<polygon fill="#ffffff" stroke="transparent" points="940,-184.7 940,-203.7 1017,-203.7 1017,-184.7 940,-184.7"/>
<polygon fill="none" stroke="#000000" points="940,-184.7 940,-203.7 1017,-203.7 1017,-184.7 940,-184.7"/>
<text text-anchor="start" x="943" y="-190.8" font-family="Helvetica,sans-Serif" font-size="11.00" fill="#000000">&lt; 2</text>
<polygon fill="#ffffff" stroke="transparent" points="1017,-184.7 1017,-203.7 1083,-203.7 1083,-184.7 1017,-184.7"/>
<polygon fill="none" stroke="#000000" points="1017,-184.7 1017,-203.7 1083,-203.7 1083,-184.7 1017,-184.7"/>
<text text-anchor="start" x="1047.6105" y="-190.8" font-family="Helvetica,sans-Serif" font-size="11.00" fill="#000000">0 rows</text>
<polygon fill="#ffffff" stroke="transparent" points="1083,-184.7 1083,-203.7 1123,-203.7 1123,-184.7 1083,-184.7"/>
<polygon fill="none" stroke="#000000" points="1083,-184.7 1083,-203.7 1123,-203.7 1123,-184.7 1083,-184.7"/>
<text text-anchor="start" x="1113.8862" y="-190.8" font-family="Helvetica,sans-Serif" font-size="11.00" fill="#000000"> &#160;</text>
</a>
</g>
</g>
<!-- ValueTable_SourceTable&#45;&gt;ValueTable -->
<g id="edge17" class="edge">
<title>ValueTable_SourceTable:w&#45;&gt;ValueTable:e</title>
<path fill="none" stroke="#000000" d="M925.521,-253.7776C883.0236,-241.5115 888.8687,-174.7 835.5,-174.7"/>
<polygon fill="#000000" stroke="#000000" points="932.0696,-254.647 939.5262,-259.2687 936.0348,-255.1735 940,-255.7 940,-255.7 940,-255.7 936.0348,-255.1735 940.4738,-252.1313 932.0696,-254.647 932.0696,-254.647"/>
<ellipse fill="none" stroke="#000000" cx="928.8974" cy="-254.2259" rx="3.2" ry="3.2"/>
</g>
<!-- ValueTable_SourceTable&#45;&gt;SourceTable -->
<g id="edge16" class="edge">
<title>ValueTable_SourceTable:w&#45;&gt;SourceTable:e</title>
<path fill="none" stroke="#000000" d="M925.6592,-235.5836C888.4024,-246.9148 910.8358,-306.8285 877,-345.7 848.5775,-378.3525 842.79,-404.7 799.5,-404.7"/>
<polygon fill="#000000" stroke="#000000" points="932.0681,-234.7419 940.4688,-237.2693 936.0341,-234.2209 940,-233.7 940,-233.7 940,-233.7 936.0341,-234.2209 939.5312,-230.1307 932.0681,-234.7419 932.0681,-234.7419"/>
<ellipse fill="none" stroke="#000000" cx="928.8954" cy="-235.1586" rx="3.2" ry="3.2"/>
</g>
<!-- ContributionTable_contributors.csv -->
<g id="node10" class="node">
<title>ContributionTable_contributors.csv</title>
<g id="a_node10"><a xlink:href="../../tables/ContributionTable_contributors.csv.html" xlink:title="ContributionTable_contributors.csv" target="_top">
<polygon fill="#ffffff" stroke="transparent" points="618,-230.2 618,-335.2 869,-335.2 869,-230.2 618,-230.2"/>
<polygon fill="#f5f5f5" stroke="transparent" points="618.5,-311.7 618.5,-334.7 869.5,-334.7 869.5,-311.7 618.5,-311.7"/>
<polygon fill="none" stroke="#000000" points="618.5,-311.7 618.5,-334.7 869.5,-334.7 869.5,-311.7 618.5,-311.7"/>
<text text-anchor="start" x="623.5" y="-320.3" font-family="Helvetica,sans-Serif" font-weight="bold" font-size="11.00" fill="#000000">ContributionTable_contributors.csv</text>
<text text-anchor="start" x="835.0219" y="-319.8" font-family="Helvetica,sans-Serif" font-size="11.00" fill="#000000">[table]</text>
<polygon fill="none" stroke="#000000" points="618.5,-289.7 618.5,-311.7 869.5,-311.7 869.5,-289.7 618.5,-289.7"/>
<image xlink:href="../../images/foreignKeys.png" width="11px" height="12px" preserveAspectRatio="xMinYMin meet" x="623.5" y="-306.7"/>
<text text-anchor="start" x="647.5" y="-296.8" font-family="Helvetica,sans-Serif" font-size="11.00" fill="#000000">ContributionTable_cldf_id</text>
<polygon fill="none" stroke="#000000" points="618.5,-267.7 618.5,-289.7 869.5,-289.7 869.5,-267.7 618.5,-267.7"/>
<image xlink:href="../../images/foreignKeys.png" width="11px" height="12px" preserveAspectRatio="xMinYMin meet" x="623.5" y="-284.7"/>
<text text-anchor="start" x="647.5" y="-274.8" font-family="Helvetica,sans-Serif" font-size="11.00" fill="#000000">contributors.csv_cldf_id</text>
<polygon fill="none" stroke="#000000" points="618.5,-248.7 618.5,-267.7 869.5,-267.7 869.5,-248.7 618.5,-248.7"/>
<text text-anchor="start" x="621.5" y="-254.8" font-family="Helvetica,sans-Serif" font-size="11.00" fill="#000000">...</text>
<polygon fill="#ffffff" stroke="transparent" points="618.5,-229.7 618.5,-248.7 723.5,-248.7 723.5,-229.7 618.5,-229.7"/>
<polygon fill="none" stroke="#000000" points="618.5,-229.7 618.5,-248.7 723.5,-248.7 723.5,-229.7 618.5,-229.7"/>
<text text-anchor="start" x="621.5" y="-235.8" font-family="Helvetica,sans-Serif" font-size="11.00" fill="#000000">&lt; 2</text>
<polygon fill="#ffffff" stroke="transparent" points="723.5,-229.7 723.5,-248.7 815.5,-248.7 815.5,-229.7 723.5,-229.7"/>
<polygon fill="none" stroke="#000000" points="723.5,-229.7 723.5,-248.7 815.5,-248.7 815.5,-229.7 723.5,-229.7"/>
<text text-anchor="start" x="767.8807" y="-235.8" font-family="Helvetica,sans-Serif" font-size="11.00" fill="#000000">224 rows</text>
<polygon fill="#ffffff" stroke="transparent" points="815.5,-229.7 815.5,-248.7 869.5,-248.7 869.5,-229.7 815.5,-229.7"/>
<polygon fill="none" stroke="#000000" points="815.5,-229.7 815.5,-248.7 869.5,-248.7 869.5,-229.7 815.5,-229.7"/>
<text text-anchor="start" x="860.3862" y="-235.8" font-family="Helvetica,sans-Serif" font-size="11.00" fill="#000000"> &#160;</text>
</a>
</g>
</g>
<!-- ContributionTable_contributors.csv&#45;&gt;contributors.csv -->
<g id="edge6" class="edge">
<title>ContributionTable_contributors.csv:w&#45;&gt;contributors.csv:e</title>
<path fill="none" stroke="#000000" d="M603.9649,-278.4338C584.9768,-277.6996 575.5164,-275.7 551,-275.7"/>
<polygon fill="#000000" stroke="#000000" points="610.5013,-278.5534 618.434,-282.2994 614.5007,-278.6267 618.5,-278.7 618.5,-278.7 618.5,-278.7 614.5007,-278.6267 618.566,-275.1006 610.5013,-278.5534 610.5013,-278.5534"/>
<ellipse fill="none" stroke="#000000" cx="607.3019" cy="-278.4948" rx="3.2" ry="3.2"/>
</g>
<!-- ContributionTable_contributors.csv&#45;&gt;ContributionTable -->
<g id="edge5" class="edge">
<title>ContributionTable_contributors.csv:w&#45;&gt;ContributionTable:e</title>
<path fill="none" stroke="#000000" d="M604.3388,-303.5964C563.3515,-324.0327 629.6449,-445.7 567,-445.7"/>
<polygon fill="#000000" stroke="#000000" points="610.6623,-302.3031 619.2214,-304.227 614.5811,-301.5016 618.5,-300.7 618.5,-300.7 618.5,-300.7 614.5811,-301.5016 617.7786,-297.173 610.6623,-302.3031 610.6623,-302.3031"/>
<ellipse fill="none" stroke="#000000" cx="607.5272" cy="-302.9444" rx="3.2" ry="3.2"/>
</g>
<!-- ContributionTable&#45;&gt;MediaTable -->
<g id="edge3" class="edge">
<title>ContributionTable:w&#45;&gt;MediaTable:e</title>
<path fill="none" stroke="#000000" d="M384.6645,-376.6492C356.9351,-363.0594 365.2414,-308.7 325.5,-308.7"/>
<polygon fill="#000000" stroke="#000000" points="391.1752,-378.0347 398.2506,-383.2211 395.0876,-378.8674 399,-379.7 399,-379.7 399,-379.7 395.0876,-378.8674 399.7494,-376.1789 391.1752,-378.0347 391.1752,-378.0347"/>
<ellipse fill="none" stroke="#000000" cx="388.0453" cy="-377.3686" rx="3.2" ry="3.2"/>
</g>
<!-- ContributionTable&#45;&gt;LanguageTable -->
<g id="edge2" class="edge">
<title>ContributionTable:w&#45;&gt;LanguageTable:e</title>
<path fill="none" stroke="#000000" d="M384.38,-422.8368C363.6373,-420.2437 354.1256,-412.7 327.5,-412.7"/>
<polygon fill="#000000" stroke="#000000" points="391.0139,-423.2285 398.7878,-427.2937 395.007,-423.4642 399,-423.7 399,-423.7 399,-423.7 395.007,-423.4642 399.2122,-420.1063 391.0139,-423.2285 391.0139,-423.2285"/>
<ellipse fill="none" stroke="#000000" cx="387.8195" cy="-423.0398" rx="3.2" ry="3.2"/>
</g>
<!-- ContributionTable&#45;&gt;LanguageTable -->
<g id="edge4" class="edge">
<title>ContributionTable:w&#45;&gt;LanguageTable:e</title>
<path fill="none" stroke="#000000" d="M384.38,-402.5632C363.6373,-405.1563 354.1256,-412.7 327.5,-412.7"/>
<polygon fill="#000000" stroke="#000000" points="391.0139,-402.1715 399.2122,-405.2937 395.007,-401.9358 399,-401.7 399,-401.7 399,-401.7 395.007,-401.9358 398.7878,-398.1063 391.0139,-402.1715 391.0139,-402.1715"/>
<ellipse fill="none" stroke="#000000" cx="387.8195" cy="-402.3602" rx="3.2" ry="3.2"/>
</g>
<!-- questions.csv_ContributionTable -->
<g id="node13" class="node">
<title>questions.csv_ContributionTable</title>
<g id="a_node13"><a xlink:href="../../tables/questions.csv_ContributionTable.html" xlink:title="questions.csv_ContributionTable" target="_top">
<polygon fill="#ffffff" stroke="transparent" points="626.5,-488.2 626.5,-593.2 860.5,-593.2 860.5,-488.2 626.5,-488.2"/>
<polygon fill="#f5f5f5" stroke="transparent" points="626.5,-569.7 626.5,-592.7 860.5,-592.7 860.5,-569.7 626.5,-569.7"/>
<polygon fill="none" stroke="#000000" points="626.5,-569.7 626.5,-592.7 860.5,-592.7 860.5,-569.7 626.5,-569.7"/>
<text text-anchor="start" x="631.5" y="-578.3" font-family="Helvetica,sans-Serif" font-weight="bold" font-size="11.00" fill="#000000">questions.csv_ContributionTable</text>
<text text-anchor="start" x="826.0219" y="-577.8" font-family="Helvetica,sans-Serif" font-size="11.00" fill="#000000">[table]</text>
<polygon fill="none" stroke="#000000" points="626.5,-547.7 626.5,-569.7 860.5,-569.7 860.5,-547.7 626.5,-547.7"/>
<image xlink:href="../../images/foreignKeys.png" width="11px" height="12px" preserveAspectRatio="xMinYMin meet" x="631.5" y="-564.7"/>
<text text-anchor="start" x="655.5" y="-554.8" font-family="Helvetica,sans-Serif" font-size="11.00" fill="#000000">questions.csv_cldf_id</text>
<polygon fill="none" stroke="#000000" points="626.5,-525.7 626.5,-547.7 860.5,-547.7 860.5,-525.7 626.5,-525.7"/>
<image xlink:href="../../images/foreignKeys.png" width="11px" height="12px" preserveAspectRatio="xMinYMin meet" x="631.5" y="-542.7"/>
<text text-anchor="start" x="655.5" y="-532.8" font-family="Helvetica,sans-Serif" font-size="11.00" fill="#000000">ContributionTable_cldf_id</text>
<polygon fill="none" stroke="#000000" points="626.5,-506.7 626.5,-525.7 860.5,-525.7 860.5,-506.7 626.5,-506.7"/>
<text text-anchor="start" x="629.5" y="-512.8" font-family="Helvetica,sans-Serif" font-size="11.00" fill="#000000">...</text>
<polygon fill="#ffffff" stroke="transparent" points="626.5,-487.7 626.5,-506.7 722.5,-506.7 722.5,-487.7 626.5,-487.7"/>
<polygon fill="none" stroke="#000000" points="626.5,-487.7 626.5,-506.7 722.5,-506.7 722.5,-487.7 626.5,-487.7"/>
<text text-anchor="start" x="629.5" y="-493.8" font-family="Helvetica,sans-Serif" font-size="11.00" fill="#000000">&lt; 2</text>
<polygon fill="#ffffff" stroke="transparent" points="722.5,-487.7 722.5,-506.7 810.5,-506.7 810.5,-487.7 722.5,-487.7"/>
<polygon fill="none" stroke="#000000" points="722.5,-487.7 722.5,-506.7 810.5,-506.7 810.5,-487.7 722.5,-487.7"/>
<text text-anchor="start" x="762.8807" y="-493.8" font-family="Helvetica,sans-Serif" font-size="11.00" fill="#000000">515 rows</text>
<polygon fill="#ffffff" stroke="transparent" points="810.5,-487.7 810.5,-506.7 860.5,-506.7 860.5,-487.7 810.5,-487.7"/>
<polygon fill="none" stroke="#000000" points="810.5,-487.7 810.5,-506.7 860.5,-506.7 860.5,-487.7 810.5,-487.7"/>
<text text-anchor="start" x="851.3862" y="-493.8" font-family="Helvetica,sans-Serif" font-size="11.00" fill="#000000"> &#160;</text>
</a>
</g>
</g>
<!-- questions.csv_ContributionTable&#45;&gt;questions.csv -->
<g id="edge11" class="edge">
<title>questions.csv_ContributionTable:w&#45;&gt;questions.csv:e</title>
<path fill="none" stroke="#000000" d="M612.0405,-558.7642C413.7063,-560.509 317.9759,-596.1087 169,-457.7 122.4373,-414.4401 191.5571,-320.7 128,-320.7"/>
<polygon fill="#000000" stroke="#000000" points="618.5001,-558.7356 626.516,-562.3 622.5,-558.7178 626.5,-558.7 626.5,-558.7 626.5,-558.7 622.5,-558.7178 626.484,-555.1 618.5001,-558.7356 618.5001,-558.7356"/>
<ellipse fill="none" stroke="#000000" cx="615.3001" cy="-558.7498" rx="3.2" ry="3.2"/>
</g>
<!-- questions.csv_ContributionTable&#45;&gt;ContributionTable -->
<g id="edge10" class="edge">
<title>questions.csv_ContributionTable:w&#45;&gt;ContributionTable:e</title>
<path fill="none" stroke="#000000" d="M612.4016,-533.02C585.9203,-515.9953 609.4709,-445.7 567,-445.7"/>
<polygon fill="#000000" stroke="#000000" points="618.7594,-534.6795 625.5908,-540.1833 622.6297,-535.6897 626.5,-536.7 626.5,-536.7 626.5,-536.7 622.6297,-535.6897 627.4092,-533.2167 618.7594,-534.6795 618.7594,-534.6795"/>
<ellipse fill="none" stroke="#000000" cx="615.6631" cy="-533.8712" rx="3.2" ry="3.2"/>
</g>
</g>
</svg>

