<?xml version="1.0" encoding="UTF-8" standalone="no"?>
<!DOCTYPE svg PUBLIC "-//W3C//DTD SVG 1.1//EN"
 "http://www.w3.org/Graphics/SVG/1.1/DTD/svg11.dtd">
<!-- Generated by graphviz version 2.40.1 (20161225.0304)
 -->
<!-- Title: compactRelationshipsDiagram Pages: 1 -->
<svg width="1155pt" height="605pt"
 viewBox="0.00 0.00 1155.00 605.20" xmlns="http://www.w3.org/2000/svg" xmlns:xlink="http://www.w3.org/1999/xlink">
<g id="graph0" class="graph" transform="scale(1 1) rotate(0) translate(4 601.2)">
<title>compactRelationshipsDiagram</title>
<polygon fill="#ffffff" stroke="transparent" points="-4,4 -4,-601.2 1151,-601.2 1151,4 -4,4"/>
<text text-anchor="middle" x="72.4936" y="-7.3" font-family="Helvetica,sans-Serif" font-size="11.00" fill="#000000">Generated by SchemaSpy</text>
<!-- MediaTable -->
<g id="node1" class="node">
<title>MediaTable</title>
<g id="a_node1"><a xlink:href="../../tables/MediaTable.html" xlink:title="MediaTable" target="_top">
<polygon fill="#ffffff" stroke="transparent" points="197.5,-260.2 197.5,-343.2 322.5,-343.2 322.5,-260.2 197.5,-260.2"/>
<polygon fill="#f5f5f5" stroke="transparent" points="198,-319.7 198,-342.7 323,-342.7 323,-319.7 198,-319.7"/>
<polygon fill="none" stroke="#000000" points="198,-319.7 198,-342.7 323,-342.7 323,-319.7 198,-319.7"/>
<text text-anchor="start" x="203" y="-328.3" font-family="Helvetica,sans-Serif" font-weight="bold" font-size="11.00" fill="#000000">MediaTable</text>
<text text-anchor="start" x="288.0437" y="-327.8" font-family="Helvetica,sans-Serif" font-size="11.00" fill="#000000">[table]</text>
<polygon fill="none" stroke="#000000" points="198,-297.7 198,-319.7 323,-319.7 323,-297.7 198,-297.7"/>
<image xlink:href="../../images/primaryKeys.png" width="11px" height="12px" preserveAspectRatio="xMinYMin meet" x="203" y="-314.7"/>
<text text-anchor="start" x="218" y="-304.8" font-family="Helvetica,sans-Serif" font-size="11.00" fill="#000000">cldf_id</text>
<polygon fill="none" stroke="#000000" points="198,-278.7 198,-297.7 323,-297.7 323,-278.7 198,-278.7"/>
<text text-anchor="start" x="201" y="-284.8" font-family="Helvetica,sans-Serif" font-size="11.00" fill="#000000">...</text>
<polygon fill="#ffffff" stroke="transparent" points="198,-259.7 198,-278.7 234,-278.7 234,-259.7 198,-259.7"/>
<polygon fill="none" stroke="#000000" points="198,-259.7 198,-278.7 234,-278.7 234,-259.7 198,-259.7"/>
<text text-anchor="start" x="201" y="-265.8" font-family="Helvetica,sans-Serif" font-size="11.00" fill="#000000"> &#160;</text>
<polygon fill="#ffffff" stroke="transparent" points="234,-259.7 234,-278.7 290,-278.7 290,-259.7 234,-259.7"/>
<polygon fill="none" stroke="#000000" points="234,-259.7 234,-278.7 290,-278.7 290,-259.7 234,-259.7"/>
<text text-anchor="start" x="248.4956" y="-265.8" font-family="Helvetica,sans-Serif" font-size="11.00" fill="#000000">90 rows</text>
<polygon fill="#ffffff" stroke="transparent" points="290,-259.7 290,-278.7 323,-278.7 323,-259.7 290,-259.7"/>
<polygon fill="none" stroke="#000000" points="290,-259.7 290,-278.7 323,-278.7 323,-259.7 290,-259.7"/>
<text text-anchor="start" x="304.4053" y="-265.8" font-family="Helvetica,sans-Serif" font-size="11.00" fill="#000000">1 &gt;</text>
</a>
</g>
</g>
<!-- ContributionTable_SourceTable -->
<g id="node2" class="node">
<title>ContributionTable_SourceTable</title>
<g id="a_node2"><a xlink:href="../../tables/ContributionTable_SourceTable.html" xlink:title="ContributionTable_SourceTable" target="_top">
<polygon fill="#ffffff" stroke="transparent" points="913,-374.2 913,-479.2 1139,-479.2 1139,-374.2 913,-374.2"/>
<polygon fill="#f5f5f5" stroke="transparent" points="913,-455.7 913,-478.7 1139,-478.7 1139,-455.7 913,-455.7"/>
<polygon fill="none" stroke="#000000" points="913,-455.7 913,-478.7 1139,-478.7 1139,-455.7 913,-455.7"/>
<text text-anchor="start" x="918" y="-464.3" font-family="Helvetica,sans-Serif" font-weight="bold" font-size="11.00" fill="#000000">ContributionTable_SourceTable</text>
<text text-anchor="start" x="1104.5219" y="-463.8" font-family="Helvetica,sans-Serif" font-size="11.00" fill="#000000">[table]</text>
<polygon fill="none" stroke="#000000" points="913,-433.7 913,-455.7 1139,-455.7 1139,-433.7 913,-433.7"/>
<image xlink:href="../../images/foreignKeys.png" width="11px" height="12px" preserveAspectRatio="xMinYMin meet" x="918" y="-450.7"/>
<text text-anchor="start" x="942" y="-440.8" font-family="Helvetica,sans-Serif" font-size="11.00" fill="#000000">ContributionTable_cldf_id</text>
<polygon fill="none" stroke="#000000" points="913,-411.7 913,-433.7 1139,-433.7 1139,-411.7 913,-411.7"/>
<image xlink:href="../../images/foreignKeys.png" width="11px" height="12px" preserveAspectRatio="xMinYMin meet" x="918" y="-428.7"/>
<text text-anchor="start" x="942" y="-418.8" font-family="Helvetica,sans-Serif" font-size="11.00" fill="#000000">SourceTable_id</text>
<polygon fill="none" stroke="#000000" points="913,-392.7 913,-411.7 1139,-411.7 1139,-392.7 913,-392.7"/>
<text text-anchor="start" x="916" y="-398.8" font-family="Helvetica,sans-Serif" font-size="11.00" fill="#000000">...</text>
<polygon fill="#ffffff" stroke="transparent" points="913,-373.7 913,-392.7 1005,-392.7 1005,-373.7 913,-373.7"/>
<polygon fill="none" stroke="#000000" points="913,-373.7 913,-392.7 1005,-392.7 1005,-373.7 913,-373.7"/>
<text text-anchor="start" x="916" y="-379.8" font-family="Helvetica,sans-Serif" font-size="11.00" fill="#000000">&lt; 2</text>
<polygon fill="#ffffff" stroke="transparent" points="1005,-373.7 1005,-392.7 1091,-392.7 1091,-373.7 1005,-373.7"/>
<polygon fill="none" stroke="#000000" points="1005,-373.7 1005,-392.7 1091,-392.7 1091,-373.7 1005,-373.7"/>
<text text-anchor="start" x="1043.3807" y="-379.8" font-family="Helvetica,sans-Serif" font-size="11.00" fill="#000000">576 rows</text>
<polygon fill="#ffffff" stroke="transparent" points="1091,-373.7 1091,-392.7 1139,-392.7 1139,-373.7 1091,-373.7"/>
<polygon fill="none" stroke="#000000" points="1091,-373.7 1091,-392.7 1139,-392.7 1139,-373.7 1091,-373.7"/>
<text text-anchor="start" x="1129.8862" y="-379.8" font-family="Helvetica,sans-Serif" font-size="11.00" fill="#000000"> &#160;</text>
</a>
</g>
</g>
<!-- SourceTable -->
<g id="node7" class="node">
<title>SourceTable</title>
<g id="a_node7"><a xlink:href="../../tables/SourceTable.html" xlink:title="SourceTable" target="_top">
<polygon fill="#ffffff" stroke="transparent" points="682.5,-356.2 682.5,-439.2 794.5,-439.2 794.5,-356.2 682.5,-356.2"/>
<polygon fill="#f5f5f5" stroke="transparent" points="682.5,-415.7 682.5,-438.7 794.5,-438.7 794.5,-415.7 682.5,-415.7"/>
<polygon fill="none" stroke="#000000" points="682.5,-415.7 682.5,-438.7 794.5,-438.7 794.5,-415.7 682.5,-415.7"/>
<text text-anchor="start" x="687.5" y="-424.3" font-family="Helvetica,sans-Serif" font-weight="bold" font-size="11.00" fill="#000000">SourceTable</text>
<text text-anchor="start" x="760.0219" y="-423.8" font-family="Helvetica,sans-Serif" font-size="11.00" fill="#000000">[table]</text>
<polygon fill="none" stroke="#000000" points="682.5,-393.7 682.5,-415.7 794.5,-415.7 794.5,-393.7 682.5,-393.7"/>
<image xlink:href="../../images/primaryKeys.png" width="11px" height="12px" preserveAspectRatio="xMinYMin meet" x="687.5" y="-410.7"/>
<text text-anchor="start" x="706.5" y="-400.8" font-family="Helvetica,sans-Serif" font-size="11.00" fill="#000000">id</text>
<polygon fill="none" stroke="#000000" points="682.5,-374.7 682.5,-393.7 794.5,-393.7 794.5,-374.7 682.5,-374.7"/>
<text text-anchor="start" x="685.5" y="-380.8" font-family="Helvetica,sans-Serif" font-size="11.00" fill="#000000">...</text>
<polygon fill="#ffffff" stroke="transparent" points="682.5,-355.7 682.5,-374.7 708.5,-374.7 708.5,-355.7 682.5,-355.7"/>
<polygon fill="none" stroke="#000000" points="682.5,-355.7 682.5,-374.7 708.5,-374.7 708.5,-355.7 682.5,-355.7"/>
<text text-anchor="start" x="685.5" y="-361.8" font-family="Helvetica,sans-Serif" font-size="11.00" fill="#000000"> &#160;</text>
<polygon fill="#ffffff" stroke="transparent" points="708.5,-355.7 708.5,-374.7 765.5,-374.7 765.5,-355.7 708.5,-355.7"/>
<polygon fill="none" stroke="#000000" points="708.5,-355.7 708.5,-374.7 765.5,-374.7 765.5,-355.7 708.5,-355.7"/>
<text text-anchor="start" x="717.8807" y="-361.8" font-family="Helvetica,sans-Serif" font-size="11.00" fill="#000000">429 rows</text>
<polygon fill="#ffffff" stroke="transparent" points="765.5,-355.7 765.5,-374.7 794.5,-374.7 794.5,-355.7 765.5,-355.7"/>
<polygon fill="none" stroke="#000000" points="765.5,-355.7 765.5,-374.7 794.5,-374.7 794.5,-355.7 765.5,-355.7"/>
<text text-anchor="start" x="775.9053" y="-361.8" font-family="Helvetica,sans-Serif" font-size="11.00" fill="#000000">2 &gt;</text>
</a>
</g>
</g>
<!-- ContributionTable_SourceTable&#45;&gt;SourceTable -->
<g id="edge8" class="edge">
<title>ContributionTable_SourceTable:w&#45;&gt;SourceTable:e</title>
<path fill="none" stroke="#000000" d="M898.4983,-422.2185C856.9996,-419.356 842.5686,-404.7 794.5,-404.7"/>
<polygon fill="#000000" stroke="#000000" points="905.0044,-422.4345 912.8805,-426.298 909.0022,-422.5672 913,-422.7 913,-422.7 913,-422.7 909.0022,-422.5672 913.1195,-419.102 905.0044,-422.4345 905.0044,-422.4345"/>
<ellipse fill="none" stroke="#000000" cx="901.8062" cy="-422.3283" rx="3.2" ry="3.2"/>
</g>
<!-- ContributionTable -->
<g id="node12" class="node">
<title>ContributionTable</title>
<g id="a_node12"><a xlink:href="../../tables/ContributionTable.html" xlink:title="ContributionTable" target="_top">
<polygon fill="#ffffff" stroke="transparent" points="394,-331.2 394,-480.2 562,-480.2 562,-331.2 394,-331.2"/>
<polygon fill="#f5f5f5" stroke="transparent" points="394,-456.7 394,-479.7 562,-479.7 562,-456.7 394,-456.7"/>
<polygon fill="none" stroke="#000000" points="394,-456.7 394,-479.7 562,-479.7 562,-456.7 394,-456.7"/>
<text text-anchor="start" x="399" y="-465.3" font-family="Helvetica,sans-Serif" font-weight="bold" font-size="11.00" fill="#000000">ContributionTable</text>
<text text-anchor="start" x="527.0437" y="-464.8" font-family="Helvetica,sans-Serif" font-size="11.00" fill="#000000">[table]</text>
<polygon fill="none" stroke="#000000" points="394,-434.7 394,-456.7 562,-456.7 562,-434.7 394,-434.7"/>
<image xlink:href="../../images/primaryKeys.png" width="11px" height="12px" preserveAspectRatio="xMinYMin meet" x="399" y="-451.7"/>
<text text-anchor="start" x="414" y="-441.8" font-family="Helvetica,sans-Serif" font-size="11.00" fill="#000000">cldf_id</text>
<polygon fill="none" stroke="#000000" points="394,-412.7 394,-434.7 562,-434.7 562,-412.7 394,-412.7"/>
<image xlink:href="../../images/foreignKeys.png" width="11px" height="12px" preserveAspectRatio="xMinYMin meet" x="399" y="-429.7"/>
<text text-anchor="start" x="414" y="-419.8" font-family="Helvetica,sans-Serif" font-size="11.00" fill="#000000">cldf_languageReference</text>
<polygon fill="none" stroke="#000000" points="394,-390.7 394,-412.7 562,-412.7 562,-390.7 394,-390.7"/>
<image xlink:href="../../images/foreignKeys.png" width="11px" height="12px" preserveAspectRatio="xMinYMin meet" x="399" y="-407.7"/>
<text text-anchor="start" x="414" y="-397.8" font-family="Helvetica,sans-Serif" font-size="11.00" fill="#000000">Neighbour_Language_ID</text>
<polygon fill="none" stroke="#000000" points="394,-368.7 394,-390.7 562,-390.7 562,-368.7 394,-368.7"/>
<image xlink:href="../../images/foreignKeys.png" width="11px" height="12px" preserveAspectRatio="xMinYMin meet" x="399" y="-385.7"/>
<text text-anchor="start" x="414" y="-375.8" font-family="Helvetica,sans-Serif" font-size="11.00" fill="#000000">cldf_mediaReference</text>
<polygon fill="none" stroke="#000000" points="394,-349.7 394,-368.7 562,-368.7 562,-349.7 394,-349.7"/>
<text text-anchor="start" x="397" y="-355.8" font-family="Helvetica,sans-Serif" font-size="11.00" fill="#000000">...</text>
<polygon fill="#ffffff" stroke="transparent" points="394,-330.7 394,-349.7 453,-349.7 453,-330.7 394,-330.7"/>
<polygon fill="none" stroke="#000000" points="394,-330.7 394,-349.7 453,-349.7 453,-330.7 394,-330.7"/>
<text text-anchor="start" x="397" y="-336.8" font-family="Helvetica,sans-Serif" font-size="11.00" fill="#000000">&lt; 3</text>
<polygon fill="#ffffff" stroke="transparent" points="453,-330.7 453,-349.7 522,-349.7 522,-330.7 453,-330.7"/>
<polygon fill="none" stroke="#000000" points="453,-330.7 453,-349.7 522,-349.7 522,-330.7 453,-330.7"/>
<text text-anchor="start" x="474.3807" y="-336.8" font-family="Helvetica,sans-Serif" font-size="11.00" fill="#000000">124 rows</text>
<polygon fill="#ffffff" stroke="transparent" points="522,-330.7 522,-349.7 562,-349.7 562,-330.7 522,-330.7"/>
<polygon fill="none" stroke="#000000" points="522,-330.7 522,-349.7 562,-349.7 562,-330.7 522,-330.7"/>
<text text-anchor="start" x="543.4053" y="-336.8" font-family="Helvetica,sans-Serif" font-size="11.00" fill="#000000">4 &gt;</text>
</a>
</g>
</g>
<!-- ContributionTable_SourceTable&#45;&gt;ContributionTable -->
<g id="edge7" class="edge">
<title>ContributionTable_SourceTable:w&#45;&gt;ContributionTable:e</title>
<path fill="none" stroke="#000000" d="M898.4732,-445.7201C890.3004,-446.9521 884.3111,-448.9521 872,-449.7 753.5517,-456.8958 723.5391,-455.2016 605,-449.7 585.827,-448.8102 581.1936,-445.7 562,-445.7"/>
<polygon fill="#000000" stroke="#000000" points="905.0197,-445.2605 913.2522,-448.2912 909.0098,-444.9802 913,-444.7 913,-444.7 913,-444.7 909.0098,-444.9802 912.7478,-441.1088 905.0197,-445.2605 905.0197,-445.2605"/>
<ellipse fill="none" stroke="#000000" cx="901.8275" cy="-445.4847" rx="3.2" ry="3.2"/>
</g>
<!-- CodeTable -->
<g id="node3" class="node">
<title>CodeTable</title>
<g id="a_node3"><a xlink:href="../../tables/CodeTable.html" xlink:title="CodeTable" target="_top">
<polygon fill="#ffffff" stroke="transparent" points="392,-38.2 392,-143.2 564,-143.2 564,-38.2 392,-38.2"/>
<polygon fill="#f5f5f5" stroke="transparent" points="392,-119.7 392,-142.7 564,-142.7 564,-119.7 392,-119.7"/>
<polygon fill="none" stroke="#000000" points="392,-119.7 392,-142.7 564,-142.7 564,-119.7 392,-119.7"/>
<text text-anchor="start" x="397" y="-128.3" font-family="Helvetica,sans-Serif" font-weight="bold" font-size="11.00" fill="#000000">CodeTable</text>
<text text-anchor="start" x="529.0437" y="-127.8" font-family="Helvetica,sans-Serif" font-size="11.00" fill="#000000">[table]</text>
<polygon fill="none" stroke="#000000" points="392,-97.7 392,-119.7 564,-119.7 564,-97.7 392,-97.7"/>
<image xlink:href="../../images/primaryKeys.png" width="11px" height="12px" preserveAspectRatio="xMinYMin meet" x="397" y="-114.7"/>
<text text-anchor="start" x="412" y="-104.8" font-family="Helvetica,sans-Serif" font-size="11.00" fill="#000000">cldf_id</text>
<polygon fill="none" stroke="#000000" points="392,-75.7 392,-97.7 564,-97.7 564,-75.7 392,-75.7"/>
<image xlink:href="../../images/foreignKeys.png" width="11px" height="12px" preserveAspectRatio="xMinYMin meet" x="397" y="-92.7"/>
<text text-anchor="start" x="412" y="-82.8" font-family="Helvetica,sans-Serif" font-size="11.00" fill="#000000">cldf_parameterReference</text>
<polygon fill="none" stroke="#000000" points="392,-56.7 392,-75.7 564,-75.7 564,-56.7 392,-56.7"/>
<text text-anchor="start" x="395" y="-62.8" font-family="Helvetica,sans-Serif" font-size="11.00" fill="#000000">...</text>
<polygon fill="#ffffff" stroke="transparent" points="392,-37.7 392,-56.7 448,-56.7 448,-37.7 392,-37.7"/>
<polygon fill="none" stroke="#000000" points="392,-37.7 392,-56.7 448,-56.7 448,-37.7 392,-37.7"/>
<text text-anchor="start" x="395" y="-43.8" font-family="Helvetica,sans-Serif" font-size="11.00" fill="#000000">&lt; 1</text>
<polygon fill="#ffffff" stroke="transparent" points="448,-37.7 448,-56.7 525,-56.7 525,-37.7 448,-37.7"/>
<polygon fill="none" stroke="#000000" points="448,-37.7 448,-56.7 525,-56.7 525,-37.7 448,-37.7"/>
<text text-anchor="start" x="468.2089" y="-43.8" font-family="Helvetica,sans-Serif" font-size="11.00" fill="#000000">1,523 rows</text>
<polygon fill="#ffffff" stroke="transparent" points="525,-37.7 525,-56.7 564,-56.7 564,-37.7 525,-37.7"/>
<polygon fill="none" stroke="#000000" points="525,-37.7 525,-56.7 564,-56.7 564,-37.7 525,-37.7"/>
<text text-anchor="start" x="545.4053" y="-43.8" font-family="Helvetica,sans-Serif" font-size="11.00" fill="#000000">1 &gt;</text>
</a>
</g>
</g>
<!-- ParameterTable -->
<g id="node6" class="node">
<title>ParameterTable</title>
<g id="a_node6"><a xlink:href="../../tables/ParameterTable.html" xlink:title="ParameterTable" target="_top">
<polygon fill="#ffffff" stroke="transparent" points="177,-97.2 177,-202.2 343,-202.2 343,-97.2 177,-97.2"/>
<polygon fill="#f5f5f5" stroke="transparent" points="177,-178.7 177,-201.7 343,-201.7 343,-178.7 177,-178.7"/>
<polygon fill="none" stroke="#000000" points="177,-178.7 177,-201.7 343,-201.7 343,-178.7 177,-178.7"/>
<text text-anchor="start" x="182" y="-187.3" font-family="Helvetica,sans-Serif" font-weight="bold" font-size="11.00" fill="#000000">ParameterTable</text>
<text text-anchor="start" x="308.0437" y="-186.8" font-family="Helvetica,sans-Serif" font-size="11.00" fill="#000000">[table]</text>
<polygon fill="none" stroke="#000000" points="177,-156.7 177,-178.7 343,-178.7 343,-156.7 177,-156.7"/>
<image xlink:href="../../images/primaryKeys.png" width="11px" height="12px" preserveAspectRatio="xMinYMin meet" x="182" y="-173.7"/>
<text text-anchor="start" x="197" y="-163.8" font-family="Helvetica,sans-Serif" font-size="11.00" fill="#000000">cldf_id</text>
<polygon fill="none" stroke="#000000" points="177,-134.7 177,-156.7 343,-156.7 343,-134.7 177,-134.7"/>
<image xlink:href="../../images/foreignKeys.png" width="11px" height="12px" preserveAspectRatio="xMinYMin meet" x="182" y="-151.7"/>
<text text-anchor="start" x="197" y="-141.8" font-family="Helvetica,sans-Serif" font-size="11.00" fill="#000000">Question_ID</text>
<polygon fill="none" stroke="#000000" points="177,-115.7 177,-134.7 343,-134.7 343,-115.7 177,-115.7"/>
<text text-anchor="start" x="180" y="-121.8" font-family="Helvetica,sans-Serif" font-size="11.00" fill="#000000">...</text>
<polygon fill="#ffffff" stroke="transparent" points="177,-96.7 177,-115.7 235,-115.7 235,-96.7 177,-96.7"/>
<polygon fill="none" stroke="#000000" points="177,-96.7 177,-115.7 235,-115.7 235,-96.7 177,-96.7"/>
<text text-anchor="start" x="180" y="-102.8" font-family="Helvetica,sans-Serif" font-size="11.00" fill="#000000">&lt; 1</text>
<polygon fill="#ffffff" stroke="transparent" points="235,-96.7 235,-115.7 303,-115.7 303,-96.7 235,-96.7"/>
<polygon fill="none" stroke="#000000" points="235,-96.7 235,-115.7 303,-115.7 303,-96.7 235,-96.7"/>
<text text-anchor="start" x="255.3807" y="-102.8" font-family="Helvetica,sans-Serif" font-size="11.00" fill="#000000">392 rows</text>
<polygon fill="#ffffff" stroke="transparent" points="303,-96.7 303,-115.7 343,-115.7 343,-96.7 303,-96.7"/>
<polygon fill="none" stroke="#000000" points="303,-96.7 303,-115.7 343,-115.7 343,-96.7 303,-96.7"/>
<text text-anchor="start" x="324.4053" y="-102.8" font-family="Helvetica,sans-Serif" font-size="11.00" fill="#000000">2 &gt;</text>
</a>
</g>
</g>
<!-- CodeTable&#45;&gt;ParameterTable -->
<g id="edge1" class="edge">
<title>CodeTable:w&#45;&gt;ParameterTable:e</title>
<path fill="none" stroke="#000000" d="M378.1299,-91.287C358.4726,-108.422 378.9935,-167.7 343,-167.7"/>
<polygon fill="#000000" stroke="#000000" points="384.4046,-89.2119 393.1304,-90.1179 388.2023,-87.956 392,-86.7 392,-86.7 392,-86.7 388.2023,-87.956 390.8696,-83.2821 384.4046,-89.2119 384.4046,-89.2119"/>
<ellipse fill="none" stroke="#000000" cx="381.3664" cy="-90.2167" rx="3.2" ry="3.2"/>
</g>
<!-- contributors.csv -->
<g id="node4" class="node">
<title>contributors.csv</title>
<g id="a_node4"><a xlink:href="../../tables/contributors.csv.html" xlink:title="contributors.csv" target="_top">
<polygon fill="#ffffff" stroke="transparent" points="410,-227.2 410,-310.2 546,-310.2 546,-227.2 410,-227.2"/>
<polygon fill="#f5f5f5" stroke="transparent" points="410,-286.7 410,-309.7 546,-309.7 546,-286.7 410,-286.7"/>
<polygon fill="none" stroke="#000000" points="410,-286.7 410,-309.7 546,-309.7 546,-286.7 410,-286.7"/>
<text text-anchor="start" x="415" y="-295.3" font-family="Helvetica,sans-Serif" font-weight="bold" font-size="11.00" fill="#000000">contributors.csv</text>
<text text-anchor="start" x="511.5219" y="-294.8" font-family="Helvetica,sans-Serif" font-size="11.00" fill="#000000">[table]</text>
<polygon fill="none" stroke="#000000" points="410,-264.7 410,-286.7 546,-286.7 546,-264.7 410,-264.7"/>
<image xlink:href="../../images/primaryKeys.png" width="11px" height="12px" preserveAspectRatio="xMinYMin meet" x="415" y="-281.7"/>
<text text-anchor="start" x="439" y="-271.8" font-family="Helvetica,sans-Serif" font-size="11.00" fill="#000000">cldf_id</text>
<polygon fill="none" stroke="#000000" points="410,-245.7 410,-264.7 546,-264.7 546,-245.7 410,-245.7"/>
<text text-anchor="start" x="413" y="-251.8" font-family="Helvetica,sans-Serif" font-size="11.00" fill="#000000">...</text>
<polygon fill="#ffffff" stroke="transparent" points="410,-226.7 410,-245.7 451,-245.7 451,-226.7 410,-226.7"/>
<polygon fill="none" stroke="#000000" points="410,-226.7 410,-245.7 451,-245.7 451,-226.7 410,-226.7"/>
<text text-anchor="start" x="413" y="-232.8" font-family="Helvetica,sans-Serif" font-size="11.00" fill="#000000"> &#160;</text>
<polygon fill="#ffffff" stroke="transparent" points="451,-226.7 451,-245.7 510,-245.7 510,-226.7 451,-226.7"/>
<polygon fill="none" stroke="#000000" points="451,-226.7 451,-245.7 510,-245.7 510,-226.7 451,-226.7"/>
<text text-anchor="start" x="468.4956" y="-232.8" font-family="Helvetica,sans-Serif" font-size="11.00" fill="#000000">49 rows</text>
<polygon fill="#ffffff" stroke="transparent" points="510,-226.7 510,-245.7 546,-245.7 546,-226.7 510,-226.7"/>
<polygon fill="none" stroke="#000000" points="510,-226.7 510,-245.7 546,-245.7 546,-226.7 510,-226.7"/>
<text text-anchor="start" x="527.4053" y="-232.8" font-family="Helvetica,sans-Serif" font-size="11.00" fill="#000000">1 &gt;</text>
</a>
</g>
</g>
<!-- ValueTable -->
<g id="node5" class="node">
<title>ValueTable</title>
<g id="a_node5"><a xlink:href="../../tables/ValueTable.html" xlink:title="ValueTable" target="_top">
<polygon fill="#ffffff" stroke="transparent" points="647,-38.2 647,-209.2 830,-209.2 830,-38.2 647,-38.2"/>
<polygon fill="#f5f5f5" stroke="transparent" points="647.5,-185.7 647.5,-208.7 830.5,-208.7 830.5,-185.7 647.5,-185.7"/>
<polygon fill="none" stroke="#000000" points="647.5,-185.7 647.5,-208.7 830.5,-208.7 830.5,-185.7 647.5,-185.7"/>
<text text-anchor="start" x="652.5" y="-194.3" font-family="Helvetica,sans-Serif" font-weight="bold" font-size="11.00" fill="#000000">ValueTable</text>
<text text-anchor="start" x="795.5437" y="-193.8" font-family="Helvetica,sans-Serif" font-size="11.00" fill="#000000">[table]</text>
<polygon fill="none" stroke="#000000" points="647.5,-163.7 647.5,-185.7 830.5,-185.7 830.5,-163.7 647.5,-163.7"/>
<image xlink:href="../../images/primaryKeys.png" width="11px" height="12px" preserveAspectRatio="xMinYMin meet" x="652.5" y="-180.7"/>
<text text-anchor="start" x="667.5" y="-170.8" font-family="Helvetica,sans-Serif" font-size="11.00" fill="#000000">cldf_id</text>
<polygon fill="none" stroke="#000000" points="647.5,-141.7 647.5,-163.7 830.5,-163.7 830.5,-141.7 647.5,-141.7"/>
<image xlink:href="../../images/foreignKeys.png" width="11px" height="12px" preserveAspectRatio="xMinYMin meet" x="652.5" y="-158.7"/>
<text text-anchor="start" x="667.5" y="-148.8" font-family="Helvetica,sans-Serif" font-size="11.00" fill="#000000">cldf_languageReference</text>
<polygon fill="none" stroke="#000000" points="647.5,-119.7 647.5,-141.7 830.5,-141.7 830.5,-119.7 647.5,-119.7"/>
<image xlink:href="../../images/foreignKeys.png" width="11px" height="12px" preserveAspectRatio="xMinYMin meet" x="652.5" y="-136.7"/>
<text text-anchor="start" x="667.5" y="-126.8" font-family="Helvetica,sans-Serif" font-size="11.00" fill="#000000">cldf_parameterReference</text>
<polygon fill="none" stroke="#000000" points="647.5,-97.7 647.5,-119.7 830.5,-119.7 830.5,-97.7 647.5,-97.7"/>
<image xlink:href="../../images/foreignKeys.png" width="11px" height="12px" preserveAspectRatio="xMinYMin meet" x="652.5" y="-114.7"/>
<text text-anchor="start" x="667.5" y="-104.8" font-family="Helvetica,sans-Serif" font-size="11.00" fill="#000000">cldf_codeReference</text>
<polygon fill="none" stroke="#000000" points="647.5,-75.7 647.5,-97.7 830.5,-97.7 830.5,-75.7 647.5,-75.7"/>
<image xlink:href="../../images/foreignKeys.png" width="11px" height="12px" preserveAspectRatio="xMinYMin meet" x="652.5" y="-92.7"/>
<text text-anchor="start" x="667.5" y="-82.8" font-family="Helvetica,sans-Serif" font-size="11.00" fill="#000000">cldf_contributionReference</text>
<polygon fill="none" stroke="#000000" points="647.5,-56.7 647.5,-75.7 830.5,-75.7 830.5,-56.7 647.5,-56.7"/>
<text text-anchor="start" x="650.5" y="-62.8" font-family="Helvetica,sans-Serif" font-size="11.00" fill="#000000">...</text>
<polygon fill="#ffffff" stroke="transparent" points="647.5,-37.7 647.5,-56.7 706.5,-56.7 706.5,-37.7 647.5,-37.7"/>
<polygon fill="none" stroke="#000000" points="647.5,-37.7 647.5,-56.7 706.5,-56.7 706.5,-37.7 647.5,-37.7"/>
<text text-anchor="start" x="650.5" y="-43.8" font-family="Helvetica,sans-Serif" font-size="11.00" fill="#000000">&lt; 4</text>
<polygon fill="#ffffff" stroke="transparent" points="706.5,-37.7 706.5,-56.7 790.5,-56.7 790.5,-37.7 706.5,-37.7"/>
<polygon fill="none" stroke="#000000" points="706.5,-37.7 706.5,-56.7 790.5,-56.7 790.5,-37.7 706.5,-37.7"/>
<text text-anchor="start" x="727.594" y="-43.8" font-family="Helvetica,sans-Serif" font-size="11.00" fill="#000000">13,097 rows</text>
<polygon fill="#ffffff" stroke="transparent" points="790.5,-37.7 790.5,-56.7 830.5,-56.7 830.5,-37.7 790.5,-37.7"/>
<polygon fill="none" stroke="#000000" points="790.5,-37.7 790.5,-56.7 830.5,-56.7 830.5,-37.7 790.5,-37.7"/>
<text text-anchor="start" x="811.9053" y="-43.8" font-family="Helvetica,sans-Serif" font-size="11.00" fill="#000000">1 &gt;</text>
</a>
</g>
</g>
<!-- ValueTable&#45;&gt;CodeTable -->
<g id="edge12" class="edge">
<title>ValueTable:w&#45;&gt;CodeTable:e</title>
<path fill="none" stroke="#000000" d="M632.985,-108.7C607.1256,-108.7 595.7474,-108.7 564,-108.7"/>
<polygon fill="#000000" stroke="#000000" points="639.5,-108.7001 647.5,-112.3 643.5,-108.7 647.5,-108.7 647.5,-108.7 647.5,-108.7 643.5,-108.7 647.5,-105.1 639.5,-108.7001 639.5,-108.7001"/>
<ellipse fill="none" stroke="#000000" cx="636.3" cy="-108.7001" rx="3.2" ry="3.2"/>
</g>
<!-- ValueTable&#45;&gt;ParameterTable -->
<g id="edge15" class="edge">
<title>ValueTable:w&#45;&gt;ParameterTable:e</title>
<path fill="none" stroke="#000000" d="M632.9737,-131.8245C609.8793,-135.6848 601.1275,-148.4484 572,-153.7 471.6502,-171.7929 444.9678,-167.7 343,-167.7"/>
<polygon fill="#000000" stroke="#000000" points="639.5239,-131.3175 647.7779,-134.2893 643.5119,-131.0087 647.5,-130.7 647.5,-130.7 647.5,-130.7 643.5119,-131.0087 647.2221,-127.1107 639.5239,-131.3175 639.5239,-131.3175"/>
<ellipse fill="none" stroke="#000000" cx="636.3334" cy="-131.5645" rx="3.2" ry="3.2"/>
</g>
<!-- LanguageTable -->
<g id="node11" class="node">
<title>LanguageTable</title>
<g id="a_node11"><a xlink:href="../../tables/LanguageTable.html" xlink:title="LanguageTable" target="_top">
<polygon fill="#ffffff" stroke="transparent" points="195,-364.2 195,-447.2 325,-447.2 325,-364.2 195,-364.2"/>
<polygon fill="#f5f5f5" stroke="transparent" points="195,-423.7 195,-446.7 325,-446.7 325,-423.7 195,-423.7"/>
<polygon fill="none" stroke="#000000" points="195,-423.7 195,-446.7 325,-446.7 325,-423.7 195,-423.7"/>
<text text-anchor="start" x="200" y="-432.3" font-family="Helvetica,sans-Serif" font-weight="bold" font-size="11.00" fill="#000000">LanguageTable</text>
<text text-anchor="start" x="290.5219" y="-431.8" font-family="Helvetica,sans-Serif" font-size="11.00" fill="#000000">[table]</text>
<polygon fill="none" stroke="#000000" points="195,-401.7 195,-423.7 325,-423.7 325,-401.7 195,-401.7"/>
<image xlink:href="../../images/primaryKeys.png" width="11px" height="12px" preserveAspectRatio="xMinYMin meet" x="200" y="-418.7"/>
<text text-anchor="start" x="216" y="-408.8" font-family="Helvetica,sans-Serif" font-size="11.00" fill="#000000">cldf_id</text>
<polygon fill="none" stroke="#000000" points="195,-382.7 195,-401.7 325,-401.7 325,-382.7 195,-382.7"/>
<text text-anchor="start" x="198" y="-388.8" font-family="Helvetica,sans-Serif" font-size="11.00" fill="#000000">...</text>
<polygon fill="#ffffff" stroke="transparent" points="195,-363.7 195,-382.7 233,-382.7 233,-363.7 195,-363.7"/>
<polygon fill="none" stroke="#000000" points="195,-363.7 195,-382.7 233,-382.7 233,-363.7 195,-363.7"/>
<text text-anchor="start" x="198" y="-369.8" font-family="Helvetica,sans-Serif" font-size="11.00" fill="#000000"> &#160;</text>
<polygon fill="#ffffff" stroke="transparent" points="233,-363.7 233,-382.7 290,-382.7 290,-363.7 233,-363.7"/>
<polygon fill="none" stroke="#000000" points="233,-363.7 233,-382.7 290,-382.7 290,-363.7 233,-363.7"/>
<text text-anchor="start" x="248.4956" y="-369.8" font-family="Helvetica,sans-Serif" font-size="11.00" fill="#000000">68 rows</text>
<polygon fill="#ffffff" stroke="transparent" points="290,-363.7 290,-382.7 325,-382.7 325,-363.7 290,-363.7"/>
<polygon fill="none" stroke="#000000" points="290,-363.7 290,-382.7 325,-382.7 325,-363.7 290,-363.7"/>
<text text-anchor="start" x="306.4053" y="-369.8" font-family="Helvetica,sans-Serif" font-size="11.00" fill="#000000">3 &gt;</text>
</a>
</g>
</g>
<!-- ValueTable&#45;&gt;LanguageTable -->
<g id="edge14" class="edge">
<title>ValueTable:w&#45;&gt;LanguageTable:e</title>
<path fill="none" stroke="#000000" d="M633.0759,-153.4368C609.9764,-155.9984 600.3533,-164.7393 572,-171.7 488.5618,-192.1841 444.7951,-155.9918 384,-216.7 319.6269,-280.981 415.9723,-412.7 325,-412.7"/>
<polygon fill="#000000" stroke="#000000" points="639.5104,-153.1082 647.6837,-156.2953 643.5052,-152.9041 647.5,-152.7 647.5,-152.7 647.5,-152.7 643.5052,-152.9041 647.3163,-149.1047 639.5104,-153.1082 639.5104,-153.1082"/>
<ellipse fill="none" stroke="#000000" cx="636.3146" cy="-153.2715" rx="3.2" ry="3.2"/>
</g>
<!-- ValueTable&#45;&gt;ContributionTable -->
<g id="edge13" class="edge">
<title>ValueTable:w&#45;&gt;ContributionTable:e</title>
<path fill="none" stroke="#000000" d="M633.0135,-88.4021C591.298,-99.6882 618.8999,-164.9567 605,-219.7 592.4185,-269.2508 613.1232,-445.7 562,-445.7"/>
<polygon fill="#000000" stroke="#000000" points="639.5547,-87.6336 647.9201,-90.2754 643.5273,-87.1668 647.5,-86.7 647.5,-86.7 647.5,-86.7 643.5273,-87.1668 647.0799,-83.1246 639.5547,-87.6336 639.5547,-87.6336"/>
<ellipse fill="none" stroke="#000000" cx="636.3765" cy="-88.0071" rx="3.2" ry="3.2"/>
</g>
<!-- questions.csv -->
<g id="node9" class="node">
<title>questions.csv</title>
<g id="a_node9"><a xlink:href="../../tables/questions.csv.html" xlink:title="questions.csv" target="_top">
<polygon fill="#ffffff" stroke="transparent" points="8,-272.2 8,-355.2 128,-355.2 128,-272.2 8,-272.2"/>
<polygon fill="#f5f5f5" stroke="transparent" points="8,-331.7 8,-354.7 128,-354.7 128,-331.7 8,-331.7"/>
<polygon fill="none" stroke="#000000" points="8,-331.7 8,-354.7 128,-354.7 128,-331.7 8,-331.7"/>
<text text-anchor="start" x="13" y="-340.3" font-family="Helvetica,sans-Serif" font-weight="bold" font-size="11.00" fill="#000000">questions.csv</text>
<text text-anchor="start" x="93.5219" y="-339.8" font-family="Helvetica,sans-Serif" font-size="11.00" fill="#000000">[table]</text>
<polygon fill="none" stroke="#000000" points="8,-309.7 8,-331.7 128,-331.7 128,-309.7 8,-309.7"/>
<image xlink:href="../../images/primaryKeys.png" width="11px" height="12px" preserveAspectRatio="xMinYMin meet" x="13" y="-326.7"/>
<text text-anchor="start" x="37" y="-316.8" font-family="Helvetica,sans-Serif" font-size="11.00" fill="#000000">cldf_id</text>
<polygon fill="none" stroke="#000000" points="8,-290.7 8,-309.7 128,-309.7 128,-290.7 8,-290.7"/>
<text text-anchor="start" x="11" y="-296.8" font-family="Helvetica,sans-Serif" font-size="11.00" fill="#000000">...</text>
<polygon fill="#ffffff" stroke="transparent" points="8,-271.7 8,-290.7 38,-290.7 38,-271.7 8,-271.7"/>
<polygon fill="none" stroke="#000000" points="8,-271.7 8,-290.7 38,-290.7 38,-271.7 8,-271.7"/>
<text text-anchor="start" x="11" y="-277.8" font-family="Helvetica,sans-Serif" font-size="11.00" fill="#000000"> &#160;</text>
<polygon fill="#ffffff" stroke="transparent" points="38,-271.7 38,-290.7 97,-290.7 97,-271.7 38,-271.7"/>
<polygon fill="none" stroke="#000000" points="38,-271.7 38,-290.7 97,-290.7 97,-271.7 38,-271.7"/>
<text text-anchor="start" x="49.3807" y="-277.8" font-family="Helvetica,sans-Serif" font-size="11.00" fill="#000000">265 rows</text>
<polygon fill="#ffffff" stroke="transparent" points="97,-271.7 97,-290.7 128,-290.7 128,-271.7 97,-271.7"/>
<polygon fill="none" stroke="#000000" points="97,-271.7 97,-290.7 128,-290.7 128,-271.7 97,-271.7"/>
<text text-anchor="start" x="109.4053" y="-277.8" font-family="Helvetica,sans-Serif" font-size="11.00" fill="#000000">2 &gt;</text>
</a>
</g>
</g>
<!-- ParameterTable&#45;&gt;questions.csv -->
<g id="edge9" class="edge">
<title>ParameterTable:w&#45;&gt;questions.csv:e</title>
<path fill="none" stroke="#000000" d="M162.6954,-148.1739C111.1009,-169.4442 203.0901,-320.7 128,-320.7"/>
<polygon fill="#000000" stroke="#000000" points="169.117,-147.0633 177.6135,-149.2473 173.0585,-146.3817 177,-145.7 177,-145.7 177,-145.7 173.0585,-146.3817 176.3865,-142.1527 169.117,-147.0633 169.117,-147.0633"/>
<ellipse fill="none" stroke="#000000" cx="165.9638" cy="-147.6087" rx="3.2" ry="3.2"/>
</g>
<!-- ValueTable_SourceTable -->
<g id="node8" class="node">
<title>ValueTable_SourceTable</title>
<g id="a_node8"><a xlink:href="../../tables/ValueTable_SourceTable.html" xlink:title="ValueTable_SourceTable" target="_top">
<polygon fill="#ffffff" stroke="transparent" points="934.5,-185.2 934.5,-290.2 1117.5,-290.2 1117.5,-185.2 934.5,-185.2"/>
<polygon fill="#f5f5f5" stroke="transparent" points="935,-266.7 935,-289.7 1118,-289.7 1118,-266.7 935,-266.7"/>
<polygon fill="none" stroke="#000000" points="935,-266.7 935,-289.7 1118,-289.7 1118,-266.7 935,-266.7"/>
<text text-anchor="start" x="940" y="-275.3" font-family="Helvetica,sans-Serif" font-weight="bold" font-size="11.00" fill="#000000">ValueTable_SourceTable</text>
<text text-anchor="start" x="1083.5219" y="-274.8" font-family="Helvetica,sans-Serif" font-size="11.00" fill="#000000">[table]</text>
<polygon fill="none" stroke="#000000" points="935,-244.7 935,-266.7 1118,-266.7 1118,-244.7 935,-244.7"/>
<image xlink:href="../../images/foreignKeys.png" width="11px" height="12px" preserveAspectRatio="xMinYMin meet" x="940" y="-261.7"/>
<text text-anchor="start" x="964" y="-251.8" font-family="Helvetica,sans-Serif" font-size="11.00" fill="#000000">ValueTable_cldf_id</text>
<polygon fill="none" stroke="#000000" points="935,-222.7 935,-244.7 1118,-244.7 1118,-222.7 935,-222.7"/>
<image xlink:href="../../images/foreignKeys.png" width="11px" height="12px" preserveAspectRatio="xMinYMin meet" x="940" y="-239.7"/>
<text text-anchor="start" x="964" y="-229.8" font-family="Helvetica,sans-Serif" font-size="11.00" fill="#000000">SourceTable_id</text>
<polygon fill="none" stroke="#000000" points="935,-203.7 935,-222.7 1118,-222.7 1118,-203.7 935,-203.7"/>
<text text-anchor="start" x="938" y="-209.8" font-family="Helvetica,sans-Serif" font-size="11.00" fill="#000000">...</text>
<polygon fill="#ffffff" stroke="transparent" points="935,-184.7 935,-203.7 1012,-203.7 1012,-184.7 935,-184.7"/>
<polygon fill="none" stroke="#000000" points="935,-184.7 935,-203.7 1012,-203.7 1012,-184.7 935,-184.7"/>
<text text-anchor="start" x="938" y="-190.8" font-family="Helvetica,sans-Serif" font-size="11.00" fill="#000000">&lt; 2</text>
<polygon fill="#ffffff" stroke="transparent" points="1012,-184.7 1012,-203.7 1078,-203.7 1078,-184.7 1012,-184.7"/>
<polygon fill="none" stroke="#000000" points="1012,-184.7 1012,-203.7 1078,-203.7 1078,-184.7 1012,-184.7"/>
<text text-anchor="start" x="1042.6105" y="-190.8" font-family="Helvetica,sans-Serif" font-size="11.00" fill="#000000">0 rows</text>
<polygon fill="#ffffff" stroke="transparent" points="1078,-184.7 1078,-203.7 1118,-203.7 1118,-184.7 1078,-184.7"/>
<polygon fill="none" stroke="#000000" points="1078,-184.7 1078,-203.7 1118,-203.7 1118,-184.7 1078,-184.7"/>
<text text-anchor="start" x="1108.8862" y="-190.8" font-family="Helvetica,sans-Serif" font-size="11.00" fill="#000000"> &#160;</text>
</a>
</g>
</g>
<!-- ValueTable_SourceTable&#45;&gt;ValueTable -->
<g id="edge17" class="edge">
<title>ValueTable_SourceTable:w&#45;&gt;ValueTable:e</title>
<path fill="none" stroke="#000000" d="M920.521,-253.7776C878.0236,-241.5115 883.8687,-174.7 830.5,-174.7"/>
<polygon fill="#000000" stroke="#000000" points="927.0696,-254.647 934.5262,-259.2687 931.0348,-255.1735 935,-255.7 935,-255.7 935,-255.7 931.0348,-255.1735 935.4738,-252.1313 927.0696,-254.647 927.0696,-254.647"/>
<ellipse fill="none" stroke="#000000" cx="923.8974" cy="-254.2259" rx="3.2" ry="3.2"/>
</g>
<!-- ValueTable_SourceTable&#45;&gt;SourceTable -->
<g id="edge16" class="edge">
<title>ValueTable_SourceTable:w&#45;&gt;SourceTable:e</title>
<path fill="none" stroke="#000000" d="M920.6592,-235.5836C883.4024,-246.9148 905.8358,-306.8285 872,-345.7 843.5775,-378.3525 837.79,-404.7 794.5,-404.7"/>
<polygon fill="#000000" stroke="#000000" points="927.0681,-234.7419 935.4688,-237.2693 931.0341,-234.2209 935,-233.7 935,-233.7 935,-233.7 931.0341,-234.2209 934.5312,-230.1307 927.0681,-234.7419 927.0681,-234.7419"/>
<ellipse fill="none" stroke="#000000" cx="923.8954" cy="-235.1586" rx="3.2" ry="3.2"/>
</g>
<!-- ContributionTable_contributors.csv -->
<g id="node10" class="node">
<title>ContributionTable_contributors.csv</title>
<g id="a_node10"><a xlink:href="../../tables/ContributionTable_contributors.csv.html" xlink:title="ContributionTable_contributors.csv" target="_top">
<polygon fill="#ffffff" stroke="transparent" points="613,-230.2 613,-335.2 864,-335.2 864,-230.2 613,-230.2"/>
<polygon fill="#f5f5f5" stroke="transparent" points="613.5,-311.7 613.5,-334.7 864.5,-334.7 864.5,-311.7 613.5,-311.7"/>
<polygon fill="none" stroke="#000000" points="613.5,-311.7 613.5,-334.7 864.5,-334.7 864.5,-311.7 613.5,-311.7"/>
<text text-anchor="start" x="618.5" y="-320.3" font-family="Helvetica,sans-Serif" font-weight="bold" font-size="11.00" fill="#000000">ContributionTable_contributors.csv</text>
<text text-anchor="start" x="830.0219" y="-319.8" font-family="Helvetica,sans-Serif" font-size="11.00" fill="#000000">[table]</text>
<polygon fill="none" stroke="#000000" points="613.5,-289.7 613.5,-311.7 864.5,-311.7 864.5,-289.7 613.5,-289.7"/>
<image xlink:href="../../images/foreignKeys.png" width="11px" height="12px" preserveAspectRatio="xMinYMin meet" x="618.5" y="-306.7"/>
<text text-anchor="start" x="642.5" y="-296.8" font-family="Helvetica,sans-Serif" font-size="11.00" fill="#000000">ContributionTable_cldf_id</text>
<polygon fill="none" stroke="#000000" points="613.5,-267.7 613.5,-289.7 864.5,-289.7 864.5,-267.7 613.5,-267.7"/>
<image xlink:href="../../images/foreignKeys.png" width="11px" height="12px" preserveAspectRatio="xMinYMin meet" x="618.5" y="-284.7"/>
<text text-anchor="start" x="642.5" y="-274.8" font-family="Helvetica,sans-Serif" font-size="11.00" fill="#000000">contributors.csv_cldf_id</text>
<polygon fill="none" stroke="#000000" points="613.5,-248.7 613.5,-267.7 864.5,-267.7 864.5,-248.7 613.5,-248.7"/>
<text text-anchor="start" x="616.5" y="-254.8" font-family="Helvetica,sans-Serif" font-size="11.00" fill="#000000">...</text>
<polygon fill="#ffffff" stroke="transparent" points="613.5,-229.7 613.5,-248.7 718.5,-248.7 718.5,-229.7 613.5,-229.7"/>
<polygon fill="none" stroke="#000000" points="613.5,-229.7 613.5,-248.7 718.5,-248.7 718.5,-229.7 613.5,-229.7"/>
<text text-anchor="start" x="616.5" y="-235.8" font-family="Helvetica,sans-Serif" font-size="11.00" fill="#000000">&lt; 2</text>
<polygon fill="#ffffff" stroke="transparent" points="718.5,-229.7 718.5,-248.7 810.5,-248.7 810.5,-229.7 718.5,-229.7"/>
<polygon fill="none" stroke="#000000" points="718.5,-229.7 718.5,-248.7 810.5,-248.7 810.5,-229.7 718.5,-229.7"/>
<text text-anchor="start" x="762.8807" y="-235.8" font-family="Helvetica,sans-Serif" font-size="11.00" fill="#000000">224 rows</text>
<polygon fill="#ffffff" stroke="transparent" points="810.5,-229.7 810.5,-248.7 864.5,-248.7 864.5,-229.7 810.5,-229.7"/>
<polygon fill="none" stroke="#000000" points="810.5,-229.7 810.5,-248.7 864.5,-248.7 864.5,-229.7 810.5,-229.7"/>
<text text-anchor="start" x="855.3862" y="-235.8" font-family="Helvetica,sans-Serif" font-size="11.00" fill="#000000"> &#160;</text>
</a>
</g>
</g>
<!-- ContributionTable_contributors.csv&#45;&gt;contributors.csv -->
<g id="edge6" class="edge">
<title>ContributionTable_contributors.csv:w&#45;&gt;contributors.csv:e</title>
<path fill="none" stroke="#000000" d="M598.9649,-278.4338C579.9768,-277.6996 570.5164,-275.7 546,-275.7"/>
<polygon fill="#000000" stroke="#000000" points="605.5013,-278.5534 613.434,-282.2994 609.5007,-278.6267 613.5,-278.7 613.5,-278.7 613.5,-278.7 609.5007,-278.6267 613.566,-275.1006 605.5013,-278.5534 605.5013,-278.5534"/>
<ellipse fill="none" stroke="#000000" cx="602.3019" cy="-278.4948" rx="3.2" ry="3.2"/>
</g>
<!-- ContributionTable_contributors.csv&#45;&gt;ContributionTable -->
<g id="edge5" class="edge">
<title>ContributionTable_contributors.csv:w&#45;&gt;ContributionTable:e</title>
<path fill="none" stroke="#000000" d="M599.3388,-303.5964C558.3515,-324.0327 624.6449,-445.7 562,-445.7"/>
<polygon fill="#000000" stroke="#000000" points="605.6623,-302.3031 614.2214,-304.227 609.5811,-301.5016 613.5,-300.7 613.5,-300.7 613.5,-300.7 609.5811,-301.5016 612.7786,-297.173 605.6623,-302.3031 605.6623,-302.3031"/>
<ellipse fill="none" stroke="#000000" cx="602.5272" cy="-302.9444" rx="3.2" ry="3.2"/>
</g>
<!-- ContributionTable&#45;&gt;MediaTable -->
<g id="edge3" class="edge">
<title>ContributionTable:w&#45;&gt;MediaTable:e</title>
<path fill="none" stroke="#000000" d="M379.6073,-376.4648C353.0346,-362.5751 361.8737,-308.7 323,-308.7"/>
<polygon fill="#000000" stroke="#000000" points="386.1948,-377.9455 393.2105,-383.2124 390.0974,-378.8227 394,-379.7 394,-379.7 394,-379.7 390.0974,-378.8227 394.7895,-376.1876 386.1948,-377.9455 386.1948,-377.9455"/>
<ellipse fill="none" stroke="#000000" cx="383.0727" cy="-377.2437" rx="3.2" ry="3.2"/>
</g>
<!-- ContributionTable&#45;&gt;LanguageTable -->
<g id="edge2" class="edge">
<title>ContributionTable:w&#45;&gt;LanguageTable:e</title>
<path fill="none" stroke="#000000" d="M379.6012,-422.7998C359.7765,-420.1727 350.5952,-412.7 325,-412.7"/>
<polygon fill="#000000" stroke="#000000" points="386.0156,-423.2008 393.7754,-427.293 390.0078,-423.4504 394,-423.7 394,-423.7 394,-423.7 390.0078,-423.4504 394.2246,-420.107 386.0156,-423.2008 386.0156,-423.2008"/>
<ellipse fill="none" stroke="#000000" cx="382.8218" cy="-423.0011" rx="3.2" ry="3.2"/>
</g>
<!-- ContributionTable&#45;&gt;LanguageTable -->
<g id="edge4" class="edge">
<title>ContributionTable:w&#45;&gt;LanguageTable:e</title>
<path fill="none" stroke="#000000" d="M379.6012,-402.6002C359.7765,-405.2273 350.5952,-412.7 325,-412.7"/>
<polygon fill="#000000" stroke="#000000" points="386.0156,-402.1992 394.2246,-405.293 390.0078,-401.9496 394,-401.7 394,-401.7 394,-401.7 390.0078,-401.9496 393.7754,-398.107 386.0156,-402.1992 386.0156,-402.1992"/>
<ellipse fill="none" stroke="#000000" cx="382.8218" cy="-402.3989" rx="3.2" ry="3.2"/>
</g>
<!-- questions.csv_ContributionTable -->
<g id="node13" class="node">
<title>questions.csv_ContributionTable</title>
<g id="a_node13"><a xlink:href="../../tables/questions.csv_ContributionTable.html" xlink:title="questions.csv_ContributionTable" target="_top">
<polygon fill="#ffffff" stroke="transparent" points="621.5,-488.2 621.5,-593.2 855.5,-593.2 855.5,-488.2 621.5,-488.2"/>
<polygon fill="#f5f5f5" stroke="transparent" points="621.5,-569.7 621.5,-592.7 855.5,-592.7 855.5,-569.7 621.5,-569.7"/>
<polygon fill="none" stroke="#000000" points="621.5,-569.7 621.5,-592.7 855.5,-592.7 855.5,-569.7 621.5,-569.7"/>
<text text-anchor="start" x="626.5" y="-578.3" font-family="Helvetica,sans-Serif" font-weight="bold" font-size="11.00" fill="#000000">questions.csv_ContributionTable</text>
<text text-anchor="start" x="821.0219" y="-577.8" font-family="Helvetica,sans-Serif" font-size="11.00" fill="#000000">[table]</text>
<polygon fill="none" stroke="#000000" points="621.5,-547.7 621.5,-569.7 855.5,-569.7 855.5,-547.7 621.5,-547.7"/>
<image xlink:href="../../images/foreignKeys.png" width="11px" height="12px" preserveAspectRatio="xMinYMin meet" x="626.5" y="-564.7"/>
<text text-anchor="start" x="650.5" y="-554.8" font-family="Helvetica,sans-Serif" font-size="11.00" fill="#000000">questions.csv_cldf_id</text>
<polygon fill="none" stroke="#000000" points="621.5,-525.7 621.5,-547.7 855.5,-547.7 855.5,-525.7 621.5,-525.7"/>
<image xlink:href="../../images/foreignKeys.png" width="11px" height="12px" preserveAspectRatio="xMinYMin meet" x="626.5" y="-542.7"/>
<text text-anchor="start" x="650.5" y="-532.8" font-family="Helvetica,sans-Serif" font-size="11.00" fill="#000000">ContributionTable_cldf_id</text>
<polygon fill="none" stroke="#000000" points="621.5,-506.7 621.5,-525.7 855.5,-525.7 855.5,-506.7 621.5,-506.7"/>
<text text-anchor="start" x="624.5" y="-512.8" font-family="Helvetica,sans-Serif" font-size="11.00" fill="#000000">...</text>
<polygon fill="#ffffff" stroke="transparent" points="621.5,-487.7 621.5,-506.7 717.5,-506.7 717.5,-487.7 621.5,-487.7"/>
<polygon fill="none" stroke="#000000" points="621.5,-487.7 621.5,-506.7 717.5,-506.7 717.5,-487.7 621.5,-487.7"/>
<text text-anchor="start" x="624.5" y="-493.8" font-family="Helvetica,sans-Serif" font-size="11.00" fill="#000000">&lt; 2</text>
<polygon fill="#ffffff" stroke="transparent" points="717.5,-487.7 717.5,-506.7 805.5,-506.7 805.5,-487.7 717.5,-487.7"/>
<polygon fill="none" stroke="#000000" points="717.5,-487.7 717.5,-506.7 805.5,-506.7 805.5,-487.7 717.5,-487.7"/>
<text text-anchor="start" x="757.8807" y="-493.8" font-family="Helvetica,sans-Serif" font-size="11.00" fill="#000000">515 rows</text>
<polygon fill="#ffffff" stroke="transparent" points="805.5,-487.7 805.5,-506.7 855.5,-506.7 855.5,-487.7 805.5,-487.7"/>
<polygon fill="none" stroke="#000000" points="805.5,-487.7 805.5,-506.7 855.5,-506.7 855.5,-487.7 805.5,-487.7"/>
<text text-anchor="start" x="846.3862" y="-493.8" font-family="Helvetica,sans-Serif" font-size="11.00" fill="#000000"> &#160;</text>
</a>
</g>
</g>
<!-- questions.csv_ContributionTable&#45;&gt;questions.csv -->
<g id="edge11" class="edge">
<title>questions.csv_ContributionTable:w&#45;&gt;questions.csv:e</title>
<path fill="none" stroke="#000000" d="M606.8969,-558.7647C410.8319,-560.4838 316.1909,-594.7695 169,-457.7 122.4876,-414.386 191.5571,-320.7 128,-320.7"/>
<polygon fill="#000000" stroke="#000000" points="613.5001,-558.7355 621.516,-562.3 617.5,-558.7178 621.5,-558.7 621.5,-558.7 621.5,-558.7 617.5,-558.7178 621.484,-555.1 613.5001,-558.7355 613.5001,-558.7355"/>
<ellipse fill="none" stroke="#000000" cx="610.3001" cy="-558.7497" rx="3.2" ry="3.2"/>
</g>
<!-- questions.csv_ContributionTable&#45;&gt;ContributionTable -->
<g id="edge10" class="edge">
<title>questions.csv_ContributionTable:w&#45;&gt;ContributionTable:e</title>
<path fill="none" stroke="#000000" d="M607.4016,-533.02C580.9203,-515.9953 604.4709,-445.7 562,-445.7"/>
<polygon fill="#000000" stroke="#000000" points="613.7594,-534.6795 620.5908,-540.1833 617.6297,-535.6897 621.5,-536.7 621.5,-536.7 621.5,-536.7 617.6297,-535.6897 622.4092,-533.2167 613.7594,-534.6795 613.7594,-534.6795"/>
<ellipse fill="none" stroke="#000000" cx="610.6631" cy="-533.8712" rx="3.2" ry="3.2"/>
</g>
</g>
</svg>

