<?xml version="1.0" encoding="UTF-8" standalone="no"?>
<!DOCTYPE svg PUBLIC "-//W3C//DTD SVG 1.1//EN"
 "http://www.w3.org/Graphics/SVG/1.1/DTD/svg11.dtd">
<!-- Generated by graphviz version 2.40.1 (20161225.0304)
 -->
<!-- Title: compactRelationshipsDiagram Pages: 1 -->
<svg width="1196pt" height="605pt"
 viewBox="0.00 0.00 1196.00 605.20" xmlns="http://www.w3.org/2000/svg" xmlns:xlink="http://www.w3.org/1999/xlink">
<g id="graph0" class="graph" transform="scale(1 1) rotate(0) translate(4 601.2)">
<title>compactRelationshipsDiagram</title>
<polygon fill="#ffffff" stroke="transparent" points="-4,4 -4,-601.2 1192,-601.2 1192,4 -4,4"/>
<text text-anchor="middle" x="72.4936" y="-7.3" font-family="Helvetica,sans-Serif" font-size="11.00" fill="#000000">Generated by SchemaSpy</text>
<!-- CodeTable -->
<g id="node1" class="node">
<title>CodeTable</title>
<g id="a_node1"><a xlink:href="../../tables/CodeTable.html" xlink:title="CodeTable" target="_top">
<polygon fill="#ffffff" stroke="transparent" points="400,-388.2 400,-493.2 591,-493.2 591,-388.2 400,-388.2"/>
<polygon fill="#f5f5f5" stroke="transparent" points="400.5,-469.7 400.5,-492.7 591.5,-492.7 591.5,-469.7 400.5,-469.7"/>
<polygon fill="none" stroke="#000000" points="400.5,-469.7 400.5,-492.7 591.5,-492.7 591.5,-469.7 400.5,-469.7"/>
<text text-anchor="start" x="405.5" y="-478.8" font-family="Helvetica,sans-Serif" font-weight="bold" font-size="11.00" fill="#000000">CodeTable</text>
<text text-anchor="start" x="556.5437" y="-477.8" font-family="Helvetica,sans-Serif" font-size="11.00" fill="#000000">[table]</text>
<polygon fill="none" stroke="#000000" points="400.5,-447.7 400.5,-469.7 591.5,-469.7 591.5,-447.7 400.5,-447.7"/>
<image xlink:href="../../images/primaryKeys.png" width="11px" height="12px" preserveAspectRatio="xMinYMin meet" x="405.5" y="-464.7"/>
<text text-anchor="start" x="420.5" y="-454.8" font-family="Helvetica,sans-Serif" font-size="11.00" fill="#000000">cldf_id</text>
<polygon fill="none" stroke="#000000" points="400.5,-425.7 400.5,-447.7 591.5,-447.7 591.5,-425.7 400.5,-425.7"/>
<image xlink:href="../../images/foreignKeys.png" width="11px" height="12px" preserveAspectRatio="xMinYMin meet" x="405.5" y="-442.7"/>
<text text-anchor="start" x="420.5" y="-432.8" font-family="Helvetica,sans-Serif" font-size="11.00" fill="#000000">cldf_parameterReference</text>
<polygon fill="none" stroke="#000000" points="400.5,-406.7 400.5,-425.7 591.5,-425.7 591.5,-406.7 400.5,-406.7"/>
<text text-anchor="start" x="403.5" y="-412.8" font-family="Helvetica,sans-Serif" font-size="11.00" fill="#000000">...</text>
<polygon fill="#ffffff" stroke="transparent" points="400.5,-387.7 400.5,-406.7 466.5,-406.7 466.5,-387.7 400.5,-387.7"/>
<polygon fill="none" stroke="#000000" points="400.5,-387.7 400.5,-406.7 466.5,-406.7 466.5,-387.7 400.5,-387.7"/>
<text text-anchor="start" x="403.5" y="-393.8" font-family="Helvetica,sans-Serif" font-size="11.00" fill="#000000">&lt; 1</text>
<polygon fill="#ffffff" stroke="transparent" points="466.5,-387.7 466.5,-406.7 547.5,-406.7 547.5,-387.7 466.5,-387.7"/>
<polygon fill="none" stroke="#000000" points="466.5,-387.7 466.5,-406.7 547.5,-406.7 547.5,-387.7 466.5,-387.7"/>
<text text-anchor="start" x="490.7089" y="-393.8" font-family="Helvetica,sans-Serif" font-size="11.00" fill="#000000">1,529 rows</text>
<polygon fill="#ffffff" stroke="transparent" points="547.5,-387.7 547.5,-406.7 591.5,-406.7 591.5,-387.7 547.5,-387.7"/>
<polygon fill="none" stroke="#000000" points="547.5,-387.7 547.5,-406.7 591.5,-406.7 591.5,-387.7 547.5,-387.7"/>
<text text-anchor="start" x="572.9053" y="-393.8" font-family="Helvetica,sans-Serif" font-size="11.00" fill="#000000">1 &gt;</text>
</a>
</g>
</g>
<!-- ParameterTable -->
<g id="node8" class="node">
<title>ParameterTable</title>
<g id="a_node8"><a xlink:href="../../tables/ParameterTable.html" xlink:title="ParameterTable" target="_top">
<polygon fill="#ffffff" stroke="transparent" points="170,-388.2 170,-493.2 351,-493.2 351,-388.2 170,-388.2"/>
<polygon fill="#f5f5f5" stroke="transparent" points="170.5,-469.7 170.5,-492.7 351.5,-492.7 351.5,-469.7 170.5,-469.7"/>
<polygon fill="none" stroke="#000000" points="170.5,-469.7 170.5,-492.7 351.5,-492.7 351.5,-469.7 170.5,-469.7"/>
<text text-anchor="start" x="175.5" y="-478.8" font-family="Helvetica,sans-Serif" font-weight="bold" font-size="11.00" fill="#000000">ParameterTable</text>
<text text-anchor="start" x="316.5437" y="-477.8" font-family="Helvetica,sans-Serif" font-size="11.00" fill="#000000">[table]</text>
<polygon fill="none" stroke="#000000" points="170.5,-447.7 170.5,-469.7 351.5,-469.7 351.5,-447.7 170.5,-447.7"/>
<image xlink:href="../../images/primaryKeys.png" width="11px" height="12px" preserveAspectRatio="xMinYMin meet" x="175.5" y="-464.7"/>
<text text-anchor="start" x="190.5" y="-454.8" font-family="Helvetica,sans-Serif" font-size="11.00" fill="#000000">cldf_id</text>
<polygon fill="none" stroke="#000000" points="170.5,-425.7 170.5,-447.7 351.5,-447.7 351.5,-425.7 170.5,-425.7"/>
<image xlink:href="../../images/foreignKeys.png" width="11px" height="12px" preserveAspectRatio="xMinYMin meet" x="175.5" y="-442.7"/>
<text text-anchor="start" x="190.5" y="-432.8" font-family="Helvetica,sans-Serif" font-size="11.00" fill="#000000">Question_ID</text>
<polygon fill="none" stroke="#000000" points="170.5,-406.7 170.5,-425.7 351.5,-425.7 351.5,-406.7 170.5,-406.7"/>
<text text-anchor="start" x="173.5" y="-412.8" font-family="Helvetica,sans-Serif" font-size="11.00" fill="#000000">...</text>
<polygon fill="#ffffff" stroke="transparent" points="170.5,-387.7 170.5,-406.7 235.5,-406.7 235.5,-387.7 170.5,-387.7"/>
<polygon fill="none" stroke="#000000" points="170.5,-387.7 170.5,-406.7 235.5,-406.7 235.5,-387.7 170.5,-387.7"/>
<text text-anchor="start" x="173.5" y="-393.8" font-family="Helvetica,sans-Serif" font-size="11.00" fill="#000000">&lt; 1</text>
<polygon fill="#ffffff" stroke="transparent" points="235.5,-387.7 235.5,-406.7 307.5,-406.7 307.5,-387.7 235.5,-387.7"/>
<polygon fill="none" stroke="#000000" points="235.5,-387.7 235.5,-406.7 307.5,-406.7 307.5,-387.7 235.5,-387.7"/>
<text text-anchor="start" x="259.8807" y="-393.8" font-family="Helvetica,sans-Serif" font-size="11.00" fill="#000000">394 rows</text>
<polygon fill="#ffffff" stroke="transparent" points="307.5,-387.7 307.5,-406.7 351.5,-406.7 351.5,-387.7 307.5,-387.7"/>
<polygon fill="none" stroke="#000000" points="307.5,-387.7 307.5,-406.7 351.5,-406.7 351.5,-387.7 307.5,-387.7"/>
<text text-anchor="start" x="332.9053" y="-393.8" font-family="Helvetica,sans-Serif" font-size="11.00" fill="#000000">2 &gt;</text>
</a>
</g>
</g>
<!-- CodeTable&#45;&gt;ParameterTable -->
<g id="edge1" class="edge">
<title>CodeTable:w&#45;&gt;ParameterTable:e</title>
<path fill="none" stroke="#000000" d="M386.1297,-440.1375C374.5865,-446.325 369.4041,-458.7 351.5,-458.7"/>
<polygon fill="#000000" stroke="#000000" points="392.7195,-438.5612 401.3375,-440.2012 396.6098,-437.6306 400.5,-436.7 400.5,-436.7 400.5,-436.7 396.6098,-437.6306 399.6625,-433.1988 392.7195,-438.5612 392.7195,-438.5612"/>
<ellipse fill="none" stroke="#000000" cx="389.6073" cy="-439.3057" rx="3.2" ry="3.2"/>
</g>
<!-- ContributionTable -->
<g id="node2" class="node">
<title>ContributionTable</title>
<g id="a_node2"><a xlink:href="../../tables/ContributionTable.html" xlink:title="ContributionTable" target="_top">
<polygon fill="#ffffff" stroke="transparent" points="403.5,-190.2 403.5,-339.2 587.5,-339.2 587.5,-190.2 403.5,-190.2"/>
<polygon fill="#f5f5f5" stroke="transparent" points="403.5,-315.7 403.5,-338.7 587.5,-338.7 587.5,-315.7 403.5,-315.7"/>
<polygon fill="none" stroke="#000000" points="403.5,-315.7 403.5,-338.7 587.5,-338.7 587.5,-315.7 403.5,-315.7"/>
<text text-anchor="start" x="408.5" y="-324.8" font-family="Helvetica,sans-Serif" font-weight="bold" font-size="11.00" fill="#000000">ContributionTable</text>
<text text-anchor="start" x="552.5437" y="-323.8" font-family="Helvetica,sans-Serif" font-size="11.00" fill="#000000">[table]</text>
<polygon fill="none" stroke="#000000" points="403.5,-293.7 403.5,-315.7 587.5,-315.7 587.5,-293.7 403.5,-293.7"/>
<image xlink:href="../../images/primaryKeys.png" width="11px" height="12px" preserveAspectRatio="xMinYMin meet" x="408.5" y="-310.7"/>
<text text-anchor="start" x="423.5" y="-300.8" font-family="Helvetica,sans-Serif" font-size="11.00" fill="#000000">cldf_id</text>
<polygon fill="none" stroke="#000000" points="403.5,-271.7 403.5,-293.7 587.5,-293.7 587.5,-271.7 403.5,-271.7"/>
<image xlink:href="../../images/foreignKeys.png" width="11px" height="12px" preserveAspectRatio="xMinYMin meet" x="408.5" y="-288.7"/>
<text text-anchor="start" x="423.5" y="-278.8" font-family="Helvetica,sans-Serif" font-size="11.00" fill="#000000">cldf_languageReference</text>
<polygon fill="none" stroke="#000000" points="403.5,-249.7 403.5,-271.7 587.5,-271.7 587.5,-249.7 403.5,-249.7"/>
<image xlink:href="../../images/foreignKeys.png" width="11px" height="12px" preserveAspectRatio="xMinYMin meet" x="408.5" y="-266.7"/>
<text text-anchor="start" x="423.5" y="-256.8" font-family="Helvetica,sans-Serif" font-size="11.00" fill="#000000">Neighbour_Language_ID</text>
<polygon fill="none" stroke="#000000" points="403.5,-227.7 403.5,-249.7 587.5,-249.7 587.5,-227.7 403.5,-227.7"/>
<image xlink:href="../../images/foreignKeys.png" width="11px" height="12px" preserveAspectRatio="xMinYMin meet" x="408.5" y="-244.7"/>
<text text-anchor="start" x="423.5" y="-234.8" font-family="Helvetica,sans-Serif" font-size="11.00" fill="#000000">cldf_mediaReference</text>
<polygon fill="none" stroke="#000000" points="403.5,-208.7 403.5,-227.7 587.5,-227.7 587.5,-208.7 403.5,-208.7"/>
<text text-anchor="start" x="406.5" y="-214.8" font-family="Helvetica,sans-Serif" font-size="11.00" fill="#000000">...</text>
<polygon fill="#ffffff" stroke="transparent" points="403.5,-189.7 403.5,-208.7 470.5,-208.7 470.5,-189.7 403.5,-189.7"/>
<polygon fill="none" stroke="#000000" points="403.5,-189.7 403.5,-208.7 470.5,-208.7 470.5,-189.7 403.5,-189.7"/>
<text text-anchor="start" x="406.5" y="-195.8" font-family="Helvetica,sans-Serif" font-size="11.00" fill="#000000">&lt; 3</text>
<polygon fill="#ffffff" stroke="transparent" points="470.5,-189.7 470.5,-208.7 543.5,-208.7 543.5,-189.7 470.5,-189.7"/>
<polygon fill="none" stroke="#000000" points="470.5,-189.7 470.5,-208.7 543.5,-208.7 543.5,-189.7 470.5,-189.7"/>
<text text-anchor="start" x="495.8807" y="-195.8" font-family="Helvetica,sans-Serif" font-size="11.00" fill="#000000">124 rows</text>
<polygon fill="#ffffff" stroke="transparent" points="543.5,-189.7 543.5,-208.7 587.5,-208.7 587.5,-189.7 543.5,-189.7"/>
<polygon fill="none" stroke="#000000" points="543.5,-189.7 543.5,-208.7 587.5,-208.7 587.5,-189.7 543.5,-189.7"/>
<text text-anchor="start" x="568.9053" y="-195.8" font-family="Helvetica,sans-Serif" font-size="11.00" fill="#000000">4 &gt;</text>
</a>
</g>
</g>
<!-- LanguageTable -->
<g id="node6" class="node">
<title>LanguageTable</title>
<g id="a_node6"><a xlink:href="../../tables/LanguageTable.html" xlink:title="LanguageTable" target="_top">
<polygon fill="#ffffff" stroke="transparent" points="188,-245.2 188,-328.2 333,-328.2 333,-245.2 188,-245.2"/>
<polygon fill="#f5f5f5" stroke="transparent" points="188.5,-304.7 188.5,-327.7 333.5,-327.7 333.5,-304.7 188.5,-304.7"/>
<polygon fill="none" stroke="#000000" points="188.5,-304.7 188.5,-327.7 333.5,-327.7 333.5,-304.7 188.5,-304.7"/>
<text text-anchor="start" x="193.5" y="-313.8" font-family="Helvetica,sans-Serif" font-weight="bold" font-size="11.00" fill="#000000">LanguageTable</text>
<text text-anchor="start" x="298.5437" y="-312.8" font-family="Helvetica,sans-Serif" font-size="11.00" fill="#000000">[table]</text>
<polygon fill="none" stroke="#000000" points="188.5,-282.7 188.5,-304.7 333.5,-304.7 333.5,-282.7 188.5,-282.7"/>
<image xlink:href="../../images/primaryKeys.png" width="11px" height="12px" preserveAspectRatio="xMinYMin meet" x="193.5" y="-299.7"/>
<text text-anchor="start" x="208.5" y="-289.8" font-family="Helvetica,sans-Serif" font-size="11.00" fill="#000000">cldf_id</text>
<polygon fill="none" stroke="#000000" points="188.5,-263.7 188.5,-282.7 333.5,-282.7 333.5,-263.7 188.5,-263.7"/>
<text text-anchor="start" x="191.5" y="-269.8" font-family="Helvetica,sans-Serif" font-size="11.00" fill="#000000">...</text>
<polygon fill="#ffffff" stroke="transparent" points="188.5,-244.7 188.5,-263.7 234.5,-263.7 234.5,-244.7 188.5,-244.7"/>
<polygon fill="none" stroke="#000000" points="188.5,-244.7 188.5,-263.7 234.5,-263.7 234.5,-244.7 188.5,-244.7"/>
<text text-anchor="start" x="191.5" y="-250.8" font-family="Helvetica,sans-Serif" font-size="11.00" fill="#000000"> &#160;</text>
<polygon fill="#ffffff" stroke="transparent" points="234.5,-244.7 234.5,-263.7 295.5,-263.7 295.5,-244.7 234.5,-244.7"/>
<polygon fill="none" stroke="#000000" points="234.5,-244.7 234.5,-263.7 295.5,-263.7 295.5,-244.7 234.5,-244.7"/>
<text text-anchor="start" x="253.9956" y="-250.8" font-family="Helvetica,sans-Serif" font-size="11.00" fill="#000000">68 rows</text>
<polygon fill="#ffffff" stroke="transparent" points="295.5,-244.7 295.5,-263.7 333.5,-263.7 333.5,-244.7 295.5,-244.7"/>
<polygon fill="none" stroke="#000000" points="295.5,-244.7 295.5,-263.7 333.5,-263.7 333.5,-244.7 295.5,-244.7"/>
<text text-anchor="start" x="314.9053" y="-250.8" font-family="Helvetica,sans-Serif" font-size="11.00" fill="#000000">3 &gt;</text>
</a>
</g>
</g>
<!-- ContributionTable&#45;&gt;LanguageTable -->
<g id="edge2" class="edge">
<title>ContributionTable:w&#45;&gt;LanguageTable:e</title>
<path fill="none" stroke="#000000" d="M388.8956,-283.6002C368.7848,-286.2273 359.457,-293.7 333.5,-293.7"/>
<polygon fill="#000000" stroke="#000000" points="395.5152,-283.1922 403.7215,-286.2932 399.5076,-282.9461 403.5,-282.7 403.5,-282.7 403.5,-282.7 399.5076,-282.9461 403.2785,-279.1068 395.5152,-283.1922 395.5152,-283.1922"/>
<ellipse fill="none" stroke="#000000" cx="392.3212" cy="-283.3891" rx="3.2" ry="3.2"/>
</g>
<!-- ContributionTable&#45;&gt;LanguageTable -->
<g id="edge4" class="edge">
<title>ContributionTable:w&#45;&gt;LanguageTable:e</title>
<path fill="none" stroke="#000000" d="M389.2552,-262.9682C367.8662,-270.4239 362.3864,-293.7 333.5,-293.7"/>
<polygon fill="#000000" stroke="#000000" points="395.5995,-261.9581 404.0661,-264.2552 399.5498,-261.329 403.5,-260.7 403.5,-260.7 403.5,-260.7 399.5498,-261.329 402.9339,-257.1448 395.5995,-261.9581 395.5995,-261.9581"/>
<ellipse fill="none" stroke="#000000" cx="392.4393" cy="-262.4613" rx="3.2" ry="3.2"/>
</g>
<!-- MediaTable -->
<g id="node7" class="node">
<title>MediaTable</title>
<g id="a_node7"><a xlink:href="../../tables/MediaTable.html" xlink:title="MediaTable" target="_top">
<polygon fill="#ffffff" stroke="transparent" points="192,-141.2 192,-224.2 329,-224.2 329,-141.2 192,-141.2"/>
<polygon fill="#f5f5f5" stroke="transparent" points="192.5,-200.7 192.5,-223.7 329.5,-223.7 329.5,-200.7 192.5,-200.7"/>
<polygon fill="none" stroke="#000000" points="192.5,-200.7 192.5,-223.7 329.5,-223.7 329.5,-200.7 192.5,-200.7"/>
<text text-anchor="start" x="197.5" y="-209.8" font-family="Helvetica,sans-Serif" font-weight="bold" font-size="11.00" fill="#000000">MediaTable</text>
<text text-anchor="start" x="294.5437" y="-208.8" font-family="Helvetica,sans-Serif" font-size="11.00" fill="#000000">[table]</text>
<polygon fill="none" stroke="#000000" points="192.5,-178.7 192.5,-200.7 329.5,-200.7 329.5,-178.7 192.5,-178.7"/>
<image xlink:href="../../images/primaryKeys.png" width="11px" height="12px" preserveAspectRatio="xMinYMin meet" x="197.5" y="-195.7"/>
<text text-anchor="start" x="212.5" y="-185.8" font-family="Helvetica,sans-Serif" font-size="11.00" fill="#000000">cldf_id</text>
<polygon fill="none" stroke="#000000" points="192.5,-159.7 192.5,-178.7 329.5,-178.7 329.5,-159.7 192.5,-159.7"/>
<text text-anchor="start" x="195.5" y="-165.8" font-family="Helvetica,sans-Serif" font-size="11.00" fill="#000000">...</text>
<polygon fill="#ffffff" stroke="transparent" points="192.5,-140.7 192.5,-159.7 234.5,-159.7 234.5,-140.7 192.5,-140.7"/>
<polygon fill="none" stroke="#000000" points="192.5,-140.7 192.5,-159.7 234.5,-159.7 234.5,-140.7 192.5,-140.7"/>
<text text-anchor="start" x="195.5" y="-146.8" font-family="Helvetica,sans-Serif" font-size="11.00" fill="#000000"> &#160;</text>
<polygon fill="#ffffff" stroke="transparent" points="234.5,-140.7 234.5,-159.7 293.5,-159.7 293.5,-140.7 234.5,-140.7"/>
<polygon fill="none" stroke="#000000" points="234.5,-140.7 234.5,-159.7 293.5,-159.7 293.5,-140.7 234.5,-140.7"/>
<text text-anchor="start" x="251.9956" y="-146.8" font-family="Helvetica,sans-Serif" font-size="11.00" fill="#000000">90 rows</text>
<polygon fill="#ffffff" stroke="transparent" points="293.5,-140.7 293.5,-159.7 329.5,-159.7 329.5,-140.7 293.5,-140.7"/>
<polygon fill="none" stroke="#000000" points="293.5,-140.7 293.5,-159.7 329.5,-159.7 329.5,-140.7 293.5,-140.7"/>
<text text-anchor="start" x="310.9053" y="-146.8" font-family="Helvetica,sans-Serif" font-size="11.00" fill="#000000">1 &gt;</text>
</a>
</g>
</g>
<!-- ContributionTable&#45;&gt;MediaTable -->
<g id="edge3" class="edge">
<title>ContributionTable:w&#45;&gt;MediaTable:e</title>
<path fill="none" stroke="#000000" d="M389.2426,-236.0655C364.5533,-225.8877 363.3985,-189.7 329.5,-189.7"/>
<polygon fill="#000000" stroke="#000000" points="395.6332,-237.2463 402.8459,-242.2401 399.5666,-237.9732 403.5,-238.7 403.5,-238.7 403.5,-238.7 399.5666,-237.9732 404.1541,-235.1599 395.6332,-237.2463 395.6332,-237.2463"/>
<ellipse fill="none" stroke="#000000" cx="392.4864" cy="-236.6649" rx="3.2" ry="3.2"/>
</g>
<!-- ContributionTable_contributors.csv -->
<g id="node3" class="node">
<title>ContributionTable_contributors.csv</title>
<g id="a_node3"><a xlink:href="../../tables/ContributionTable_contributors.csv.html" xlink:title="ContributionTable_contributors.csv" target="_top">
<polygon fill="#ffffff" stroke="transparent" points="640,-38.2 640,-143.2 899,-143.2 899,-38.2 640,-38.2"/>
<polygon fill="#f5f5f5" stroke="transparent" points="640.5,-119.7 640.5,-142.7 899.5,-142.7 899.5,-119.7 640.5,-119.7"/>
<polygon fill="none" stroke="#000000" points="640.5,-119.7 640.5,-142.7 899.5,-142.7 899.5,-119.7 640.5,-119.7"/>
<text text-anchor="start" x="645.5" y="-128.8" font-family="Helvetica,sans-Serif" font-weight="bold" font-size="11.00" fill="#000000">ContributionTable_contributors.csv</text>
<text text-anchor="start" x="864.5437" y="-127.8" font-family="Helvetica,sans-Serif" font-size="11.00" fill="#000000">[table]</text>
<polygon fill="none" stroke="#000000" points="640.5,-97.7 640.5,-119.7 899.5,-119.7 899.5,-97.7 640.5,-97.7"/>
<image xlink:href="../../images/foreignKeys.png" width="11px" height="12px" preserveAspectRatio="xMinYMin meet" x="645.5" y="-114.7"/>
<text text-anchor="start" x="660.5" y="-104.8" font-family="Helvetica,sans-Serif" font-size="11.00" fill="#000000">ContributionTable_cldf_id</text>
<polygon fill="none" stroke="#000000" points="640.5,-75.7 640.5,-97.7 899.5,-97.7 899.5,-75.7 640.5,-75.7"/>
<image xlink:href="../../images/foreignKeys.png" width="11px" height="12px" preserveAspectRatio="xMinYMin meet" x="645.5" y="-92.7"/>
<text text-anchor="start" x="660.5" y="-82.8" font-family="Helvetica,sans-Serif" font-size="11.00" fill="#000000">contributors.csv_cldf_id</text>
<polygon fill="none" stroke="#000000" points="640.5,-56.7 640.5,-75.7 899.5,-75.7 899.5,-56.7 640.5,-56.7"/>
<text text-anchor="start" x="643.5" y="-62.8" font-family="Helvetica,sans-Serif" font-size="11.00" fill="#000000">...</text>
<polygon fill="#ffffff" stroke="transparent" points="640.5,-37.7 640.5,-56.7 749.5,-56.7 749.5,-37.7 640.5,-37.7"/>
<polygon fill="none" stroke="#000000" points="640.5,-37.7 640.5,-56.7 749.5,-56.7 749.5,-37.7 640.5,-37.7"/>
<text text-anchor="start" x="643.5" y="-43.8" font-family="Helvetica,sans-Serif" font-size="11.00" fill="#000000">&lt; 2</text>
<polygon fill="#ffffff" stroke="transparent" points="749.5,-37.7 749.5,-56.7 843.5,-56.7 843.5,-37.7 749.5,-37.7"/>
<polygon fill="none" stroke="#000000" points="749.5,-37.7 749.5,-56.7 843.5,-56.7 843.5,-37.7 749.5,-37.7"/>
<text text-anchor="start" x="795.8807" y="-43.8" font-family="Helvetica,sans-Serif" font-size="11.00" fill="#000000">224 rows</text>
<polygon fill="#ffffff" stroke="transparent" points="843.5,-37.7 843.5,-56.7 899.5,-56.7 899.5,-37.7 843.5,-37.7"/>
<polygon fill="none" stroke="#000000" points="843.5,-37.7 843.5,-56.7 899.5,-56.7 899.5,-37.7 843.5,-37.7"/>
<text text-anchor="start" x="890.3862" y="-43.8" font-family="Helvetica,sans-Serif" font-size="11.00" fill="#000000"> &#160;</text>
</a>
</g>
</g>
<!-- ContributionTable_contributors.csv&#45;&gt;ContributionTable -->
<g id="edge5" class="edge">
<title>ContributionTable_contributors.csv:w&#45;&gt;ContributionTable:e</title>
<path fill="none" stroke="#000000" d="M626.0251,-110.9012C565.3447,-132.4344 672.0998,-304.7 587.5,-304.7"/>
<polygon fill="#000000" stroke="#000000" points="632.5909,-109.9028 641.0412,-112.2591 636.5455,-109.3014 640.5,-108.7 640.5,-108.7 640.5,-108.7 636.5455,-109.3014 639.9588,-105.1409 632.5909,-109.9028 632.5909,-109.9028"/>
<ellipse fill="none" stroke="#000000" cx="629.4273" cy="-110.3839" rx="3.2" ry="3.2"/>
</g>
<!-- contributors.csv -->
<g id="node5" class="node">
<title>contributors.csv</title>
<g id="a_node5"><a xlink:href="../../tables/contributors.csv.html" xlink:title="contributors.csv" target="_top">
<polygon fill="#ffffff" stroke="transparent" points="430,-38.2 430,-121.2 561,-121.2 561,-38.2 430,-38.2"/>
<polygon fill="#f5f5f5" stroke="transparent" points="430.5,-97.7 430.5,-120.7 561.5,-120.7 561.5,-97.7 430.5,-97.7"/>
<polygon fill="none" stroke="#000000" points="430.5,-97.7 430.5,-120.7 561.5,-120.7 561.5,-97.7 430.5,-97.7"/>
<text text-anchor="start" x="435.5" y="-106.8" font-family="Helvetica,sans-Serif" font-weight="bold" font-size="11.00" fill="#000000">contributors.csv</text>
<text text-anchor="start" x="526.5437" y="-105.8" font-family="Helvetica,sans-Serif" font-size="11.00" fill="#000000">[table]</text>
<polygon fill="none" stroke="#000000" points="430.5,-75.7 430.5,-97.7 561.5,-97.7 561.5,-75.7 430.5,-75.7"/>
<image xlink:href="../../images/primaryKeys.png" width="11px" height="12px" preserveAspectRatio="xMinYMin meet" x="435.5" y="-92.7"/>
<text text-anchor="start" x="450.5" y="-82.8" font-family="Helvetica,sans-Serif" font-size="11.00" fill="#000000">cldf_id</text>
<polygon fill="none" stroke="#000000" points="430.5,-56.7 430.5,-75.7 561.5,-75.7 561.5,-56.7 430.5,-56.7"/>
<text text-anchor="start" x="433.5" y="-62.8" font-family="Helvetica,sans-Serif" font-size="11.00" fill="#000000">...</text>
<polygon fill="#ffffff" stroke="transparent" points="430.5,-37.7 430.5,-56.7 469.5,-56.7 469.5,-37.7 430.5,-37.7"/>
<polygon fill="none" stroke="#000000" points="430.5,-37.7 430.5,-56.7 469.5,-56.7 469.5,-37.7 430.5,-37.7"/>
<text text-anchor="start" x="433.5" y="-43.8" font-family="Helvetica,sans-Serif" font-size="11.00" fill="#000000"> &#160;</text>
<polygon fill="#ffffff" stroke="transparent" points="469.5,-37.7 469.5,-56.7 526.5,-56.7 526.5,-37.7 469.5,-37.7"/>
<polygon fill="none" stroke="#000000" points="469.5,-37.7 469.5,-56.7 526.5,-56.7 526.5,-37.7 469.5,-37.7"/>
<text text-anchor="start" x="484.9956" y="-43.8" font-family="Helvetica,sans-Serif" font-size="11.00" fill="#000000">48 rows</text>
<polygon fill="#ffffff" stroke="transparent" points="526.5,-37.7 526.5,-56.7 561.5,-56.7 561.5,-37.7 526.5,-37.7"/>
<polygon fill="none" stroke="#000000" points="526.5,-37.7 526.5,-56.7 561.5,-56.7 561.5,-37.7 526.5,-37.7"/>
<text text-anchor="start" x="542.9053" y="-43.8" font-family="Helvetica,sans-Serif" font-size="11.00" fill="#000000">1 &gt;</text>
</a>
</g>
</g>
<!-- ContributionTable_contributors.csv&#45;&gt;contributors.csv -->
<g id="edge6" class="edge">
<title>ContributionTable_contributors.csv:w&#45;&gt;contributors.csv:e</title>
<path fill="none" stroke="#000000" d="M625.7695,-86.7C602.0029,-86.7 591.125,-86.7 561.5,-86.7"/>
<polygon fill="#000000" stroke="#000000" points="632.5,-86.7001 640.5,-90.3 636.5,-86.7 640.5,-86.7 640.5,-86.7 640.5,-86.7 636.5,-86.7 640.5,-83.1 632.5,-86.7001 632.5,-86.7001"/>
<ellipse fill="none" stroke="#000000" cx="629.3" cy="-86.7001" rx="3.2" ry="3.2"/>
</g>
<!-- ContributionTable_SourceTable -->
<g id="node4" class="node">
<title>ContributionTable_SourceTable</title>
<g id="a_node4"><a xlink:href="../../tables/ContributionTable_SourceTable.html" xlink:title="ContributionTable_SourceTable" target="_top">
<polygon fill="#ffffff" stroke="transparent" points="948,-144.2 948,-249.2 1180,-249.2 1180,-144.2 948,-144.2"/>
<polygon fill="#f5f5f5" stroke="transparent" points="948,-225.7 948,-248.7 1180,-248.7 1180,-225.7 948,-225.7"/>
<polygon fill="none" stroke="#000000" points="948,-225.7 948,-248.7 1180,-248.7 1180,-225.7 948,-225.7"/>
<text text-anchor="start" x="953" y="-234.8" font-family="Helvetica,sans-Serif" font-weight="bold" font-size="11.00" fill="#000000">ContributionTable_SourceTable</text>
<text text-anchor="start" x="1145.0437" y="-233.8" font-family="Helvetica,sans-Serif" font-size="11.00" fill="#000000">[table]</text>
<polygon fill="none" stroke="#000000" points="948,-203.7 948,-225.7 1180,-225.7 1180,-203.7 948,-203.7"/>
<image xlink:href="../../images/foreignKeys.png" width="11px" height="12px" preserveAspectRatio="xMinYMin meet" x="953" y="-220.7"/>
<text text-anchor="start" x="968" y="-210.8" font-family="Helvetica,sans-Serif" font-size="11.00" fill="#000000">ContributionTable_cldf_id</text>
<polygon fill="none" stroke="#000000" points="948,-181.7 948,-203.7 1180,-203.7 1180,-181.7 948,-181.7"/>
<image xlink:href="../../images/foreignKeys.png" width="11px" height="12px" preserveAspectRatio="xMinYMin meet" x="953" y="-198.7"/>
<text text-anchor="start" x="968" y="-188.8" font-family="Helvetica,sans-Serif" font-size="11.00" fill="#000000">SourceTable_id</text>
<polygon fill="none" stroke="#000000" points="948,-162.7 948,-181.7 1180,-181.7 1180,-162.7 948,-162.7"/>
<text text-anchor="start" x="951" y="-168.8" font-family="Helvetica,sans-Serif" font-size="11.00" fill="#000000">...</text>
<polygon fill="#ffffff" stroke="transparent" points="948,-143.7 948,-162.7 1043,-162.7 1043,-143.7 948,-143.7"/>
<polygon fill="none" stroke="#000000" points="948,-143.7 948,-162.7 1043,-162.7 1043,-143.7 948,-143.7"/>
<text text-anchor="start" x="951" y="-149.8" font-family="Helvetica,sans-Serif" font-size="11.00" fill="#000000">&lt; 2</text>
<polygon fill="#ffffff" stroke="transparent" points="1043,-143.7 1043,-162.7 1130,-162.7 1130,-143.7 1043,-143.7"/>
<polygon fill="none" stroke="#000000" points="1043,-143.7 1043,-162.7 1130,-162.7 1130,-143.7 1043,-143.7"/>
<text text-anchor="start" x="1082.3807" y="-149.8" font-family="Helvetica,sans-Serif" font-size="11.00" fill="#000000">576 rows</text>
<polygon fill="#ffffff" stroke="transparent" points="1130,-143.7 1130,-162.7 1180,-162.7 1180,-143.7 1130,-143.7"/>
<polygon fill="none" stroke="#000000" points="1130,-143.7 1130,-162.7 1180,-162.7 1180,-143.7 1130,-143.7"/>
<text text-anchor="start" x="1170.8862" y="-149.8" font-family="Helvetica,sans-Serif" font-size="11.00" fill="#000000"> &#160;</text>
</a>
</g>
</g>
<!-- ContributionTable_SourceTable&#45;&gt;ContributionTable -->
<g id="edge7" class="edge">
<title>ContributionTable_SourceTable:w&#45;&gt;ContributionTable:e</title>
<path fill="none" stroke="#000000" d="M934.235,-210.1605C925.1033,-202.5306 923.2013,-187.4101 907,-181.7 849.3639,-161.3863 682.0255,-146.5999 632,-181.7 584.4113,-215.0904 645.6344,-304.7 587.5,-304.7"/>
<polygon fill="#000000" stroke="#000000" points="940.4025,-212.1944 946.8725,-218.1189 944.2012,-213.4472 948,-214.7 948,-214.7 948,-214.7 944.2012,-213.4472 949.1275,-211.2811 940.4025,-212.1944 940.4025,-212.1944"/>
<ellipse fill="none" stroke="#000000" cx="937.3635" cy="-211.1922" rx="3.2" ry="3.2"/>
</g>
<!-- SourceTable -->
<g id="node11" class="node">
<title>SourceTable</title>
<g id="a_node11"><a xlink:href="../../tables/SourceTable.html" xlink:title="SourceTable" target="_top">
<polygon fill="#ffffff" stroke="transparent" points="712,-192.2 712,-275.2 827,-275.2 827,-192.2 712,-192.2"/>
<polygon fill="#f5f5f5" stroke="transparent" points="712.5,-251.7 712.5,-274.7 827.5,-274.7 827.5,-251.7 712.5,-251.7"/>
<polygon fill="none" stroke="#000000" points="712.5,-251.7 712.5,-274.7 827.5,-274.7 827.5,-251.7 712.5,-251.7"/>
<text text-anchor="start" x="717.5" y="-260.8" font-family="Helvetica,sans-Serif" font-weight="bold" font-size="11.00" fill="#000000">SourceTable</text>
<text text-anchor="start" x="792.5437" y="-259.8" font-family="Helvetica,sans-Serif" font-size="11.00" fill="#000000">[table]</text>
<polygon fill="none" stroke="#000000" points="712.5,-229.7 712.5,-251.7 827.5,-251.7 827.5,-229.7 712.5,-229.7"/>
<image xlink:href="../../images/primaryKeys.png" width="11px" height="12px" preserveAspectRatio="xMinYMin meet" x="717.5" y="-246.7"/>
<text text-anchor="start" x="732.5" y="-236.8" font-family="Helvetica,sans-Serif" font-size="11.00" fill="#000000">id</text>
<polygon fill="none" stroke="#000000" points="712.5,-210.7 712.5,-229.7 827.5,-229.7 827.5,-210.7 712.5,-210.7"/>
<text text-anchor="start" x="715.5" y="-216.8" font-family="Helvetica,sans-Serif" font-size="11.00" fill="#000000">...</text>
<polygon fill="#ffffff" stroke="transparent" points="712.5,-191.7 712.5,-210.7 740.5,-210.7 740.5,-191.7 712.5,-191.7"/>
<polygon fill="none" stroke="#000000" points="712.5,-191.7 712.5,-210.7 740.5,-210.7 740.5,-191.7 712.5,-191.7"/>
<text text-anchor="start" x="715.5" y="-197.8" font-family="Helvetica,sans-Serif" font-size="11.00" fill="#000000"> &#160;</text>
<polygon fill="#ffffff" stroke="transparent" points="740.5,-191.7 740.5,-210.7 798.5,-210.7 798.5,-191.7 740.5,-191.7"/>
<polygon fill="none" stroke="#000000" points="740.5,-191.7 740.5,-210.7 798.5,-210.7 798.5,-191.7 740.5,-191.7"/>
<text text-anchor="start" x="750.8807" y="-197.8" font-family="Helvetica,sans-Serif" font-size="11.00" fill="#000000">429 rows</text>
<polygon fill="#ffffff" stroke="transparent" points="798.5,-191.7 798.5,-210.7 827.5,-210.7 827.5,-191.7 798.5,-191.7"/>
<polygon fill="none" stroke="#000000" points="798.5,-191.7 798.5,-210.7 827.5,-210.7 827.5,-191.7 798.5,-191.7"/>
<text text-anchor="start" x="808.9053" y="-197.8" font-family="Helvetica,sans-Serif" font-size="11.00" fill="#000000">2 &gt;</text>
</a>
</g>
</g>
<!-- ContributionTable_SourceTable&#45;&gt;SourceTable -->
<g id="edge8" class="edge">
<title>ContributionTable_SourceTable:w&#45;&gt;SourceTable:e</title>
<path fill="none" stroke="#000000" d="M933.3689,-193.8392C888.9546,-201.108 879.8562,-240.7 827.5,-240.7"/>
<polygon fill="#000000" stroke="#000000" points="940.0241,-193.3211 948.2795,-196.2891 944.0121,-193.0105 948,-192.7 948,-192.7 948,-192.7 944.0121,-193.0105 947.7205,-189.1109 940.0241,-193.3211 940.0241,-193.3211"/>
<ellipse fill="none" stroke="#000000" cx="936.8338" cy="-193.5695" rx="3.2" ry="3.2"/>
</g>
<!-- questions.csv -->
<g id="node9" class="node">
<title>questions.csv</title>
<g id="a_node9"><a xlink:href="../../tables/questions.csv.html" xlink:title="questions.csv" target="_top">
<polygon fill="#ffffff" stroke="transparent" points="8,-351.2 8,-434.2 121,-434.2 121,-351.2 8,-351.2"/>
<polygon fill="#f5f5f5" stroke="transparent" points="8.5,-410.7 8.5,-433.7 121.5,-433.7 121.5,-410.7 8.5,-410.7"/>
<polygon fill="none" stroke="#000000" points="8.5,-410.7 8.5,-433.7 121.5,-433.7 121.5,-410.7 8.5,-410.7"/>
<text text-anchor="start" x="13.5" y="-419.8" font-family="Helvetica,sans-Serif" font-weight="bold" font-size="11.00" fill="#000000">questions.csv</text>
<text text-anchor="start" x="86.5437" y="-418.8" font-family="Helvetica,sans-Serif" font-size="11.00" fill="#000000">[table]</text>
<polygon fill="none" stroke="#000000" points="8.5,-388.7 8.5,-410.7 121.5,-410.7 121.5,-388.7 8.5,-388.7"/>
<image xlink:href="../../images/primaryKeys.png" width="11px" height="12px" preserveAspectRatio="xMinYMin meet" x="13.5" y="-405.7"/>
<text text-anchor="start" x="28.5" y="-395.8" font-family="Helvetica,sans-Serif" font-size="11.00" fill="#000000">cldf_id</text>
<polygon fill="none" stroke="#000000" points="8.5,-369.7 8.5,-388.7 121.5,-388.7 121.5,-369.7 8.5,-369.7"/>
<text text-anchor="start" x="11.5" y="-375.8" font-family="Helvetica,sans-Serif" font-size="11.00" fill="#000000">...</text>
<polygon fill="#ffffff" stroke="transparent" points="8.5,-350.7 8.5,-369.7 35.5,-369.7 35.5,-350.7 8.5,-350.7"/>
<polygon fill="none" stroke="#000000" points="8.5,-350.7 8.5,-369.7 35.5,-369.7 35.5,-350.7 8.5,-350.7"/>
<text text-anchor="start" x="11.5" y="-356.8" font-family="Helvetica,sans-Serif" font-size="11.00" fill="#000000"> &#160;</text>
<polygon fill="#ffffff" stroke="transparent" points="35.5,-350.7 35.5,-369.7 92.5,-369.7 92.5,-350.7 35.5,-350.7"/>
<polygon fill="none" stroke="#000000" points="35.5,-350.7 35.5,-369.7 92.5,-369.7 92.5,-350.7 35.5,-350.7"/>
<text text-anchor="start" x="44.8807" y="-356.8" font-family="Helvetica,sans-Serif" font-size="11.00" fill="#000000">265 rows</text>
<polygon fill="#ffffff" stroke="transparent" points="92.5,-350.7 92.5,-369.7 121.5,-369.7 121.5,-350.7 92.5,-350.7"/>
<polygon fill="none" stroke="#000000" points="92.5,-350.7 92.5,-369.7 121.5,-369.7 121.5,-350.7 92.5,-350.7"/>
<text text-anchor="start" x="102.9053" y="-356.8" font-family="Helvetica,sans-Serif" font-size="11.00" fill="#000000">2 &gt;</text>
</a>
</g>
</g>
<!-- ParameterTable&#45;&gt;questions.csv -->
<g id="edge9" class="edge">
<title>ParameterTable:w&#45;&gt;questions.csv:e</title>
<path fill="none" stroke="#000000" d="M156.6217,-432.1631C144.0786,-422.283 142.8196,-399.7 121.5,-399.7"/>
<polygon fill="#000000" stroke="#000000" points="162.896,-434.2142 169.3814,-440.1218 166.698,-435.4571 170.5,-436.7 170.5,-436.7 170.5,-436.7 166.698,-435.4571 171.6186,-433.2782 162.896,-434.2142 162.896,-434.2142"/>
<ellipse fill="none" stroke="#000000" cx="159.8544" cy="-433.2198" rx="3.2" ry="3.2"/>
</g>
<!-- questions.csv_ContributionTable -->
<g id="node10" class="node">
<title>questions.csv_ContributionTable</title>
<g id="a_node10"><a xlink:href="../../tables/questions.csv_ContributionTable.html" xlink:title="questions.csv_ContributionTable" target="_top">
<polygon fill="#ffffff" stroke="transparent" points="648.5,-296.2 648.5,-401.2 890.5,-401.2 890.5,-296.2 648.5,-296.2"/>
<polygon fill="#f5f5f5" stroke="transparent" points="648.5,-377.7 648.5,-400.7 890.5,-400.7 890.5,-377.7 648.5,-377.7"/>
<polygon fill="none" stroke="#000000" points="648.5,-377.7 648.5,-400.7 890.5,-400.7 890.5,-377.7 648.5,-377.7"/>
<text text-anchor="start" x="653.5" y="-386.8" font-family="Helvetica,sans-Serif" font-weight="bold" font-size="11.00" fill="#000000">questions.csv_ContributionTable</text>
<text text-anchor="start" x="855.5437" y="-385.8" font-family="Helvetica,sans-Serif" font-size="11.00" fill="#000000">[table]</text>
<polygon fill="none" stroke="#000000" points="648.5,-355.7 648.5,-377.7 890.5,-377.7 890.5,-355.7 648.5,-355.7"/>
<image xlink:href="../../images/foreignKeys.png" width="11px" height="12px" preserveAspectRatio="xMinYMin meet" x="653.5" y="-372.7"/>
<text text-anchor="start" x="668.5" y="-362.8" font-family="Helvetica,sans-Serif" font-size="11.00" fill="#000000">questions.csv_cldf_id</text>
<polygon fill="none" stroke="#000000" points="648.5,-333.7 648.5,-355.7 890.5,-355.7 890.5,-333.7 648.5,-333.7"/>
<image xlink:href="../../images/foreignKeys.png" width="11px" height="12px" preserveAspectRatio="xMinYMin meet" x="653.5" y="-350.7"/>
<text text-anchor="start" x="668.5" y="-340.8" font-family="Helvetica,sans-Serif" font-size="11.00" fill="#000000">ContributionTable_cldf_id</text>
<polygon fill="none" stroke="#000000" points="648.5,-314.7 648.5,-333.7 890.5,-333.7 890.5,-314.7 648.5,-314.7"/>
<text text-anchor="start" x="651.5" y="-320.8" font-family="Helvetica,sans-Serif" font-size="11.00" fill="#000000">...</text>
<polygon fill="#ffffff" stroke="transparent" points="648.5,-295.7 648.5,-314.7 748.5,-314.7 748.5,-295.7 648.5,-295.7"/>
<polygon fill="none" stroke="#000000" points="648.5,-295.7 648.5,-314.7 748.5,-314.7 748.5,-295.7 648.5,-295.7"/>
<text text-anchor="start" x="651.5" y="-301.8" font-family="Helvetica,sans-Serif" font-size="11.00" fill="#000000">&lt; 2</text>
<polygon fill="#ffffff" stroke="transparent" points="748.5,-295.7 748.5,-314.7 838.5,-314.7 838.5,-295.7 748.5,-295.7"/>
<polygon fill="none" stroke="#000000" points="748.5,-295.7 748.5,-314.7 838.5,-314.7 838.5,-295.7 748.5,-295.7"/>
<text text-anchor="start" x="790.8807" y="-301.8" font-family="Helvetica,sans-Serif" font-size="11.00" fill="#000000">515 rows</text>
<polygon fill="#ffffff" stroke="transparent" points="838.5,-295.7 838.5,-314.7 890.5,-314.7 890.5,-295.7 838.5,-295.7"/>
<polygon fill="none" stroke="#000000" points="838.5,-295.7 838.5,-314.7 890.5,-314.7 890.5,-295.7 838.5,-295.7"/>
<text text-anchor="start" x="881.3862" y="-301.8" font-family="Helvetica,sans-Serif" font-size="11.00" fill="#000000"> &#160;</text>
</a>
</g>
</g>
<!-- questions.csv_ContributionTable&#45;&gt;ContributionTable -->
<g id="edge10" class="edge">
<title>questions.csv_ContributionTable:w&#45;&gt;ContributionTable:e</title>
<path fill="none" stroke="#000000" d="M634.3708,-341.4266C616.3096,-331.8735 614.2212,-304.7 587.5,-304.7"/>
<polygon fill="#000000" stroke="#000000" points="640.7064,-342.8944 647.6875,-348.2071 644.6032,-343.7972 648.5,-344.7 648.5,-344.7 648.5,-344.7 644.6032,-343.7972 649.3125,-341.1929 640.7064,-342.8944 640.7064,-342.8944"/>
<ellipse fill="none" stroke="#000000" cx="637.589" cy="-342.1721" rx="3.2" ry="3.2"/>
</g>
<!-- questions.csv_ContributionTable&#45;&gt;questions.csv -->
<g id="edge11" class="edge">
<title>questions.csv_ContributionTable:w&#45;&gt;questions.csv:e</title>
<path fill="none" stroke="#000000" d="M633.8511,-366.6312C429.3348,-364.7046 366.2058,-323.3526 162,-377.7 142.2048,-382.9683 141.9843,-399.7 121.5,-399.7"/>
<polygon fill="#000000" stroke="#000000" points="640.5001,-366.6624 648.4831,-370.3 644.5,-366.6812 648.5,-366.7 648.5,-366.7 648.5,-366.7 644.5,-366.6812 648.5169,-363.1 640.5001,-366.6624 640.5001,-366.6624"/>
<ellipse fill="none" stroke="#000000" cx="637.3001" cy="-366.6474" rx="3.2" ry="3.2"/>
</g>
<!-- ValueTable -->
<g id="node12" class="node">
<title>ValueTable</title>
<g id="a_node12"><a xlink:href="../../tables/ValueTable.html" xlink:title="ValueTable" target="_top">
<polygon fill="#ffffff" stroke="transparent" points="667.5,-422.2 667.5,-593.2 871.5,-593.2 871.5,-422.2 667.5,-422.2"/>
<polygon fill="#f5f5f5" stroke="transparent" points="667.5,-569.7 667.5,-592.7 871.5,-592.7 871.5,-569.7 667.5,-569.7"/>
<polygon fill="none" stroke="#000000" points="667.5,-569.7 667.5,-592.7 871.5,-592.7 871.5,-569.7 667.5,-569.7"/>
<text text-anchor="start" x="672.5" y="-578.8" font-family="Helvetica,sans-Serif" font-weight="bold" font-size="11.00" fill="#000000">ValueTable</text>
<text text-anchor="start" x="836.5437" y="-577.8" font-family="Helvetica,sans-Serif" font-size="11.00" fill="#000000">[table]</text>
<polygon fill="none" stroke="#000000" points="667.5,-547.7 667.5,-569.7 871.5,-569.7 871.5,-547.7 667.5,-547.7"/>
<image xlink:href="../../images/primaryKeys.png" width="11px" height="12px" preserveAspectRatio="xMinYMin meet" x="672.5" y="-564.7"/>
<text text-anchor="start" x="687.5" y="-554.8" font-family="Helvetica,sans-Serif" font-size="11.00" fill="#000000">cldf_id</text>
<polygon fill="none" stroke="#000000" points="667.5,-525.7 667.5,-547.7 871.5,-547.7 871.5,-525.7 667.5,-525.7"/>
<image xlink:href="../../images/foreignKeys.png" width="11px" height="12px" preserveAspectRatio="xMinYMin meet" x="672.5" y="-542.7"/>
<text text-anchor="start" x="687.5" y="-532.8" font-family="Helvetica,sans-Serif" font-size="11.00" fill="#000000">cldf_languageReference</text>
<polygon fill="none" stroke="#000000" points="667.5,-503.7 667.5,-525.7 871.5,-525.7 871.5,-503.7 667.5,-503.7"/>
<image xlink:href="../../images/foreignKeys.png" width="11px" height="12px" preserveAspectRatio="xMinYMin meet" x="672.5" y="-520.7"/>
<text text-anchor="start" x="687.5" y="-510.8" font-family="Helvetica,sans-Serif" font-size="11.00" fill="#000000">cldf_parameterReference</text>
<polygon fill="none" stroke="#000000" points="667.5,-481.7 667.5,-503.7 871.5,-503.7 871.5,-481.7 667.5,-481.7"/>
<image xlink:href="../../images/foreignKeys.png" width="11px" height="12px" preserveAspectRatio="xMinYMin meet" x="672.5" y="-498.7"/>
<text text-anchor="start" x="687.5" y="-488.8" font-family="Helvetica,sans-Serif" font-size="11.00" fill="#000000">cldf_codeReference</text>
<polygon fill="none" stroke="#000000" points="667.5,-459.7 667.5,-481.7 871.5,-481.7 871.5,-459.7 667.5,-459.7"/>
<image xlink:href="../../images/foreignKeys.png" width="11px" height="12px" preserveAspectRatio="xMinYMin meet" x="672.5" y="-476.7"/>
<text text-anchor="start" x="687.5" y="-466.8" font-family="Helvetica,sans-Serif" font-size="11.00" fill="#000000">cldf_contributionReference</text>
<polygon fill="none" stroke="#000000" points="667.5,-440.7 667.5,-459.7 871.5,-459.7 871.5,-440.7 667.5,-440.7"/>
<text text-anchor="start" x="670.5" y="-446.8" font-family="Helvetica,sans-Serif" font-size="11.00" fill="#000000">...</text>
<polygon fill="#ffffff" stroke="transparent" points="667.5,-421.7 667.5,-440.7 736.5,-440.7 736.5,-421.7 667.5,-421.7"/>
<polygon fill="none" stroke="#000000" points="667.5,-421.7 667.5,-440.7 736.5,-440.7 736.5,-421.7 667.5,-421.7"/>
<text text-anchor="start" x="670.5" y="-427.8" font-family="Helvetica,sans-Serif" font-size="11.00" fill="#000000">&lt; 4</text>
<polygon fill="#ffffff" stroke="transparent" points="736.5,-421.7 736.5,-440.7 825.5,-440.7 825.5,-421.7 736.5,-421.7"/>
<polygon fill="none" stroke="#000000" points="736.5,-421.7 736.5,-440.7 825.5,-440.7 825.5,-421.7 736.5,-421.7"/>
<text text-anchor="start" x="762.594" y="-427.8" font-family="Helvetica,sans-Serif" font-size="11.00" fill="#000000">13,163 rows</text>
<polygon fill="#ffffff" stroke="transparent" points="825.5,-421.7 825.5,-440.7 871.5,-440.7 871.5,-421.7 825.5,-421.7"/>
<polygon fill="none" stroke="#000000" points="825.5,-421.7 825.5,-440.7 871.5,-440.7 871.5,-421.7 825.5,-421.7"/>
<text text-anchor="start" x="852.9053" y="-427.8" font-family="Helvetica,sans-Serif" font-size="11.00" fill="#000000">1 &gt;</text>
</a>
</g>
</g>
<!-- ValueTable&#45;&gt;CodeTable -->
<g id="edge12" class="edge">
<title>ValueTable:w&#45;&gt;CodeTable:e</title>
<path fill="none" stroke="#000000" d="M653.107,-490.675C629.1333,-483.3554 623.0111,-458.7 591.5,-458.7"/>
<polygon fill="#000000" stroke="#000000" points="659.578,-491.5854 666.9984,-496.2649 663.539,-492.1427 667.5,-492.7 667.5,-492.7 667.5,-492.7 663.539,-492.1427 668.0016,-489.1351 659.578,-491.5854 659.578,-491.5854"/>
<ellipse fill="none" stroke="#000000" cx="656.4092" cy="-491.1395" rx="3.2" ry="3.2"/>
</g>
<!-- ValueTable&#45;&gt;ContributionTable -->
<g id="edge13" class="edge">
<title>ValueTable:w&#45;&gt;ContributionTable:e</title>
<path fill="none" stroke="#000000" d="M652.9214,-468.4789C596.2839,-448.7804 663.7999,-304.7 587.5,-304.7"/>
<polygon fill="#000000" stroke="#000000" points="659.5913,-469.495 666.9578,-474.2589 663.5456,-470.0975 667.5,-470.7 667.5,-470.7 667.5,-470.7 663.5456,-470.0975 668.0422,-467.1411 659.5913,-469.495 659.5913,-469.495"/>
<ellipse fill="none" stroke="#000000" cx="656.4278" cy="-469.013" rx="3.2" ry="3.2"/>
</g>
<!-- ValueTable&#45;&gt;LanguageTable -->
<g id="edge14" class="edge">
<title>ValueTable:w&#45;&gt;LanguageTable:e</title>
<path fill="none" stroke="#000000" d="M652.9892,-536.9196C539.3841,-540.3393 481.2396,-581.4857 392,-503.7 318.9639,-440.0381 430.3871,-293.7 333.5,-293.7"/>
<polygon fill="#000000" stroke="#000000" points="659.5009,-536.8211 667.5545,-540.2996 663.5005,-536.7606 667.5,-536.7 667.5,-536.7 667.5,-536.7 663.5005,-536.7606 667.4455,-533.1004 659.5009,-536.8211 659.5009,-536.8211"/>
<ellipse fill="none" stroke="#000000" cx="656.3013" cy="-536.8696" rx="3.2" ry="3.2"/>
</g>
<!-- ValueTable&#45;&gt;ParameterTable -->
<g id="edge15" class="edge">
<title>ValueTable:w&#45;&gt;ParameterTable:e</title>
<path fill="none" stroke="#000000" d="M652.8176,-514.8981C541.3941,-517.913 498.3755,-553.6423 392,-503.7 367.6435,-492.2649 378.4072,-458.7 351.5,-458.7"/>
<polygon fill="#000000" stroke="#000000" points="659.5007,-514.808 667.5486,-518.2997 663.5004,-514.754 667.5,-514.7 667.5,-514.7 667.5,-514.7 663.5004,-514.754 667.4514,-511.1003 659.5007,-514.808 659.5007,-514.808"/>
<ellipse fill="none" stroke="#000000" cx="656.301" cy="-514.8511" rx="3.2" ry="3.2"/>
</g>
<!-- ValueTable_SourceTable -->
<g id="node13" class="node">
<title>ValueTable_SourceTable</title>
<g id="a_node13"><a xlink:href="../../tables/ValueTable_SourceTable.html" xlink:title="ValueTable_SourceTable" target="_top">
<polygon fill="#ffffff" stroke="transparent" points="971,-402.2 971,-507.2 1157,-507.2 1157,-402.2 971,-402.2"/>
<polygon fill="#f5f5f5" stroke="transparent" points="971,-483.7 971,-506.7 1157,-506.7 1157,-483.7 971,-483.7"/>
<polygon fill="none" stroke="#000000" points="971,-483.7 971,-506.7 1157,-506.7 1157,-483.7 971,-483.7"/>
<text text-anchor="start" x="976" y="-492.8" font-family="Helvetica,sans-Serif" font-weight="bold" font-size="11.00" fill="#000000">ValueTable_SourceTable</text>
<text text-anchor="start" x="1122.0437" y="-491.8" font-family="Helvetica,sans-Serif" font-size="11.00" fill="#000000">[table]</text>
<polygon fill="none" stroke="#000000" points="971,-461.7 971,-483.7 1157,-483.7 1157,-461.7 971,-461.7"/>
<image xlink:href="../../images/foreignKeys.png" width="11px" height="12px" preserveAspectRatio="xMinYMin meet" x="976" y="-478.7"/>
<text text-anchor="start" x="991" y="-468.8" font-family="Helvetica,sans-Serif" font-size="11.00" fill="#000000">ValueTable_cldf_id</text>
<polygon fill="none" stroke="#000000" points="971,-439.7 971,-461.7 1157,-461.7 1157,-439.7 971,-439.7"/>
<image xlink:href="../../images/foreignKeys.png" width="11px" height="12px" preserveAspectRatio="xMinYMin meet" x="976" y="-456.7"/>
<text text-anchor="start" x="991" y="-446.8" font-family="Helvetica,sans-Serif" font-size="11.00" fill="#000000">SourceTable_id</text>
<polygon fill="none" stroke="#000000" points="971,-420.7 971,-439.7 1157,-439.7 1157,-420.7 971,-420.7"/>
<text text-anchor="start" x="974" y="-426.8" font-family="Helvetica,sans-Serif" font-size="11.00" fill="#000000">...</text>
<polygon fill="#ffffff" stroke="transparent" points="971,-401.7 971,-420.7 1049,-420.7 1049,-401.7 971,-401.7"/>
<polygon fill="none" stroke="#000000" points="971,-401.7 971,-420.7 1049,-420.7 1049,-401.7 971,-401.7"/>
<text text-anchor="start" x="974" y="-407.8" font-family="Helvetica,sans-Serif" font-size="11.00" fill="#000000">&lt; 2</text>
<polygon fill="#ffffff" stroke="transparent" points="1049,-401.7 1049,-420.7 1116,-420.7 1116,-401.7 1049,-401.7"/>
<polygon fill="none" stroke="#000000" points="1049,-401.7 1049,-420.7 1116,-420.7 1116,-401.7 1049,-401.7"/>
<text text-anchor="start" x="1080.6105" y="-407.8" font-family="Helvetica,sans-Serif" font-size="11.00" fill="#000000">0 rows</text>
<polygon fill="#ffffff" stroke="transparent" points="1116,-401.7 1116,-420.7 1157,-420.7 1157,-401.7 1116,-401.7"/>
<polygon fill="none" stroke="#000000" points="1116,-401.7 1116,-420.7 1157,-420.7 1157,-401.7 1116,-401.7"/>
<text text-anchor="start" x="1147.8862" y="-407.8" font-family="Helvetica,sans-Serif" font-size="11.00" fill="#000000"> &#160;</text>
</a>
</g>
</g>
<!-- ValueTable_SourceTable&#45;&gt;SourceTable -->
<g id="edge16" class="edge">
<title>ValueTable_SourceTable:w&#45;&gt;SourceTable:e</title>
<path fill="none" stroke="#000000" d="M956.4641,-449.188C901.0574,-436.0919 954.8249,-341.0191 907,-285.7 880.4467,-254.9858 868.101,-240.7 827.5,-240.7"/>
<polygon fill="#000000" stroke="#000000" points="963.0429,-449.8723 970.6275,-454.2807 967.0215,-450.2861 971,-450.7 971,-450.7 971,-450.7 967.0215,-450.2861 971.3725,-447.1193 963.0429,-449.8723 963.0429,-449.8723"/>
<ellipse fill="none" stroke="#000000" cx="959.8601" cy="-449.5412" rx="3.2" ry="3.2"/>
</g>
<!-- ValueTable_SourceTable&#45;&gt;ValueTable -->
<g id="edge17" class="edge">
<title>ValueTable_SourceTable:w&#45;&gt;ValueTable:e</title>
<path fill="none" stroke="#000000" d="M956.7033,-474.741C915.1046,-487.7644 924.5856,-558.7 871.5,-558.7"/>
<polygon fill="#000000" stroke="#000000" points="963.0803,-473.8307 971.5088,-476.2639 967.0401,-473.2653 971,-472.7 971,-472.7 971,-472.7 967.0401,-473.2653 970.4912,-469.1361 963.0803,-473.8307 963.0803,-473.8307"/>
<ellipse fill="none" stroke="#000000" cx="959.9124" cy="-474.283" rx="3.2" ry="3.2"/>
</g>
</g>
</svg>

